G04 #@! TF.GenerationSoftware,KiCad,Pcbnew,(6.0.4-0)*
G04 #@! TF.CreationDate,2022-04-01T19:28:55+09:00*
G04 #@! TF.ProjectId,TrainingBoard-01,54726169-6e69-46e6-9742-6f6172642d30,V1.0*
G04 #@! TF.SameCoordinates,Original*
G04 #@! TF.FileFunction,Soldermask,Top*
G04 #@! TF.FilePolarity,Negative*
%FSLAX46Y46*%
G04 Gerber Fmt 4.6, Leading zero omitted, Abs format (unit mm)*
G04 Created by KiCad (PCBNEW (6.0.4-0)) date 2022-04-01 19:28:55*
%MOMM*%
%LPD*%
G01*
G04 APERTURE LIST*
G04 Aperture macros list*
%AMRoundRect*
0 Rectangle with rounded corners*
0 $1 Rounding radius*
0 $2 $3 $4 $5 $6 $7 $8 $9 X,Y pos of 4 corners*
0 Add a 4 corners polygon primitive as box body*
4,1,4,$2,$3,$4,$5,$6,$7,$8,$9,$2,$3,0*
0 Add four circle primitives for the rounded corners*
1,1,$1+$1,$2,$3*
1,1,$1+$1,$4,$5*
1,1,$1+$1,$6,$7*
1,1,$1+$1,$8,$9*
0 Add four rect primitives between the rounded corners*
20,1,$1+$1,$2,$3,$4,$5,0*
20,1,$1+$1,$4,$5,$6,$7,0*
20,1,$1+$1,$6,$7,$8,$9,0*
20,1,$1+$1,$8,$9,$2,$3,0*%
G04 Aperture macros list end*
%ADD10C,4.000000*%
%ADD11RoundRect,0.200000X-0.250000X-0.200000X0.250000X-0.200000X0.250000X0.200000X-0.250000X0.200000X0*%
%ADD12C,1.000000*%
%ADD13RoundRect,0.200000X-0.200000X0.250000X-0.200000X-0.250000X0.200000X-0.250000X0.200000X0.250000X0*%
%ADD14C,1.400000*%
%ADD15RoundRect,0.200000X0.200000X-0.250000X0.200000X0.250000X-0.200000X0.250000X-0.200000X-0.250000X0*%
%ADD16C,1.700000*%
%ADD17RoundRect,0.200000X0.250000X0.200000X-0.250000X0.200000X-0.250000X-0.200000X0.250000X-0.200000X0*%
%ADD18C,1.500000*%
%ADD19RoundRect,0.150000X0.150000X-0.725000X0.150000X0.725000X-0.150000X0.725000X-0.150000X-0.725000X0*%
%ADD20R,0.400000X1.400000*%
%ADD21R,2.000000X3.000000*%
G04 APERTURE END LIST*
D10*
X-35000000Y-95000000D03*
X35000000Y-95000000D03*
X35000000Y-5000000D03*
X-35000000Y-5000000D03*
D11*
X6770000Y-81280000D03*
X8470000Y-81280000D03*
D12*
X10160000Y-10160000D03*
D13*
X-17780000Y-15660000D03*
X-17780000Y-17360000D03*
D14*
X17780000Y-46990000D03*
D12*
X17780000Y-49530000D03*
D14*
X-2540000Y-46990000D03*
D12*
X-2540000Y-49530000D03*
D15*
X17780000Y-22440000D03*
X17780000Y-20740000D03*
X7620000Y-22440000D03*
X7620000Y-20740000D03*
D16*
X5370000Y-92150000D03*
X5370000Y-85650000D03*
X9870000Y-92150000D03*
X9870000Y-85650000D03*
D15*
X12700000Y-22440000D03*
X12700000Y-20740000D03*
D17*
X28790000Y-81280000D03*
X27090000Y-81280000D03*
D12*
X7620000Y-49530000D03*
D14*
X7620000Y-46990000D03*
D11*
X-3390000Y-81280000D03*
X-1690000Y-81280000D03*
D13*
X12700000Y-15660000D03*
X12700000Y-17360000D03*
D17*
X28790000Y-77470000D03*
X27090000Y-77470000D03*
D16*
X-20860000Y-80300000D03*
X-22860000Y-80300000D03*
X-24860000Y-80300000D03*
D17*
X-1690000Y-77470000D03*
X-3390000Y-77470000D03*
D14*
X-12700000Y-46990000D03*
D12*
X-12700000Y-49530000D03*
D16*
X25690000Y-92220000D03*
X25690000Y-85720000D03*
X30190000Y-92220000D03*
X30190000Y-85720000D03*
X15530000Y-92150000D03*
X15530000Y-85650000D03*
X20030000Y-92150000D03*
X20030000Y-85650000D03*
D12*
X27940000Y-69850000D03*
D14*
X27940000Y-72390000D03*
D15*
X10160000Y-35140000D03*
X10160000Y-33440000D03*
D18*
X-16860000Y-94900000D03*
D19*
X-5080000Y-39065000D03*
X-3810000Y-39065000D03*
X-2540000Y-39065000D03*
X-1270000Y-39065000D03*
X0Y-39065000D03*
X1270000Y-39065000D03*
X2540000Y-39065000D03*
X3810000Y-39065000D03*
X5080000Y-39065000D03*
X5080000Y-29515000D03*
X3810000Y-29515000D03*
X2540000Y-29515000D03*
X1270000Y-29515000D03*
X0Y-29515000D03*
X-1270000Y-29515000D03*
X-2540000Y-29515000D03*
X-3810000Y-29515000D03*
X-5080000Y-29515000D03*
D14*
X7620000Y-72390000D03*
D12*
X7620000Y-69850000D03*
D13*
X-12700000Y-15660000D03*
X-12700000Y-17360000D03*
D12*
X-17780000Y-49530000D03*
D14*
X-17780000Y-46990000D03*
D13*
X7620000Y-15660000D03*
X7620000Y-17360000D03*
D15*
X2540000Y-22440000D03*
X2540000Y-20740000D03*
D13*
X15240000Y-8040000D03*
X15240000Y-9740000D03*
D12*
X12700000Y-49530000D03*
D14*
X12700000Y-46990000D03*
X-2540000Y-72390000D03*
D12*
X-2540000Y-69850000D03*
X-17780000Y-69850000D03*
D14*
X-17780000Y-72390000D03*
D15*
X26670000Y-9740000D03*
X26670000Y-8040000D03*
D13*
X2540000Y-15660000D03*
X2540000Y-17360000D03*
D15*
X-12700000Y-22540000D03*
X-12700000Y-20840000D03*
X-17780000Y-22440000D03*
X-17780000Y-20740000D03*
D17*
X8470000Y-77470000D03*
X6770000Y-77470000D03*
D12*
X-10160000Y-10160000D03*
D13*
X-2540000Y-15660000D03*
X-2540000Y-17360000D03*
D12*
X17780000Y-69850000D03*
D14*
X17780000Y-72390000D03*
D16*
X-14260000Y-90900000D03*
X-14260000Y-88900000D03*
X-14260000Y-86900000D03*
D15*
X22860000Y-9740000D03*
X22860000Y-8040000D03*
D12*
X-27940000Y-69850000D03*
D14*
X-27940000Y-72390000D03*
D20*
X1700000Y-7000000D03*
X900000Y-7000000D03*
X100000Y-7000000D03*
X-700000Y-7000000D03*
X-1500000Y-7000000D03*
D21*
X-3900000Y-4500000D03*
X4100000Y-4500000D03*
D16*
X-4790000Y-92150000D03*
X-4790000Y-85650000D03*
X-290000Y-92150000D03*
X-290000Y-85650000D03*
D17*
X18630000Y-81280000D03*
X16930000Y-81280000D03*
D18*
X-28860000Y-82900000D03*
D14*
X-7620000Y-46990000D03*
D12*
X-7620000Y-49530000D03*
D15*
X-7620000Y-22440000D03*
X-7620000Y-20740000D03*
D17*
X18630000Y-77470000D03*
X16930000Y-77470000D03*
D13*
X17780000Y-15660000D03*
X17780000Y-17360000D03*
D14*
X2540000Y-46990000D03*
D12*
X2540000Y-49530000D03*
D13*
X-7620000Y-15660000D03*
X-7620000Y-17360000D03*
D15*
X19050000Y-9740000D03*
X19050000Y-8040000D03*
X-2540000Y-22440000D03*
X-2540000Y-20740000D03*
M02*
