G04 #@! TF.GenerationSoftware,KiCad,Pcbnew,(6.0.4-0)*
G04 #@! TF.CreationDate,2022-04-01T19:28:55+09:00*
G04 #@! TF.ProjectId,TrainingBoard-01,54726169-6e69-46e6-9742-6f6172642d30,V1.0*
G04 #@! TF.SameCoordinates,Original*
G04 #@! TF.FileFunction,Legend,Top*
G04 #@! TF.FilePolarity,Positive*
%FSLAX46Y46*%
G04 Gerber Fmt 4.6, Leading zero omitted, Abs format (unit mm)*
G04 Created by KiCad (PCBNEW (6.0.4-0)) date 2022-04-01 19:28:55*
%MOMM*%
%LPD*%
G01*
G04 APERTURE LIST*
%ADD10C,0.150000*%
%ADD11C,0.200000*%
%ADD12C,0.120000*%
G04 APERTURE END LIST*
D10*
X-20860000Y-88900000D02*
G75*
G03*
X-20860000Y-88900000I-2000000J0D01*
G01*
X-28460000Y-97500000D02*
X-17260000Y-97500000D01*
X-28460000Y-97500000D02*
X-31460000Y-94500000D01*
X-28460000Y-80300000D02*
X-26260000Y-80300000D01*
X-17260000Y-97500000D02*
X-14260000Y-94500000D01*
X-14260000Y-94500000D02*
X-14260000Y-92300000D01*
X-14260000Y-83300000D02*
X-17260000Y-80300000D01*
X-31460000Y-83300000D02*
X-28460000Y-80300000D01*
X-14260000Y-83300000D02*
X-14260000Y-85500000D01*
X-17260000Y-80300000D02*
X-19460000Y-80300000D01*
X-31460000Y-94500000D02*
X-31460000Y-83300000D01*
X-18860000Y-88900000D02*
G75*
G03*
X-18860000Y-88900000I-4000000J0D01*
G01*
X21621904Y-80927380D02*
X21621904Y-79927380D01*
X22002857Y-79927380D01*
X22098095Y-79975000D01*
X22145714Y-80022619D01*
X22193333Y-80117857D01*
X22193333Y-80260714D01*
X22145714Y-80355952D01*
X22098095Y-80403571D01*
X22002857Y-80451190D01*
X21621904Y-80451190D01*
X23050476Y-80260714D02*
X23050476Y-80927380D01*
X22621904Y-80260714D02*
X22621904Y-80784523D01*
X22669523Y-80879761D01*
X22764761Y-80927380D01*
X22907619Y-80927380D01*
X23002857Y-80879761D01*
X23050476Y-80832142D01*
X23669523Y-80927380D02*
X23574285Y-80879761D01*
X23526666Y-80784523D01*
X23526666Y-79927380D01*
X24193333Y-80927380D02*
X24098095Y-80879761D01*
X24050476Y-80784523D01*
X24050476Y-79927380D01*
X22121904Y-81537380D02*
X22121904Y-82346904D01*
X22169523Y-82442142D01*
X22217142Y-82489761D01*
X22312380Y-82537380D01*
X22502857Y-82537380D01*
X22598095Y-82489761D01*
X22645714Y-82442142D01*
X22693333Y-82346904D01*
X22693333Y-81537380D01*
X23169523Y-81870714D02*
X23169523Y-82870714D01*
X23169523Y-81918333D02*
X23264761Y-81870714D01*
X23455238Y-81870714D01*
X23550476Y-81918333D01*
X23598095Y-81965952D01*
X23645714Y-82061190D01*
X23645714Y-82346904D01*
X23598095Y-82442142D01*
X23550476Y-82489761D01*
X23455238Y-82537380D01*
X23264761Y-82537380D01*
X23169523Y-82489761D01*
X-3142857Y-10612380D02*
X-3142857Y-9612380D01*
X-2809523Y-10326666D01*
X-2476190Y-9612380D01*
X-2476190Y-10612380D01*
X-2000000Y-10612380D02*
X-2000000Y-9945714D01*
X-2000000Y-9612380D02*
X-2047619Y-9660000D01*
X-2000000Y-9707619D01*
X-1952380Y-9660000D01*
X-2000000Y-9612380D01*
X-2000000Y-9707619D01*
X-1523809Y-9945714D02*
X-1523809Y-10612380D01*
X-1523809Y-10040952D02*
X-1476190Y-9993333D01*
X-1380952Y-9945714D01*
X-1238095Y-9945714D01*
X-1142857Y-9993333D01*
X-1095238Y-10088571D01*
X-1095238Y-10612380D01*
X-619047Y-10612380D02*
X-619047Y-9945714D01*
X-619047Y-9612380D02*
X-666666Y-9660000D01*
X-619047Y-9707619D01*
X-571428Y-9660000D01*
X-619047Y-9612380D01*
X-619047Y-9707619D01*
X619047Y-9612380D02*
X619047Y-10421904D01*
X666666Y-10517142D01*
X714285Y-10564761D01*
X809523Y-10612380D01*
X999999Y-10612380D01*
X1095238Y-10564761D01*
X1142857Y-10517142D01*
X1190476Y-10421904D01*
X1190476Y-9612380D01*
X1619047Y-10564761D02*
X1761904Y-10612380D01*
X1999999Y-10612380D01*
X2095238Y-10564761D01*
X2142857Y-10517142D01*
X2190476Y-10421904D01*
X2190476Y-10326666D01*
X2142857Y-10231428D01*
X2095238Y-10183809D01*
X1999999Y-10136190D01*
X1809523Y-10088571D01*
X1714285Y-10040952D01*
X1666666Y-9993333D01*
X1619047Y-9898095D01*
X1619047Y-9802857D01*
X1666666Y-9707619D01*
X1714285Y-9660000D01*
X1809523Y-9612380D01*
X2047619Y-9612380D01*
X2190476Y-9660000D01*
X2952380Y-10088571D02*
X3095238Y-10136190D01*
X3142857Y-10183809D01*
X3190476Y-10279047D01*
X3190476Y-10421904D01*
X3142857Y-10517142D01*
X3095238Y-10564761D01*
X2999999Y-10612380D01*
X2619047Y-10612380D01*
X2619047Y-9612380D01*
X2952380Y-9612380D01*
X3047619Y-9660000D01*
X3095238Y-9707619D01*
X3142857Y-9802857D01*
X3142857Y-9898095D01*
X3095238Y-9993333D01*
X3047619Y-10040952D01*
X2952380Y-10088571D01*
X2619047Y-10088571D01*
X1555904Y-80927380D02*
X1555904Y-79927380D01*
X1936857Y-79927380D01*
X2032095Y-79975000D01*
X2079714Y-80022619D01*
X2127333Y-80117857D01*
X2127333Y-80260714D01*
X2079714Y-80355952D01*
X2032095Y-80403571D01*
X1936857Y-80451190D01*
X1555904Y-80451190D01*
X2984476Y-80260714D02*
X2984476Y-80927380D01*
X2555904Y-80260714D02*
X2555904Y-80784523D01*
X2603523Y-80879761D01*
X2698761Y-80927380D01*
X2841619Y-80927380D01*
X2936857Y-80879761D01*
X2984476Y-80832142D01*
X3603523Y-80927380D02*
X3508285Y-80879761D01*
X3460666Y-80784523D01*
X3460666Y-79927380D01*
X4127333Y-80927380D02*
X4032095Y-80879761D01*
X3984476Y-80784523D01*
X3984476Y-79927380D01*
X1103523Y-82537380D02*
X1103523Y-81537380D01*
X1341619Y-81537380D01*
X1484476Y-81585000D01*
X1579714Y-81680238D01*
X1627333Y-81775476D01*
X1674952Y-81965952D01*
X1674952Y-82108809D01*
X1627333Y-82299285D01*
X1579714Y-82394523D01*
X1484476Y-82489761D01*
X1341619Y-82537380D01*
X1103523Y-82537380D01*
X2246380Y-82537380D02*
X2151142Y-82489761D01*
X2103523Y-82442142D01*
X2055904Y-82346904D01*
X2055904Y-82061190D01*
X2103523Y-81965952D01*
X2151142Y-81918333D01*
X2246380Y-81870714D01*
X2389238Y-81870714D01*
X2484476Y-81918333D01*
X2532095Y-81965952D01*
X2579714Y-82061190D01*
X2579714Y-82346904D01*
X2532095Y-82442142D01*
X2484476Y-82489761D01*
X2389238Y-82537380D01*
X2246380Y-82537380D01*
X2913047Y-81870714D02*
X3103523Y-82537380D01*
X3294000Y-82061190D01*
X3484476Y-82537380D01*
X3674952Y-81870714D01*
X4055904Y-81870714D02*
X4055904Y-82537380D01*
X4055904Y-81965952D02*
X4103523Y-81918333D01*
X4198761Y-81870714D01*
X4341619Y-81870714D01*
X4436857Y-81918333D01*
X4484476Y-82013571D01*
X4484476Y-82537380D01*
X8874285Y-8961428D02*
X9636190Y-8961428D01*
X9255238Y-9342380D02*
X9255238Y-8580476D01*
X10588571Y-8342380D02*
X10112380Y-8342380D01*
X10064761Y-8818571D01*
X10112380Y-8770952D01*
X10207619Y-8723333D01*
X10445714Y-8723333D01*
X10540952Y-8770952D01*
X10588571Y-8818571D01*
X10636190Y-8913809D01*
X10636190Y-9151904D01*
X10588571Y-9247142D01*
X10540952Y-9294761D01*
X10445714Y-9342380D01*
X10207619Y-9342380D01*
X10112380Y-9294761D01*
X10064761Y-9247142D01*
X10921904Y-8342380D02*
X11255238Y-9342380D01*
X11588571Y-8342380D01*
X24693809Y-11882380D02*
X24693809Y-10882380D01*
X25074761Y-10882380D01*
X25169999Y-10930000D01*
X25217619Y-10977619D01*
X25265238Y-11072857D01*
X25265238Y-11215714D01*
X25217619Y-11310952D01*
X25169999Y-11358571D01*
X25074761Y-11406190D01*
X24693809Y-11406190D01*
X25836666Y-11882380D02*
X25741428Y-11834761D01*
X25693809Y-11787142D01*
X25646190Y-11691904D01*
X25646190Y-11406190D01*
X25693809Y-11310952D01*
X25741428Y-11263333D01*
X25836666Y-11215714D01*
X25979523Y-11215714D01*
X26074761Y-11263333D01*
X26122380Y-11310952D01*
X26169999Y-11406190D01*
X26169999Y-11691904D01*
X26122380Y-11787142D01*
X26074761Y-11834761D01*
X25979523Y-11882380D01*
X25836666Y-11882380D01*
X26503333Y-11215714D02*
X26693809Y-11882380D01*
X26884285Y-11406190D01*
X27074761Y-11882380D01*
X27265238Y-11215714D01*
X28027142Y-11834761D02*
X27931904Y-11882380D01*
X27741428Y-11882380D01*
X27646190Y-11834761D01*
X27598571Y-11739523D01*
X27598571Y-11358571D01*
X27646190Y-11263333D01*
X27741428Y-11215714D01*
X27931904Y-11215714D01*
X28027142Y-11263333D01*
X28074761Y-11358571D01*
X28074761Y-11453809D01*
X27598571Y-11549047D01*
X28503333Y-11882380D02*
X28503333Y-11215714D01*
X28503333Y-11406190D02*
X28550952Y-11310952D01*
X28598571Y-11263333D01*
X28693809Y-11215714D01*
X28789047Y-11215714D01*
D11*
X-10142857Y-94971071D02*
X-9285714Y-94971071D01*
X-9714285Y-96471071D02*
X-9714285Y-94971071D01*
X-8785714Y-96471071D02*
X-8785714Y-95471071D01*
X-8785714Y-95756785D02*
X-8714285Y-95613928D01*
X-8642857Y-95542500D01*
X-8500000Y-95471071D01*
X-8357142Y-95471071D01*
X-7214285Y-96471071D02*
X-7214285Y-95685357D01*
X-7285714Y-95542500D01*
X-7428571Y-95471071D01*
X-7714285Y-95471071D01*
X-7857142Y-95542500D01*
X-7214285Y-96399642D02*
X-7357142Y-96471071D01*
X-7714285Y-96471071D01*
X-7857142Y-96399642D01*
X-7928571Y-96256785D01*
X-7928571Y-96113928D01*
X-7857142Y-95971071D01*
X-7714285Y-95899642D01*
X-7357142Y-95899642D01*
X-7214285Y-95828214D01*
X-6500000Y-96471071D02*
X-6500000Y-95471071D01*
X-6500000Y-94971071D02*
X-6571428Y-95042500D01*
X-6500000Y-95113928D01*
X-6428571Y-95042500D01*
X-6500000Y-94971071D01*
X-6500000Y-95113928D01*
X-5785714Y-95471071D02*
X-5785714Y-96471071D01*
X-5785714Y-95613928D02*
X-5714285Y-95542500D01*
X-5571428Y-95471071D01*
X-5357142Y-95471071D01*
X-5214285Y-95542500D01*
X-5142857Y-95685357D01*
X-5142857Y-96471071D01*
X-4428571Y-96471071D02*
X-4428571Y-95471071D01*
X-4428571Y-94971071D02*
X-4500000Y-95042500D01*
X-4428571Y-95113928D01*
X-4357142Y-95042500D01*
X-4428571Y-94971071D01*
X-4428571Y-95113928D01*
X-3714285Y-95471071D02*
X-3714285Y-96471071D01*
X-3714285Y-95613928D02*
X-3642857Y-95542500D01*
X-3500000Y-95471071D01*
X-3285714Y-95471071D01*
X-3142857Y-95542500D01*
X-3071428Y-95685357D01*
X-3071428Y-96471071D01*
X-1714285Y-95471071D02*
X-1714285Y-96685357D01*
X-1785714Y-96828214D01*
X-1857142Y-96899642D01*
X-2000000Y-96971071D01*
X-2214285Y-96971071D01*
X-2357142Y-96899642D01*
X-1714285Y-96399642D02*
X-1857142Y-96471071D01*
X-2142857Y-96471071D01*
X-2285714Y-96399642D01*
X-2357142Y-96328214D01*
X-2428571Y-96185357D01*
X-2428571Y-95756785D01*
X-2357142Y-95613928D01*
X-2285714Y-95542500D01*
X-2142857Y-95471071D01*
X-1857142Y-95471071D01*
X-1714285Y-95542500D01*
X642857Y-95685357D02*
X857142Y-95756785D01*
X928571Y-95828214D01*
X999999Y-95971071D01*
X999999Y-96185357D01*
X928571Y-96328214D01*
X857142Y-96399642D01*
X714285Y-96471071D01*
X142857Y-96471071D01*
X142857Y-94971071D01*
X642857Y-94971071D01*
X785714Y-95042500D01*
X857142Y-95113928D01*
X928571Y-95256785D01*
X928571Y-95399642D01*
X857142Y-95542500D01*
X785714Y-95613928D01*
X642857Y-95685357D01*
X142857Y-95685357D01*
X1857142Y-96471071D02*
X1714285Y-96399642D01*
X1642857Y-96328214D01*
X1571428Y-96185357D01*
X1571428Y-95756785D01*
X1642857Y-95613928D01*
X1714285Y-95542500D01*
X1857142Y-95471071D01*
X2071428Y-95471071D01*
X2214285Y-95542500D01*
X2285714Y-95613928D01*
X2357142Y-95756785D01*
X2357142Y-96185357D01*
X2285714Y-96328214D01*
X2214285Y-96399642D01*
X2071428Y-96471071D01*
X1857142Y-96471071D01*
X3642857Y-96471071D02*
X3642857Y-95685357D01*
X3571428Y-95542500D01*
X3428571Y-95471071D01*
X3142857Y-95471071D01*
X2999999Y-95542500D01*
X3642857Y-96399642D02*
X3499999Y-96471071D01*
X3142857Y-96471071D01*
X2999999Y-96399642D01*
X2928571Y-96256785D01*
X2928571Y-96113928D01*
X2999999Y-95971071D01*
X3142857Y-95899642D01*
X3499999Y-95899642D01*
X3642857Y-95828214D01*
X4357142Y-96471071D02*
X4357142Y-95471071D01*
X4357142Y-95756785D02*
X4428571Y-95613928D01*
X4499999Y-95542500D01*
X4642857Y-95471071D01*
X4785714Y-95471071D01*
X5928571Y-96471071D02*
X5928571Y-94971071D01*
X5928571Y-96399642D02*
X5785714Y-96471071D01*
X5499999Y-96471071D01*
X5357142Y-96399642D01*
X5285714Y-96328214D01*
X5214285Y-96185357D01*
X5214285Y-95756785D01*
X5285714Y-95613928D01*
X5357142Y-95542500D01*
X5499999Y-95471071D01*
X5785714Y-95471071D01*
X5928571Y-95542500D01*
X8071428Y-94971071D02*
X8214285Y-94971071D01*
X8357142Y-95042500D01*
X8428571Y-95113928D01*
X8499999Y-95256785D01*
X8571428Y-95542500D01*
X8571428Y-95899642D01*
X8499999Y-96185357D01*
X8428571Y-96328214D01*
X8357142Y-96399642D01*
X8214285Y-96471071D01*
X8071428Y-96471071D01*
X7928571Y-96399642D01*
X7857142Y-96328214D01*
X7785714Y-96185357D01*
X7714285Y-95899642D01*
X7714285Y-95542500D01*
X7785714Y-95256785D01*
X7857142Y-95113928D01*
X7928571Y-95042500D01*
X8071428Y-94971071D01*
X9999999Y-96471071D02*
X9142857Y-96471071D01*
X9571428Y-96471071D02*
X9571428Y-94971071D01*
X9428571Y-95185357D01*
X9285714Y-95328214D01*
X9142857Y-95399642D01*
X-2285714Y-97386071D02*
X-1785714Y-98886071D01*
X-1285714Y-97386071D01*
X0Y-98886071D02*
X-857142Y-98886071D01*
X-428571Y-98886071D02*
X-428571Y-97386071D01*
X-571428Y-97600357D01*
X-714285Y-97743214D01*
X-857142Y-97814642D01*
X642857Y-98743214D02*
X714285Y-98814642D01*
X642857Y-98886071D01*
X571428Y-98814642D01*
X642857Y-98743214D01*
X642857Y-98886071D01*
X1642857Y-97386071D02*
X1785714Y-97386071D01*
X1928571Y-97457500D01*
X1999999Y-97528928D01*
X2071428Y-97671785D01*
X2142857Y-97957500D01*
X2142857Y-98314642D01*
X2071428Y-98600357D01*
X1999999Y-98743214D01*
X1928571Y-98814642D01*
X1785714Y-98886071D01*
X1642857Y-98886071D01*
X1499999Y-98814642D01*
X1428571Y-98743214D01*
X1357142Y-98600357D01*
X1285714Y-98314642D01*
X1285714Y-97957500D01*
X1357142Y-97671785D01*
X1428571Y-97528928D01*
X1499999Y-97457500D01*
X1642857Y-97386071D01*
D10*
X-10921904Y-8390000D02*
X-11017142Y-8342380D01*
X-11160000Y-8342380D01*
X-11302857Y-8390000D01*
X-11398095Y-8485238D01*
X-11445714Y-8580476D01*
X-11493333Y-8770952D01*
X-11493333Y-8913809D01*
X-11445714Y-9104285D01*
X-11398095Y-9199523D01*
X-11302857Y-9294761D01*
X-11160000Y-9342380D01*
X-11064761Y-9342380D01*
X-10921904Y-9294761D01*
X-10874285Y-9247142D01*
X-10874285Y-8913809D01*
X-11064761Y-8913809D01*
X-10445714Y-9342380D02*
X-10445714Y-8342380D01*
X-9874285Y-9342380D01*
X-9874285Y-8342380D01*
X-9398095Y-9342380D02*
X-9398095Y-8342380D01*
X-9160000Y-8342380D01*
X-9017142Y-8390000D01*
X-8921904Y-8485238D01*
X-8874285Y-8580476D01*
X-8826666Y-8770952D01*
X-8826666Y-8913809D01*
X-8874285Y-9104285D01*
X-8921904Y-9199523D01*
X-9017142Y-9294761D01*
X-9160000Y-9342380D01*
X-9398095Y-9342380D01*
X6977142Y-80232380D02*
X6643809Y-79756190D01*
X6405714Y-80232380D02*
X6405714Y-79232380D01*
X6786666Y-79232380D01*
X6881904Y-79280000D01*
X6929523Y-79327619D01*
X6977142Y-79422857D01*
X6977142Y-79565714D01*
X6929523Y-79660952D01*
X6881904Y-79708571D01*
X6786666Y-79756190D01*
X6405714Y-79756190D01*
X7929523Y-80232380D02*
X7358095Y-80232380D01*
X7643809Y-80232380D02*
X7643809Y-79232380D01*
X7548571Y-79375238D01*
X7453333Y-79470476D01*
X7358095Y-79518095D01*
X8548571Y-79232380D02*
X8643809Y-79232380D01*
X8739047Y-79280000D01*
X8786666Y-79327619D01*
X8834285Y-79422857D01*
X8881904Y-79613333D01*
X8881904Y-79851428D01*
X8834285Y-80041904D01*
X8786666Y-80137142D01*
X8739047Y-80184761D01*
X8643809Y-80232380D01*
X8548571Y-80232380D01*
X8453333Y-80184761D01*
X8405714Y-80137142D01*
X8358095Y-80041904D01*
X8310476Y-79851428D01*
X8310476Y-79613333D01*
X8358095Y-79422857D01*
X8405714Y-79327619D01*
X8453333Y-79280000D01*
X8548571Y-79232380D01*
X8421904Y-10882380D02*
X8993333Y-10882380D01*
X8707619Y-11882380D02*
X8707619Y-10882380D01*
X9326666Y-11882380D02*
X9326666Y-10882380D01*
X9707619Y-10882380D01*
X9802857Y-10930000D01*
X9850476Y-10977619D01*
X9898095Y-11072857D01*
X9898095Y-11215714D01*
X9850476Y-11310952D01*
X9802857Y-11358571D01*
X9707619Y-11406190D01*
X9326666Y-11406190D01*
X10850476Y-11882380D02*
X10279047Y-11882380D01*
X10564761Y-11882380D02*
X10564761Y-10882380D01*
X10469523Y-11025238D01*
X10374285Y-11120476D01*
X10279047Y-11168095D01*
X11755238Y-10882380D02*
X11279047Y-10882380D01*
X11231428Y-11358571D01*
X11279047Y-11310952D01*
X11374285Y-11263333D01*
X11612380Y-11263333D01*
X11707619Y-11310952D01*
X11755238Y-11358571D01*
X11802857Y-11453809D01*
X11802857Y-11691904D01*
X11755238Y-11787142D01*
X11707619Y-11834761D01*
X11612380Y-11882380D01*
X11374285Y-11882380D01*
X11279047Y-11834761D01*
X11231428Y-11787142D01*
X-18518095Y-14549380D02*
X-18518095Y-13549380D01*
X-18280000Y-13549380D01*
X-18137142Y-13597000D01*
X-18041904Y-13692238D01*
X-17994285Y-13787476D01*
X-17946666Y-13977952D01*
X-17946666Y-14120809D01*
X-17994285Y-14311285D01*
X-18041904Y-14406523D01*
X-18137142Y-14501761D01*
X-18280000Y-14549380D01*
X-18518095Y-14549380D01*
X-16994285Y-14549380D02*
X-17565714Y-14549380D01*
X-17280000Y-14549380D02*
X-17280000Y-13549380D01*
X-17375238Y-13692238D01*
X-17470476Y-13787476D01*
X-17565714Y-13835095D01*
X16518095Y-44791380D02*
X17089523Y-44791380D01*
X16803809Y-45791380D02*
X16803809Y-44791380D01*
X17422857Y-45791380D02*
X17422857Y-44791380D01*
X17803809Y-44791380D01*
X17899047Y-44839000D01*
X17946666Y-44886619D01*
X17994285Y-44981857D01*
X17994285Y-45124714D01*
X17946666Y-45219952D01*
X17899047Y-45267571D01*
X17803809Y-45315190D01*
X17422857Y-45315190D01*
X18565714Y-45219952D02*
X18470476Y-45172333D01*
X18422857Y-45124714D01*
X18375238Y-45029476D01*
X18375238Y-44981857D01*
X18422857Y-44886619D01*
X18470476Y-44839000D01*
X18565714Y-44791380D01*
X18756190Y-44791380D01*
X18851428Y-44839000D01*
X18899047Y-44886619D01*
X18946666Y-44981857D01*
X18946666Y-45029476D01*
X18899047Y-45124714D01*
X18851428Y-45172333D01*
X18756190Y-45219952D01*
X18565714Y-45219952D01*
X18470476Y-45267571D01*
X18422857Y-45315190D01*
X18375238Y-45410428D01*
X18375238Y-45600904D01*
X18422857Y-45696142D01*
X18470476Y-45743761D01*
X18565714Y-45791380D01*
X18756190Y-45791380D01*
X18851428Y-45743761D01*
X18899047Y-45696142D01*
X18946666Y-45600904D01*
X18946666Y-45410428D01*
X18899047Y-45315190D01*
X18851428Y-45267571D01*
X18756190Y-45219952D01*
X-3801904Y-44791380D02*
X-3230476Y-44791380D01*
X-3516190Y-45791380D02*
X-3516190Y-44791380D01*
X-2897142Y-45791380D02*
X-2897142Y-44791380D01*
X-2516190Y-44791380D01*
X-2420952Y-44839000D01*
X-2373333Y-44886619D01*
X-2325714Y-44981857D01*
X-2325714Y-45124714D01*
X-2373333Y-45219952D01*
X-2420952Y-45267571D01*
X-2516190Y-45315190D01*
X-2897142Y-45315190D01*
X-1468571Y-45124714D02*
X-1468571Y-45791380D01*
X-1706666Y-44743761D02*
X-1944761Y-45458047D01*
X-1325714Y-45458047D01*
X17613333Y-19629380D02*
X17280000Y-19153190D01*
X17041904Y-19629380D02*
X17041904Y-18629380D01*
X17422857Y-18629380D01*
X17518095Y-18677000D01*
X17565714Y-18724619D01*
X17613333Y-18819857D01*
X17613333Y-18962714D01*
X17565714Y-19057952D01*
X17518095Y-19105571D01*
X17422857Y-19153190D01*
X17041904Y-19153190D01*
X18184761Y-19057952D02*
X18089523Y-19010333D01*
X18041904Y-18962714D01*
X17994285Y-18867476D01*
X17994285Y-18819857D01*
X18041904Y-18724619D01*
X18089523Y-18677000D01*
X18184761Y-18629380D01*
X18375238Y-18629380D01*
X18470476Y-18677000D01*
X18518095Y-18724619D01*
X18565714Y-18819857D01*
X18565714Y-18867476D01*
X18518095Y-18962714D01*
X18470476Y-19010333D01*
X18375238Y-19057952D01*
X18184761Y-19057952D01*
X18089523Y-19105571D01*
X18041904Y-19153190D01*
X17994285Y-19248428D01*
X17994285Y-19438904D01*
X18041904Y-19534142D01*
X18089523Y-19581761D01*
X18184761Y-19629380D01*
X18375238Y-19629380D01*
X18470476Y-19581761D01*
X18518095Y-19534142D01*
X18565714Y-19438904D01*
X18565714Y-19248428D01*
X18518095Y-19153190D01*
X18470476Y-19105571D01*
X18375238Y-19057952D01*
X7453333Y-19629380D02*
X7120000Y-19153190D01*
X6881904Y-19629380D02*
X6881904Y-18629380D01*
X7262857Y-18629380D01*
X7358095Y-18677000D01*
X7405714Y-18724619D01*
X7453333Y-18819857D01*
X7453333Y-18962714D01*
X7405714Y-19057952D01*
X7358095Y-19105571D01*
X7262857Y-19153190D01*
X6881904Y-19153190D01*
X8310476Y-18629380D02*
X8120000Y-18629380D01*
X8024761Y-18677000D01*
X7977142Y-18724619D01*
X7881904Y-18867476D01*
X7834285Y-19057952D01*
X7834285Y-19438904D01*
X7881904Y-19534142D01*
X7929523Y-19581761D01*
X8024761Y-19629380D01*
X8215238Y-19629380D01*
X8310476Y-19581761D01*
X8358095Y-19534142D01*
X8405714Y-19438904D01*
X8405714Y-19200809D01*
X8358095Y-19105571D01*
X8310476Y-19057952D01*
X8215238Y-19010333D01*
X8024761Y-19010333D01*
X7929523Y-19057952D01*
X7881904Y-19105571D01*
X7834285Y-19200809D01*
X6032666Y-84224761D02*
X6175523Y-84272380D01*
X6413619Y-84272380D01*
X6508857Y-84224761D01*
X6556476Y-84177142D01*
X6604095Y-84081904D01*
X6604095Y-83986666D01*
X6556476Y-83891428D01*
X6508857Y-83843809D01*
X6413619Y-83796190D01*
X6223142Y-83748571D01*
X6127904Y-83700952D01*
X6080285Y-83653333D01*
X6032666Y-83558095D01*
X6032666Y-83462857D01*
X6080285Y-83367619D01*
X6127904Y-83320000D01*
X6223142Y-83272380D01*
X6461238Y-83272380D01*
X6604095Y-83320000D01*
X6937428Y-83272380D02*
X7175523Y-84272380D01*
X7366000Y-83558095D01*
X7556476Y-84272380D01*
X7794571Y-83272380D01*
X8127904Y-83367619D02*
X8175523Y-83320000D01*
X8270761Y-83272380D01*
X8508857Y-83272380D01*
X8604095Y-83320000D01*
X8651714Y-83367619D01*
X8699333Y-83462857D01*
X8699333Y-83558095D01*
X8651714Y-83700952D01*
X8080285Y-84272380D01*
X8699333Y-84272380D01*
X12533333Y-19629380D02*
X12200000Y-19153190D01*
X11961904Y-19629380D02*
X11961904Y-18629380D01*
X12342857Y-18629380D01*
X12438095Y-18677000D01*
X12485714Y-18724619D01*
X12533333Y-18819857D01*
X12533333Y-18962714D01*
X12485714Y-19057952D01*
X12438095Y-19105571D01*
X12342857Y-19153190D01*
X11961904Y-19153190D01*
X12866666Y-18629380D02*
X13533333Y-18629380D01*
X13104761Y-19629380D01*
X27297142Y-80208380D02*
X26963809Y-79732190D01*
X26725714Y-80208380D02*
X26725714Y-79208380D01*
X27106666Y-79208380D01*
X27201904Y-79256000D01*
X27249523Y-79303619D01*
X27297142Y-79398857D01*
X27297142Y-79541714D01*
X27249523Y-79636952D01*
X27201904Y-79684571D01*
X27106666Y-79732190D01*
X26725714Y-79732190D01*
X28249523Y-80208380D02*
X27678095Y-80208380D01*
X27963809Y-80208380D02*
X27963809Y-79208380D01*
X27868571Y-79351238D01*
X27773333Y-79446476D01*
X27678095Y-79494095D01*
X28630476Y-79303619D02*
X28678095Y-79256000D01*
X28773333Y-79208380D01*
X29011428Y-79208380D01*
X29106666Y-79256000D01*
X29154285Y-79303619D01*
X29201904Y-79398857D01*
X29201904Y-79494095D01*
X29154285Y-79636952D01*
X28582857Y-80208380D01*
X29201904Y-80208380D01*
X6358095Y-44791380D02*
X6929523Y-44791380D01*
X6643809Y-45791380D02*
X6643809Y-44791380D01*
X7262857Y-45791380D02*
X7262857Y-44791380D01*
X7643809Y-44791380D01*
X7739047Y-44839000D01*
X7786666Y-44886619D01*
X7834285Y-44981857D01*
X7834285Y-45124714D01*
X7786666Y-45219952D01*
X7739047Y-45267571D01*
X7643809Y-45315190D01*
X7262857Y-45315190D01*
X8691428Y-44791380D02*
X8500952Y-44791380D01*
X8405714Y-44839000D01*
X8358095Y-44886619D01*
X8262857Y-45029476D01*
X8215238Y-45219952D01*
X8215238Y-45600904D01*
X8262857Y-45696142D01*
X8310476Y-45743761D01*
X8405714Y-45791380D01*
X8596190Y-45791380D01*
X8691428Y-45743761D01*
X8739047Y-45696142D01*
X8786666Y-45600904D01*
X8786666Y-45362809D01*
X8739047Y-45267571D01*
X8691428Y-45219952D01*
X8596190Y-45172333D01*
X8405714Y-45172333D01*
X8310476Y-45219952D01*
X8262857Y-45267571D01*
X8215238Y-45362809D01*
X-2706666Y-80232380D02*
X-3040000Y-79756190D01*
X-3278095Y-80232380D02*
X-3278095Y-79232380D01*
X-2897142Y-79232380D01*
X-2801904Y-79280000D01*
X-2754285Y-79327619D01*
X-2706666Y-79422857D01*
X-2706666Y-79565714D01*
X-2754285Y-79660952D01*
X-2801904Y-79708571D01*
X-2897142Y-79756190D01*
X-3278095Y-79756190D01*
X-2230476Y-80232380D02*
X-2040000Y-80232380D01*
X-1944761Y-80184761D01*
X-1897142Y-80137142D01*
X-1801904Y-79994285D01*
X-1754285Y-79803809D01*
X-1754285Y-79422857D01*
X-1801904Y-79327619D01*
X-1849523Y-79280000D01*
X-1944761Y-79232380D01*
X-2135238Y-79232380D01*
X-2230476Y-79280000D01*
X-2278095Y-79327619D01*
X-2325714Y-79422857D01*
X-2325714Y-79660952D01*
X-2278095Y-79756190D01*
X-2230476Y-79803809D01*
X-2135238Y-79851428D01*
X-1944761Y-79851428D01*
X-1849523Y-79803809D01*
X-1801904Y-79756190D01*
X-1754285Y-79660952D01*
X11961904Y-14549380D02*
X11961904Y-13549380D01*
X12200000Y-13549380D01*
X12342857Y-13597000D01*
X12438095Y-13692238D01*
X12485714Y-13787476D01*
X12533333Y-13977952D01*
X12533333Y-14120809D01*
X12485714Y-14311285D01*
X12438095Y-14406523D01*
X12342857Y-14501761D01*
X12200000Y-14549380D01*
X11961904Y-14549380D01*
X12866666Y-13549380D02*
X13533333Y-13549380D01*
X13104761Y-14549380D01*
X27773333Y-76303142D02*
X27725714Y-76350761D01*
X27582857Y-76398380D01*
X27487619Y-76398380D01*
X27344761Y-76350761D01*
X27249523Y-76255523D01*
X27201904Y-76160285D01*
X27154285Y-75969809D01*
X27154285Y-75826952D01*
X27201904Y-75636476D01*
X27249523Y-75541238D01*
X27344761Y-75446000D01*
X27487619Y-75398380D01*
X27582857Y-75398380D01*
X27725714Y-75446000D01*
X27773333Y-75493619D01*
X28630476Y-75731714D02*
X28630476Y-76398380D01*
X28392380Y-75350761D02*
X28154285Y-76065047D01*
X28773333Y-76065047D01*
X-23455238Y-78752380D02*
X-23788571Y-78276190D01*
X-24026666Y-78752380D02*
X-24026666Y-77752380D01*
X-23645714Y-77752380D01*
X-23550476Y-77800000D01*
X-23502857Y-77847619D01*
X-23455238Y-77942857D01*
X-23455238Y-78085714D01*
X-23502857Y-78180952D01*
X-23550476Y-78228571D01*
X-23645714Y-78276190D01*
X-24026666Y-78276190D01*
X-23169523Y-77752380D02*
X-22836190Y-78752380D01*
X-22502857Y-77752380D01*
X-21645714Y-78752380D02*
X-22217142Y-78752380D01*
X-21931428Y-78752380D02*
X-21931428Y-77752380D01*
X-22026666Y-77895238D01*
X-22121904Y-77990476D01*
X-22217142Y-78038095D01*
X-2706666Y-76303142D02*
X-2754285Y-76350761D01*
X-2897142Y-76398380D01*
X-2992380Y-76398380D01*
X-3135238Y-76350761D01*
X-3230476Y-76255523D01*
X-3278095Y-76160285D01*
X-3325714Y-75969809D01*
X-3325714Y-75826952D01*
X-3278095Y-75636476D01*
X-3230476Y-75541238D01*
X-3135238Y-75446000D01*
X-2992380Y-75398380D01*
X-2897142Y-75398380D01*
X-2754285Y-75446000D01*
X-2706666Y-75493619D01*
X-1754285Y-76398380D02*
X-2325714Y-76398380D01*
X-2040000Y-76398380D02*
X-2040000Y-75398380D01*
X-2135238Y-75541238D01*
X-2230476Y-75636476D01*
X-2325714Y-75684095D01*
X-13961904Y-44791380D02*
X-13390476Y-44791380D01*
X-13676190Y-45791380D02*
X-13676190Y-44791380D01*
X-13057142Y-45791380D02*
X-13057142Y-44791380D01*
X-12676190Y-44791380D01*
X-12580952Y-44839000D01*
X-12533333Y-44886619D01*
X-12485714Y-44981857D01*
X-12485714Y-45124714D01*
X-12533333Y-45219952D01*
X-12580952Y-45267571D01*
X-12676190Y-45315190D01*
X-13057142Y-45315190D01*
X-12104761Y-44886619D02*
X-12057142Y-44839000D01*
X-11961904Y-44791380D01*
X-11723809Y-44791380D01*
X-11628571Y-44839000D01*
X-11580952Y-44886619D01*
X-11533333Y-44981857D01*
X-11533333Y-45077095D01*
X-11580952Y-45219952D01*
X-12152380Y-45791380D01*
X-11533333Y-45791380D01*
X26606666Y-84224761D02*
X26749523Y-84272380D01*
X26987619Y-84272380D01*
X27082857Y-84224761D01*
X27130476Y-84177142D01*
X27178095Y-84081904D01*
X27178095Y-83986666D01*
X27130476Y-83891428D01*
X27082857Y-83843809D01*
X26987619Y-83796190D01*
X26797142Y-83748571D01*
X26701904Y-83700952D01*
X26654285Y-83653333D01*
X26606666Y-83558095D01*
X26606666Y-83462857D01*
X26654285Y-83367619D01*
X26701904Y-83320000D01*
X26797142Y-83272380D01*
X27035238Y-83272380D01*
X27178095Y-83320000D01*
X27511428Y-83272380D02*
X27749523Y-84272380D01*
X27940000Y-83558095D01*
X28130476Y-84272380D01*
X28368571Y-83272380D01*
X29178095Y-83605714D02*
X29178095Y-84272380D01*
X28940000Y-83224761D02*
X28701904Y-83939047D01*
X29320952Y-83939047D01*
X16446666Y-84224761D02*
X16589523Y-84272380D01*
X16827619Y-84272380D01*
X16922857Y-84224761D01*
X16970476Y-84177142D01*
X17018095Y-84081904D01*
X17018095Y-83986666D01*
X16970476Y-83891428D01*
X16922857Y-83843809D01*
X16827619Y-83796190D01*
X16637142Y-83748571D01*
X16541904Y-83700952D01*
X16494285Y-83653333D01*
X16446666Y-83558095D01*
X16446666Y-83462857D01*
X16494285Y-83367619D01*
X16541904Y-83320000D01*
X16637142Y-83272380D01*
X16875238Y-83272380D01*
X17018095Y-83320000D01*
X17351428Y-83272380D02*
X17589523Y-84272380D01*
X17780000Y-83558095D01*
X17970476Y-84272380D01*
X18208571Y-83272380D01*
X18494285Y-83272380D02*
X19113333Y-83272380D01*
X18780000Y-83653333D01*
X18922857Y-83653333D01*
X19018095Y-83700952D01*
X19065714Y-83748571D01*
X19113333Y-83843809D01*
X19113333Y-84081904D01*
X19065714Y-84177142D01*
X19018095Y-84224761D01*
X18922857Y-84272380D01*
X18637142Y-84272380D01*
X18541904Y-84224761D01*
X18494285Y-84177142D01*
X26201904Y-73493380D02*
X26773333Y-73493380D01*
X26487619Y-74493380D02*
X26487619Y-73493380D01*
X27106666Y-74493380D02*
X27106666Y-73493380D01*
X27487619Y-73493380D01*
X27582857Y-73541000D01*
X27630476Y-73588619D01*
X27678095Y-73683857D01*
X27678095Y-73826714D01*
X27630476Y-73921952D01*
X27582857Y-73969571D01*
X27487619Y-74017190D01*
X27106666Y-74017190D01*
X28630476Y-74493380D02*
X28059047Y-74493380D01*
X28344761Y-74493380D02*
X28344761Y-73493380D01*
X28249523Y-73636238D01*
X28154285Y-73731476D01*
X28059047Y-73779095D01*
X29011428Y-73588619D02*
X29059047Y-73541000D01*
X29154285Y-73493380D01*
X29392380Y-73493380D01*
X29487619Y-73541000D01*
X29535238Y-73588619D01*
X29582857Y-73683857D01*
X29582857Y-73779095D01*
X29535238Y-73921952D01*
X28963809Y-74493380D01*
X29582857Y-74493380D01*
X9993333Y-32234142D02*
X9945714Y-32281761D01*
X9802857Y-32329380D01*
X9707619Y-32329380D01*
X9564761Y-32281761D01*
X9469523Y-32186523D01*
X9421904Y-32091285D01*
X9374285Y-31900809D01*
X9374285Y-31757952D01*
X9421904Y-31567476D01*
X9469523Y-31472238D01*
X9564761Y-31377000D01*
X9707619Y-31329380D01*
X9802857Y-31329380D01*
X9945714Y-31377000D01*
X9993333Y-31424619D01*
X10850476Y-31329380D02*
X10660000Y-31329380D01*
X10564761Y-31377000D01*
X10517142Y-31424619D01*
X10421904Y-31567476D01*
X10374285Y-31757952D01*
X10374285Y-32138904D01*
X10421904Y-32234142D01*
X10469523Y-32281761D01*
X10564761Y-32329380D01*
X10755238Y-32329380D01*
X10850476Y-32281761D01*
X10898095Y-32234142D01*
X10945714Y-32138904D01*
X10945714Y-31900809D01*
X10898095Y-31805571D01*
X10850476Y-31757952D01*
X10755238Y-31710333D01*
X10564761Y-31710333D01*
X10469523Y-31757952D01*
X10421904Y-31805571D01*
X10374285Y-31900809D01*
X-761904Y-27138380D02*
X-761904Y-27947904D01*
X-714285Y-28043142D01*
X-666666Y-28090761D01*
X-571428Y-28138380D01*
X-380952Y-28138380D01*
X-285714Y-28090761D01*
X-238095Y-28043142D01*
X-190476Y-27947904D01*
X-190476Y-27138380D01*
X809523Y-28138380D02*
X238095Y-28138380D01*
X523809Y-28138380D02*
X523809Y-27138380D01*
X428571Y-27281238D01*
X333333Y-27376476D01*
X238095Y-27424095D01*
X5881904Y-73493380D02*
X6453333Y-73493380D01*
X6167619Y-74493380D02*
X6167619Y-73493380D01*
X6786666Y-74493380D02*
X6786666Y-73493380D01*
X7167619Y-73493380D01*
X7262857Y-73541000D01*
X7310476Y-73588619D01*
X7358095Y-73683857D01*
X7358095Y-73826714D01*
X7310476Y-73921952D01*
X7262857Y-73969571D01*
X7167619Y-74017190D01*
X6786666Y-74017190D01*
X8310476Y-74493380D02*
X7739047Y-74493380D01*
X8024761Y-74493380D02*
X8024761Y-73493380D01*
X7929523Y-73636238D01*
X7834285Y-73731476D01*
X7739047Y-73779095D01*
X8929523Y-73493380D02*
X9024761Y-73493380D01*
X9120000Y-73541000D01*
X9167619Y-73588619D01*
X9215238Y-73683857D01*
X9262857Y-73874333D01*
X9262857Y-74112428D01*
X9215238Y-74302904D01*
X9167619Y-74398142D01*
X9120000Y-74445761D01*
X9024761Y-74493380D01*
X8929523Y-74493380D01*
X8834285Y-74445761D01*
X8786666Y-74398142D01*
X8739047Y-74302904D01*
X8691428Y-74112428D01*
X8691428Y-73874333D01*
X8739047Y-73683857D01*
X8786666Y-73588619D01*
X8834285Y-73541000D01*
X8929523Y-73493380D01*
X-13438095Y-14549380D02*
X-13438095Y-13549380D01*
X-13200000Y-13549380D01*
X-13057142Y-13597000D01*
X-12961904Y-13692238D01*
X-12914285Y-13787476D01*
X-12866666Y-13977952D01*
X-12866666Y-14120809D01*
X-12914285Y-14311285D01*
X-12961904Y-14406523D01*
X-13057142Y-14501761D01*
X-13200000Y-14549380D01*
X-13438095Y-14549380D01*
X-12485714Y-13644619D02*
X-12438095Y-13597000D01*
X-12342857Y-13549380D01*
X-12104761Y-13549380D01*
X-12009523Y-13597000D01*
X-11961904Y-13644619D01*
X-11914285Y-13739857D01*
X-11914285Y-13835095D01*
X-11961904Y-13977952D01*
X-12533333Y-14549380D01*
X-11914285Y-14549380D01*
X-19041904Y-44791380D02*
X-18470476Y-44791380D01*
X-18756190Y-45791380D02*
X-18756190Y-44791380D01*
X-18137142Y-45791380D02*
X-18137142Y-44791380D01*
X-17756190Y-44791380D01*
X-17660952Y-44839000D01*
X-17613333Y-44886619D01*
X-17565714Y-44981857D01*
X-17565714Y-45124714D01*
X-17613333Y-45219952D01*
X-17660952Y-45267571D01*
X-17756190Y-45315190D01*
X-18137142Y-45315190D01*
X-16613333Y-45791380D02*
X-17184761Y-45791380D01*
X-16899047Y-45791380D02*
X-16899047Y-44791380D01*
X-16994285Y-44934238D01*
X-17089523Y-45029476D01*
X-17184761Y-45077095D01*
X6881904Y-14549380D02*
X6881904Y-13549380D01*
X7120000Y-13549380D01*
X7262857Y-13597000D01*
X7358095Y-13692238D01*
X7405714Y-13787476D01*
X7453333Y-13977952D01*
X7453333Y-14120809D01*
X7405714Y-14311285D01*
X7358095Y-14406523D01*
X7262857Y-14501761D01*
X7120000Y-14549380D01*
X6881904Y-14549380D01*
X8310476Y-13549380D02*
X8120000Y-13549380D01*
X8024761Y-13597000D01*
X7977142Y-13644619D01*
X7881904Y-13787476D01*
X7834285Y-13977952D01*
X7834285Y-14358904D01*
X7881904Y-14454142D01*
X7929523Y-14501761D01*
X8024761Y-14549380D01*
X8215238Y-14549380D01*
X8310476Y-14501761D01*
X8358095Y-14454142D01*
X8405714Y-14358904D01*
X8405714Y-14120809D01*
X8358095Y-14025571D01*
X8310476Y-13977952D01*
X8215238Y-13930333D01*
X8024761Y-13930333D01*
X7929523Y-13977952D01*
X7881904Y-14025571D01*
X7834285Y-14120809D01*
X2373333Y-19629380D02*
X2040000Y-19153190D01*
X1801904Y-19629380D02*
X1801904Y-18629380D01*
X2182857Y-18629380D01*
X2278095Y-18677000D01*
X2325714Y-18724619D01*
X2373333Y-18819857D01*
X2373333Y-18962714D01*
X2325714Y-19057952D01*
X2278095Y-19105571D01*
X2182857Y-19153190D01*
X1801904Y-19153190D01*
X3278095Y-18629380D02*
X2801904Y-18629380D01*
X2754285Y-19105571D01*
X2801904Y-19057952D01*
X2897142Y-19010333D01*
X3135238Y-19010333D01*
X3230476Y-19057952D01*
X3278095Y-19105571D01*
X3325714Y-19200809D01*
X3325714Y-19438904D01*
X3278095Y-19534142D01*
X3230476Y-19581761D01*
X3135238Y-19629380D01*
X2897142Y-19629380D01*
X2801904Y-19581761D01*
X2754285Y-19534142D01*
X14906666Y-6405571D02*
X14573333Y-6405571D01*
X14573333Y-6929380D02*
X14573333Y-5929380D01*
X15049523Y-5929380D01*
X15954285Y-6929380D02*
X15382857Y-6929380D01*
X15668571Y-6929380D02*
X15668571Y-5929380D01*
X15573333Y-6072238D01*
X15478095Y-6167476D01*
X15382857Y-6215095D01*
X11438095Y-44791380D02*
X12009523Y-44791380D01*
X11723809Y-45791380D02*
X11723809Y-44791380D01*
X12342857Y-45791380D02*
X12342857Y-44791380D01*
X12723809Y-44791380D01*
X12819047Y-44839000D01*
X12866666Y-44886619D01*
X12914285Y-44981857D01*
X12914285Y-45124714D01*
X12866666Y-45219952D01*
X12819047Y-45267571D01*
X12723809Y-45315190D01*
X12342857Y-45315190D01*
X13247619Y-44791380D02*
X13914285Y-44791380D01*
X13485714Y-45791380D01*
X-3801904Y-73493380D02*
X-3230476Y-73493380D01*
X-3516190Y-74493380D02*
X-3516190Y-73493380D01*
X-2897142Y-74493380D02*
X-2897142Y-73493380D01*
X-2516190Y-73493380D01*
X-2420952Y-73541000D01*
X-2373333Y-73588619D01*
X-2325714Y-73683857D01*
X-2325714Y-73826714D01*
X-2373333Y-73921952D01*
X-2420952Y-73969571D01*
X-2516190Y-74017190D01*
X-2897142Y-74017190D01*
X-1849523Y-74493380D02*
X-1659047Y-74493380D01*
X-1563809Y-74445761D01*
X-1516190Y-74398142D01*
X-1420952Y-74255285D01*
X-1373333Y-74064809D01*
X-1373333Y-73683857D01*
X-1420952Y-73588619D01*
X-1468571Y-73541000D01*
X-1563809Y-73493380D01*
X-1754285Y-73493380D01*
X-1849523Y-73541000D01*
X-1897142Y-73588619D01*
X-1944761Y-73683857D01*
X-1944761Y-73921952D01*
X-1897142Y-74017190D01*
X-1849523Y-74064809D01*
X-1754285Y-74112428D01*
X-1563809Y-74112428D01*
X-1468571Y-74064809D01*
X-1420952Y-74017190D01*
X-1373333Y-73921952D01*
X-19518095Y-73493380D02*
X-18946666Y-73493380D01*
X-19232380Y-74493380D02*
X-19232380Y-73493380D01*
X-18613333Y-74493380D02*
X-18613333Y-73493380D01*
X-18232380Y-73493380D01*
X-18137142Y-73541000D01*
X-18089523Y-73588619D01*
X-18041904Y-73683857D01*
X-18041904Y-73826714D01*
X-18089523Y-73921952D01*
X-18137142Y-73969571D01*
X-18232380Y-74017190D01*
X-18613333Y-74017190D01*
X-17089523Y-74493380D02*
X-17660952Y-74493380D01*
X-17375238Y-74493380D02*
X-17375238Y-73493380D01*
X-17470476Y-73636238D01*
X-17565714Y-73731476D01*
X-17660952Y-73779095D01*
X-16232380Y-73826714D02*
X-16232380Y-74493380D01*
X-16470476Y-73445761D02*
X-16708571Y-74160047D01*
X-16089523Y-74160047D01*
X25931904Y-6929380D02*
X25931904Y-5929380D01*
X26170000Y-5929380D01*
X26312857Y-5977000D01*
X26408095Y-6072238D01*
X26455714Y-6167476D01*
X26503333Y-6357952D01*
X26503333Y-6500809D01*
X26455714Y-6691285D01*
X26408095Y-6786523D01*
X26312857Y-6881761D01*
X26170000Y-6929380D01*
X25931904Y-6929380D01*
X26979523Y-6929380D02*
X27170000Y-6929380D01*
X27265238Y-6881761D01*
X27312857Y-6834142D01*
X27408095Y-6691285D01*
X27455714Y-6500809D01*
X27455714Y-6119857D01*
X27408095Y-6024619D01*
X27360476Y-5977000D01*
X27265238Y-5929380D01*
X27074761Y-5929380D01*
X26979523Y-5977000D01*
X26931904Y-6024619D01*
X26884285Y-6119857D01*
X26884285Y-6357952D01*
X26931904Y-6453190D01*
X26979523Y-6500809D01*
X27074761Y-6548428D01*
X27265238Y-6548428D01*
X27360476Y-6500809D01*
X27408095Y-6453190D01*
X27455714Y-6357952D01*
X1801904Y-14549380D02*
X1801904Y-13549380D01*
X2040000Y-13549380D01*
X2182857Y-13597000D01*
X2278095Y-13692238D01*
X2325714Y-13787476D01*
X2373333Y-13977952D01*
X2373333Y-14120809D01*
X2325714Y-14311285D01*
X2278095Y-14406523D01*
X2182857Y-14501761D01*
X2040000Y-14549380D01*
X1801904Y-14549380D01*
X3278095Y-13549380D02*
X2801904Y-13549380D01*
X2754285Y-14025571D01*
X2801904Y-13977952D01*
X2897142Y-13930333D01*
X3135238Y-13930333D01*
X3230476Y-13977952D01*
X3278095Y-14025571D01*
X3325714Y-14120809D01*
X3325714Y-14358904D01*
X3278095Y-14454142D01*
X3230476Y-14501761D01*
X3135238Y-14549380D01*
X2897142Y-14549380D01*
X2801904Y-14501761D01*
X2754285Y-14454142D01*
X-12866666Y-19629380D02*
X-13200000Y-19153190D01*
X-13438095Y-19629380D02*
X-13438095Y-18629380D01*
X-13057142Y-18629380D01*
X-12961904Y-18677000D01*
X-12914285Y-18724619D01*
X-12866666Y-18819857D01*
X-12866666Y-18962714D01*
X-12914285Y-19057952D01*
X-12961904Y-19105571D01*
X-13057142Y-19153190D01*
X-13438095Y-19153190D01*
X-12485714Y-18724619D02*
X-12438095Y-18677000D01*
X-12342857Y-18629380D01*
X-12104761Y-18629380D01*
X-12009523Y-18677000D01*
X-11961904Y-18724619D01*
X-11914285Y-18819857D01*
X-11914285Y-18915095D01*
X-11961904Y-19057952D01*
X-12533333Y-19629380D01*
X-11914285Y-19629380D01*
X-17946666Y-19629380D02*
X-18280000Y-19153190D01*
X-18518095Y-19629380D02*
X-18518095Y-18629380D01*
X-18137142Y-18629380D01*
X-18041904Y-18677000D01*
X-17994285Y-18724619D01*
X-17946666Y-18819857D01*
X-17946666Y-18962714D01*
X-17994285Y-19057952D01*
X-18041904Y-19105571D01*
X-18137142Y-19153190D01*
X-18518095Y-19153190D01*
X-16994285Y-19629380D02*
X-17565714Y-19629380D01*
X-17280000Y-19629380D02*
X-17280000Y-18629380D01*
X-17375238Y-18772238D01*
X-17470476Y-18867476D01*
X-17565714Y-18915095D01*
X7453333Y-76303142D02*
X7405714Y-76350761D01*
X7262857Y-76398380D01*
X7167619Y-76398380D01*
X7024761Y-76350761D01*
X6929523Y-76255523D01*
X6881904Y-76160285D01*
X6834285Y-75969809D01*
X6834285Y-75826952D01*
X6881904Y-75636476D01*
X6929523Y-75541238D01*
X7024761Y-75446000D01*
X7167619Y-75398380D01*
X7262857Y-75398380D01*
X7405714Y-75446000D01*
X7453333Y-75493619D01*
X7834285Y-75493619D02*
X7881904Y-75446000D01*
X7977142Y-75398380D01*
X8215238Y-75398380D01*
X8310476Y-75446000D01*
X8358095Y-75493619D01*
X8405714Y-75588857D01*
X8405714Y-75684095D01*
X8358095Y-75826952D01*
X7786666Y-76398380D01*
X8405714Y-76398380D01*
X-11898095Y-10882380D02*
X-11326666Y-10882380D01*
X-11612380Y-11882380D02*
X-11612380Y-10882380D01*
X-10993333Y-11882380D02*
X-10993333Y-10882380D01*
X-10612380Y-10882380D01*
X-10517142Y-10930000D01*
X-10469523Y-10977619D01*
X-10421904Y-11072857D01*
X-10421904Y-11215714D01*
X-10469523Y-11310952D01*
X-10517142Y-11358571D01*
X-10612380Y-11406190D01*
X-10993333Y-11406190D01*
X-9469523Y-11882380D02*
X-10040952Y-11882380D01*
X-9755238Y-11882380D02*
X-9755238Y-10882380D01*
X-9850476Y-11025238D01*
X-9945714Y-11120476D01*
X-10040952Y-11168095D01*
X-8612380Y-10882380D02*
X-8802857Y-10882380D01*
X-8898095Y-10930000D01*
X-8945714Y-10977619D01*
X-9040952Y-11120476D01*
X-9088571Y-11310952D01*
X-9088571Y-11691904D01*
X-9040952Y-11787142D01*
X-8993333Y-11834761D01*
X-8898095Y-11882380D01*
X-8707619Y-11882380D01*
X-8612380Y-11834761D01*
X-8564761Y-11787142D01*
X-8517142Y-11691904D01*
X-8517142Y-11453809D01*
X-8564761Y-11358571D01*
X-8612380Y-11310952D01*
X-8707619Y-11263333D01*
X-8898095Y-11263333D01*
X-8993333Y-11310952D01*
X-9040952Y-11358571D01*
X-9088571Y-11453809D01*
X-3278095Y-14549380D02*
X-3278095Y-13549380D01*
X-3040000Y-13549380D01*
X-2897142Y-13597000D01*
X-2801904Y-13692238D01*
X-2754285Y-13787476D01*
X-2706666Y-13977952D01*
X-2706666Y-14120809D01*
X-2754285Y-14311285D01*
X-2801904Y-14406523D01*
X-2897142Y-14501761D01*
X-3040000Y-14549380D01*
X-3278095Y-14549380D01*
X-1849523Y-13882714D02*
X-1849523Y-14549380D01*
X-2087619Y-13501761D02*
X-2325714Y-14216047D01*
X-1706666Y-14216047D01*
X16041904Y-73493380D02*
X16613333Y-73493380D01*
X16327619Y-74493380D02*
X16327619Y-73493380D01*
X16946666Y-74493380D02*
X16946666Y-73493380D01*
X17327619Y-73493380D01*
X17422857Y-73541000D01*
X17470476Y-73588619D01*
X17518095Y-73683857D01*
X17518095Y-73826714D01*
X17470476Y-73921952D01*
X17422857Y-73969571D01*
X17327619Y-74017190D01*
X16946666Y-74017190D01*
X18470476Y-74493380D02*
X17899047Y-74493380D01*
X18184761Y-74493380D02*
X18184761Y-73493380D01*
X18089523Y-73636238D01*
X17994285Y-73731476D01*
X17899047Y-73779095D01*
X19422857Y-74493380D02*
X18851428Y-74493380D01*
X19137142Y-74493380D02*
X19137142Y-73493380D01*
X19041904Y-73636238D01*
X18946666Y-73731476D01*
X18851428Y-73779095D01*
X-12025238Y-89352380D02*
X-12358571Y-88876190D01*
X-12596666Y-89352380D02*
X-12596666Y-88352380D01*
X-12215714Y-88352380D01*
X-12120476Y-88400000D01*
X-12072857Y-88447619D01*
X-12025238Y-88542857D01*
X-12025238Y-88685714D01*
X-12072857Y-88780952D01*
X-12120476Y-88828571D01*
X-12215714Y-88876190D01*
X-12596666Y-88876190D01*
X-11739523Y-88352380D02*
X-11406190Y-89352380D01*
X-11072857Y-88352380D01*
X-10787142Y-88447619D02*
X-10739523Y-88400000D01*
X-10644285Y-88352380D01*
X-10406190Y-88352380D01*
X-10310952Y-88400000D01*
X-10263333Y-88447619D01*
X-10215714Y-88542857D01*
X-10215714Y-88638095D01*
X-10263333Y-88780952D01*
X-10834761Y-89352380D01*
X-10215714Y-89352380D01*
X22217142Y-6929380D02*
X21883809Y-6453190D01*
X21645714Y-6929380D02*
X21645714Y-5929380D01*
X22026666Y-5929380D01*
X22121904Y-5977000D01*
X22169523Y-6024619D01*
X22217142Y-6119857D01*
X22217142Y-6262714D01*
X22169523Y-6357952D01*
X22121904Y-6405571D01*
X22026666Y-6453190D01*
X21645714Y-6453190D01*
X23169523Y-6929380D02*
X22598095Y-6929380D01*
X22883809Y-6929380D02*
X22883809Y-5929380D01*
X22788571Y-6072238D01*
X22693333Y-6167476D01*
X22598095Y-6215095D01*
X23502857Y-5929380D02*
X24121904Y-5929380D01*
X23788571Y-6310333D01*
X23931428Y-6310333D01*
X24026666Y-6357952D01*
X24074285Y-6405571D01*
X24121904Y-6500809D01*
X24121904Y-6738904D01*
X24074285Y-6834142D01*
X24026666Y-6881761D01*
X23931428Y-6929380D01*
X23645714Y-6929380D01*
X23550476Y-6881761D01*
X23502857Y-6834142D01*
X-29678095Y-73493380D02*
X-29106666Y-73493380D01*
X-29392380Y-74493380D02*
X-29392380Y-73493380D01*
X-28773333Y-74493380D02*
X-28773333Y-73493380D01*
X-28392380Y-73493380D01*
X-28297142Y-73541000D01*
X-28249523Y-73588619D01*
X-28201904Y-73683857D01*
X-28201904Y-73826714D01*
X-28249523Y-73921952D01*
X-28297142Y-73969571D01*
X-28392380Y-74017190D01*
X-28773333Y-74017190D01*
X-27249523Y-74493380D02*
X-27820952Y-74493380D01*
X-27535238Y-74493380D02*
X-27535238Y-73493380D01*
X-27630476Y-73636238D01*
X-27725714Y-73731476D01*
X-27820952Y-73779095D01*
X-26916190Y-73493380D02*
X-26297142Y-73493380D01*
X-26630476Y-73874333D01*
X-26487619Y-73874333D01*
X-26392380Y-73921952D01*
X-26344761Y-73969571D01*
X-26297142Y-74064809D01*
X-26297142Y-74302904D01*
X-26344761Y-74398142D01*
X-26392380Y-74445761D01*
X-26487619Y-74493380D01*
X-26773333Y-74493380D01*
X-26868571Y-74445761D01*
X-26916190Y-74398142D01*
X-233333Y-8152380D02*
X-233333Y-8866666D01*
X-280952Y-9009523D01*
X-376190Y-9104761D01*
X-519047Y-9152380D01*
X-614285Y-9152380D01*
X766666Y-9152380D02*
X195238Y-9152380D01*
X480952Y-9152380D02*
X480952Y-8152380D01*
X385714Y-8295238D01*
X290476Y-8390476D01*
X195238Y-8438095D01*
X-3873333Y-84224761D02*
X-3730476Y-84272380D01*
X-3492380Y-84272380D01*
X-3397142Y-84224761D01*
X-3349523Y-84177142D01*
X-3301904Y-84081904D01*
X-3301904Y-83986666D01*
X-3349523Y-83891428D01*
X-3397142Y-83843809D01*
X-3492380Y-83796190D01*
X-3682857Y-83748571D01*
X-3778095Y-83700952D01*
X-3825714Y-83653333D01*
X-3873333Y-83558095D01*
X-3873333Y-83462857D01*
X-3825714Y-83367619D01*
X-3778095Y-83320000D01*
X-3682857Y-83272380D01*
X-3444761Y-83272380D01*
X-3301904Y-83320000D01*
X-2968571Y-83272380D02*
X-2730476Y-84272380D01*
X-2540000Y-83558095D01*
X-2349523Y-84272380D01*
X-2111428Y-83272380D01*
X-1206666Y-84272380D02*
X-1778095Y-84272380D01*
X-1492380Y-84272380D02*
X-1492380Y-83272380D01*
X-1587619Y-83415238D01*
X-1682857Y-83510476D01*
X-1778095Y-83558095D01*
X17137142Y-80208380D02*
X16803809Y-79732190D01*
X16565714Y-80208380D02*
X16565714Y-79208380D01*
X16946666Y-79208380D01*
X17041904Y-79256000D01*
X17089523Y-79303619D01*
X17137142Y-79398857D01*
X17137142Y-79541714D01*
X17089523Y-79636952D01*
X17041904Y-79684571D01*
X16946666Y-79732190D01*
X16565714Y-79732190D01*
X18089523Y-80208380D02*
X17518095Y-80208380D01*
X17803809Y-80208380D02*
X17803809Y-79208380D01*
X17708571Y-79351238D01*
X17613333Y-79446476D01*
X17518095Y-79494095D01*
X19041904Y-80208380D02*
X18470476Y-80208380D01*
X18756190Y-80208380D02*
X18756190Y-79208380D01*
X18660952Y-79351238D01*
X18565714Y-79446476D01*
X18470476Y-79494095D01*
X-8881904Y-44791380D02*
X-8310476Y-44791380D01*
X-8596190Y-45791380D02*
X-8596190Y-44791380D01*
X-7977142Y-45791380D02*
X-7977142Y-44791380D01*
X-7596190Y-44791380D01*
X-7500952Y-44839000D01*
X-7453333Y-44886619D01*
X-7405714Y-44981857D01*
X-7405714Y-45124714D01*
X-7453333Y-45219952D01*
X-7500952Y-45267571D01*
X-7596190Y-45315190D01*
X-7977142Y-45315190D01*
X-7072380Y-44791380D02*
X-6453333Y-44791380D01*
X-6786666Y-45172333D01*
X-6643809Y-45172333D01*
X-6548571Y-45219952D01*
X-6500952Y-45267571D01*
X-6453333Y-45362809D01*
X-6453333Y-45600904D01*
X-6500952Y-45696142D01*
X-6548571Y-45743761D01*
X-6643809Y-45791380D01*
X-6929523Y-45791380D01*
X-7024761Y-45743761D01*
X-7072380Y-45696142D01*
X-7786666Y-19629380D02*
X-8120000Y-19153190D01*
X-8358095Y-19629380D02*
X-8358095Y-18629380D01*
X-7977142Y-18629380D01*
X-7881904Y-18677000D01*
X-7834285Y-18724619D01*
X-7786666Y-18819857D01*
X-7786666Y-18962714D01*
X-7834285Y-19057952D01*
X-7881904Y-19105571D01*
X-7977142Y-19153190D01*
X-8358095Y-19153190D01*
X-7453333Y-18629380D02*
X-6834285Y-18629380D01*
X-7167619Y-19010333D01*
X-7024761Y-19010333D01*
X-6929523Y-19057952D01*
X-6881904Y-19105571D01*
X-6834285Y-19200809D01*
X-6834285Y-19438904D01*
X-6881904Y-19534142D01*
X-6929523Y-19581761D01*
X-7024761Y-19629380D01*
X-7310476Y-19629380D01*
X-7405714Y-19581761D01*
X-7453333Y-19534142D01*
X17613333Y-76303142D02*
X17565714Y-76350761D01*
X17422857Y-76398380D01*
X17327619Y-76398380D01*
X17184761Y-76350761D01*
X17089523Y-76255523D01*
X17041904Y-76160285D01*
X16994285Y-75969809D01*
X16994285Y-75826952D01*
X17041904Y-75636476D01*
X17089523Y-75541238D01*
X17184761Y-75446000D01*
X17327619Y-75398380D01*
X17422857Y-75398380D01*
X17565714Y-75446000D01*
X17613333Y-75493619D01*
X17946666Y-75398380D02*
X18565714Y-75398380D01*
X18232380Y-75779333D01*
X18375238Y-75779333D01*
X18470476Y-75826952D01*
X18518095Y-75874571D01*
X18565714Y-75969809D01*
X18565714Y-76207904D01*
X18518095Y-76303142D01*
X18470476Y-76350761D01*
X18375238Y-76398380D01*
X18089523Y-76398380D01*
X17994285Y-76350761D01*
X17946666Y-76303142D01*
X17041904Y-14549380D02*
X17041904Y-13549380D01*
X17280000Y-13549380D01*
X17422857Y-13597000D01*
X17518095Y-13692238D01*
X17565714Y-13787476D01*
X17613333Y-13977952D01*
X17613333Y-14120809D01*
X17565714Y-14311285D01*
X17518095Y-14406523D01*
X17422857Y-14501761D01*
X17280000Y-14549380D01*
X17041904Y-14549380D01*
X18184761Y-13977952D02*
X18089523Y-13930333D01*
X18041904Y-13882714D01*
X17994285Y-13787476D01*
X17994285Y-13739857D01*
X18041904Y-13644619D01*
X18089523Y-13597000D01*
X18184761Y-13549380D01*
X18375238Y-13549380D01*
X18470476Y-13597000D01*
X18518095Y-13644619D01*
X18565714Y-13739857D01*
X18565714Y-13787476D01*
X18518095Y-13882714D01*
X18470476Y-13930333D01*
X18375238Y-13977952D01*
X18184761Y-13977952D01*
X18089523Y-14025571D01*
X18041904Y-14073190D01*
X17994285Y-14168428D01*
X17994285Y-14358904D01*
X18041904Y-14454142D01*
X18089523Y-14501761D01*
X18184761Y-14549380D01*
X18375238Y-14549380D01*
X18470476Y-14501761D01*
X18518095Y-14454142D01*
X18565714Y-14358904D01*
X18565714Y-14168428D01*
X18518095Y-14073190D01*
X18470476Y-14025571D01*
X18375238Y-13977952D01*
X1278095Y-44791380D02*
X1849523Y-44791380D01*
X1563809Y-45791380D02*
X1563809Y-44791380D01*
X2182857Y-45791380D02*
X2182857Y-44791380D01*
X2563809Y-44791380D01*
X2659047Y-44839000D01*
X2706666Y-44886619D01*
X2754285Y-44981857D01*
X2754285Y-45124714D01*
X2706666Y-45219952D01*
X2659047Y-45267571D01*
X2563809Y-45315190D01*
X2182857Y-45315190D01*
X3659047Y-44791380D02*
X3182857Y-44791380D01*
X3135238Y-45267571D01*
X3182857Y-45219952D01*
X3278095Y-45172333D01*
X3516190Y-45172333D01*
X3611428Y-45219952D01*
X3659047Y-45267571D01*
X3706666Y-45362809D01*
X3706666Y-45600904D01*
X3659047Y-45696142D01*
X3611428Y-45743761D01*
X3516190Y-45791380D01*
X3278095Y-45791380D01*
X3182857Y-45743761D01*
X3135238Y-45696142D01*
X-8358095Y-14549380D02*
X-8358095Y-13549380D01*
X-8120000Y-13549380D01*
X-7977142Y-13597000D01*
X-7881904Y-13692238D01*
X-7834285Y-13787476D01*
X-7786666Y-13977952D01*
X-7786666Y-14120809D01*
X-7834285Y-14311285D01*
X-7881904Y-14406523D01*
X-7977142Y-14501761D01*
X-8120000Y-14549380D01*
X-8358095Y-14549380D01*
X-7453333Y-13549380D02*
X-6834285Y-13549380D01*
X-7167619Y-13930333D01*
X-7024761Y-13930333D01*
X-6929523Y-13977952D01*
X-6881904Y-14025571D01*
X-6834285Y-14120809D01*
X-6834285Y-14358904D01*
X-6881904Y-14454142D01*
X-6929523Y-14501761D01*
X-7024761Y-14549380D01*
X-7310476Y-14549380D01*
X-7405714Y-14501761D01*
X-7453333Y-14454142D01*
X18883333Y-6834142D02*
X18835714Y-6881761D01*
X18692857Y-6929380D01*
X18597619Y-6929380D01*
X18454761Y-6881761D01*
X18359523Y-6786523D01*
X18311904Y-6691285D01*
X18264285Y-6500809D01*
X18264285Y-6357952D01*
X18311904Y-6167476D01*
X18359523Y-6072238D01*
X18454761Y-5977000D01*
X18597619Y-5929380D01*
X18692857Y-5929380D01*
X18835714Y-5977000D01*
X18883333Y-6024619D01*
X19788095Y-5929380D02*
X19311904Y-5929380D01*
X19264285Y-6405571D01*
X19311904Y-6357952D01*
X19407142Y-6310333D01*
X19645238Y-6310333D01*
X19740476Y-6357952D01*
X19788095Y-6405571D01*
X19835714Y-6500809D01*
X19835714Y-6738904D01*
X19788095Y-6834142D01*
X19740476Y-6881761D01*
X19645238Y-6929380D01*
X19407142Y-6929380D01*
X19311904Y-6881761D01*
X19264285Y-6834142D01*
X-2706666Y-19629380D02*
X-3040000Y-19153190D01*
X-3278095Y-19629380D02*
X-3278095Y-18629380D01*
X-2897142Y-18629380D01*
X-2801904Y-18677000D01*
X-2754285Y-18724619D01*
X-2706666Y-18819857D01*
X-2706666Y-18962714D01*
X-2754285Y-19057952D01*
X-2801904Y-19105571D01*
X-2897142Y-19153190D01*
X-3278095Y-19153190D01*
X-1849523Y-18962714D02*
X-1849523Y-19629380D01*
X-2087619Y-18581761D02*
X-2325714Y-19296047D01*
X-1706666Y-19296047D01*
D12*
X5970000Y-82030000D02*
X9270000Y-82030000D01*
X5970000Y-80530000D02*
X5970000Y-82030000D01*
X5970000Y-80530000D02*
X9270000Y-80530000D01*
X9270000Y-80530000D02*
X9270000Y-82030000D01*
X-17030000Y-14860000D02*
X-18530000Y-14860000D01*
X-17980000Y-16610000D02*
X-17780000Y-16410000D01*
X-18530000Y-14860000D02*
X-18530000Y-18160000D01*
X-17580000Y-16610000D02*
X-17980000Y-16610000D01*
X-17030000Y-18160000D02*
X-18530000Y-18160000D01*
X-17030000Y-14860000D02*
X-17030000Y-18160000D01*
X-17780000Y-16410000D02*
X-17580000Y-16610000D01*
X17030000Y-19940000D02*
X18530000Y-19940000D01*
X18530000Y-23240000D02*
X18530000Y-19940000D01*
X17030000Y-23240000D02*
X17030000Y-19940000D01*
X17030000Y-23240000D02*
X18530000Y-23240000D01*
X6870000Y-23240000D02*
X6870000Y-19940000D01*
X6870000Y-23240000D02*
X8370000Y-23240000D01*
X6870000Y-19940000D02*
X8370000Y-19940000D01*
X8370000Y-23240000D02*
X8370000Y-19940000D01*
X10870000Y-91150000D02*
X10870000Y-86650000D01*
X8370000Y-85400000D02*
X6870000Y-85400000D01*
X4370000Y-86650000D02*
X4370000Y-91150000D01*
X6870000Y-92400000D02*
X8370000Y-92400000D01*
X13450000Y-23240000D02*
X13450000Y-19940000D01*
X11950000Y-23240000D02*
X11950000Y-19940000D01*
X11950000Y-23240000D02*
X13450000Y-23240000D01*
X11950000Y-19940000D02*
X13450000Y-19940000D01*
X29590000Y-82030000D02*
X26290000Y-82030000D01*
X29590000Y-80530000D02*
X26290000Y-80530000D01*
X26290000Y-82030000D02*
X26290000Y-80530000D01*
X29590000Y-82030000D02*
X29590000Y-80530000D01*
X-890000Y-80530000D02*
X-890000Y-82030000D01*
X-4190000Y-82030000D02*
X-890000Y-82030000D01*
X-4190000Y-80530000D02*
X-890000Y-80530000D01*
X-4190000Y-80530000D02*
X-4190000Y-82030000D01*
X13450000Y-14860000D02*
X11950000Y-14860000D01*
X13450000Y-14860000D02*
X13450000Y-18160000D01*
X12500000Y-16610000D02*
X12700000Y-16410000D01*
X13450000Y-18160000D02*
X11950000Y-18160000D01*
X12900000Y-16610000D02*
X12500000Y-16610000D01*
X12700000Y-16410000D02*
X12900000Y-16610000D01*
X11950000Y-14860000D02*
X11950000Y-18160000D01*
X26290000Y-78220000D02*
X26290000Y-76720000D01*
X29590000Y-78220000D02*
X26290000Y-78220000D01*
X29590000Y-76720000D02*
X26290000Y-76720000D01*
X29590000Y-78220000D02*
X29590000Y-76720000D01*
X-890000Y-78220000D02*
X-4190000Y-78220000D01*
X-4190000Y-78220000D02*
X-4190000Y-76720000D01*
X-890000Y-78220000D02*
X-890000Y-76720000D01*
X-890000Y-76720000D02*
X-4190000Y-76720000D01*
X24690000Y-86720000D02*
X24690000Y-91220000D01*
X31190000Y-91220000D02*
X31190000Y-86720000D01*
X28690000Y-85470000D02*
X27190000Y-85470000D01*
X27190000Y-92470000D02*
X28690000Y-92470000D01*
X17030000Y-92400000D02*
X18530000Y-92400000D01*
X14530000Y-86650000D02*
X14530000Y-91150000D01*
X21030000Y-91150000D02*
X21030000Y-86650000D01*
X18530000Y-85400000D02*
X17030000Y-85400000D01*
X9410000Y-35940000D02*
X10910000Y-35940000D01*
X9410000Y-32640000D02*
X10910000Y-32640000D01*
X9410000Y-35940000D02*
X9410000Y-32640000D01*
X10910000Y-35940000D02*
X10910000Y-32640000D01*
X-6360000Y-37900000D02*
X6360000Y-37900000D01*
X6360000Y-34290000D02*
X6360000Y-37900000D01*
X-6360000Y-34290000D02*
X-6360000Y-37900000D01*
X6360000Y-34290000D02*
X6360000Y-30680000D01*
X-6360000Y-30680000D02*
X6360000Y-30680000D01*
X-6360000Y-34290000D02*
X-6360000Y-30680000D01*
X-6350000Y-35052000D02*
G75*
G03*
X-6330000Y-33507741I20000J772000D01*
G01*
D11*
X-4980000Y-40490000D02*
G75*
G03*
X-4980000Y-40490000I-100000J0D01*
G01*
D12*
X-11950000Y-14860000D02*
X-13450000Y-14860000D01*
X-12500000Y-16610000D02*
X-12900000Y-16610000D01*
X-11950000Y-18160000D02*
X-13450000Y-18160000D01*
X-11950000Y-14860000D02*
X-11950000Y-18160000D01*
X-13450000Y-14860000D02*
X-13450000Y-18160000D01*
X-12700000Y-16410000D02*
X-12500000Y-16610000D01*
X-12900000Y-16610000D02*
X-12700000Y-16410000D01*
X7620000Y-16410000D02*
X7820000Y-16610000D01*
X8370000Y-14860000D02*
X8370000Y-18160000D01*
X8370000Y-14860000D02*
X6870000Y-14860000D01*
X8370000Y-18160000D02*
X6870000Y-18160000D01*
X7420000Y-16610000D02*
X7620000Y-16410000D01*
X6870000Y-14860000D02*
X6870000Y-18160000D01*
X7820000Y-16610000D02*
X7420000Y-16610000D01*
X1790000Y-23240000D02*
X3290000Y-23240000D01*
X3290000Y-23240000D02*
X3290000Y-19940000D01*
X1790000Y-23240000D02*
X1790000Y-19940000D01*
X1790000Y-19940000D02*
X3290000Y-19940000D01*
X15990000Y-7240000D02*
X14490000Y-7240000D01*
X15990000Y-7240000D02*
X15990000Y-10540000D01*
X14490000Y-7240000D02*
X14490000Y-10540000D01*
X15990000Y-10540000D02*
X14490000Y-10540000D01*
X25920000Y-10540000D02*
X25920000Y-7240000D01*
X27420000Y-10540000D02*
X27420000Y-7240000D01*
X25920000Y-10540000D02*
X27420000Y-10540000D01*
X26470000Y-8790000D02*
X26870000Y-8790000D01*
X26870000Y-8790000D02*
X26670000Y-8990000D01*
X25920000Y-7240000D02*
X27420000Y-7240000D01*
X26670000Y-8990000D02*
X26470000Y-8790000D01*
X2540000Y-16410000D02*
X2740000Y-16610000D01*
X1790000Y-14860000D02*
X1790000Y-18160000D01*
X3290000Y-18160000D02*
X1790000Y-18160000D01*
X2340000Y-16610000D02*
X2540000Y-16410000D01*
X2740000Y-16610000D02*
X2340000Y-16610000D01*
X3290000Y-14860000D02*
X3290000Y-18160000D01*
X3290000Y-14860000D02*
X1790000Y-14860000D01*
X-13450000Y-20040000D02*
X-11950000Y-20040000D01*
X-13450000Y-23340000D02*
X-13450000Y-20040000D01*
X-11950000Y-23340000D02*
X-11950000Y-20040000D01*
X-13450000Y-23340000D02*
X-11950000Y-23340000D01*
X-17030000Y-23240000D02*
X-17030000Y-19940000D01*
X-18530000Y-23240000D02*
X-18530000Y-19940000D01*
X-18530000Y-19940000D02*
X-17030000Y-19940000D01*
X-18530000Y-23240000D02*
X-17030000Y-23240000D01*
X9270000Y-76720000D02*
X5970000Y-76720000D01*
X5970000Y-78220000D02*
X5970000Y-76720000D01*
X9270000Y-78220000D02*
X9270000Y-76720000D01*
X9270000Y-78220000D02*
X5970000Y-78220000D01*
X-2540000Y-16410000D02*
X-2340000Y-16610000D01*
X-1790000Y-18160000D02*
X-3290000Y-18160000D01*
X-2740000Y-16610000D02*
X-2540000Y-16410000D01*
X-1790000Y-14860000D02*
X-1790000Y-18160000D01*
X-1790000Y-14860000D02*
X-3290000Y-14860000D01*
X-2340000Y-16610000D02*
X-2740000Y-16610000D01*
X-3290000Y-14860000D02*
X-3290000Y-18160000D01*
X22110000Y-10540000D02*
X22110000Y-7240000D01*
X22110000Y-10540000D02*
X23610000Y-10540000D01*
X22110000Y-7240000D02*
X23610000Y-7240000D01*
X23610000Y-10540000D02*
X23610000Y-7240000D01*
X-3800000Y-6300000D02*
X-3800000Y-7000000D01*
X4000000Y-7000000D02*
X2200000Y-7000000D01*
X4000000Y-2700000D02*
X4000000Y-400000D01*
X4000000Y-6300000D02*
X4000000Y-7000000D01*
X-3800000Y-2700000D02*
X-3800000Y-400000D01*
X-3800000Y-7000000D02*
X-2000000Y-7000000D01*
X710000Y-91150000D02*
X710000Y-86650000D01*
X-5790000Y-86650000D02*
X-5790000Y-91150000D01*
X-3290000Y-92400000D02*
X-1790000Y-92400000D01*
X-1790000Y-85400000D02*
X-3290000Y-85400000D01*
X19430000Y-82030000D02*
X16130000Y-82030000D01*
X16130000Y-82030000D02*
X16130000Y-80530000D01*
X19430000Y-82030000D02*
X19430000Y-80530000D01*
X19430000Y-80530000D02*
X16130000Y-80530000D01*
X-8370000Y-23240000D02*
X-6870000Y-23240000D01*
X-8370000Y-23240000D02*
X-8370000Y-19940000D01*
X-6870000Y-23240000D02*
X-6870000Y-19940000D01*
X-8370000Y-19940000D02*
X-6870000Y-19940000D01*
X16130000Y-78220000D02*
X16130000Y-76720000D01*
X19430000Y-76720000D02*
X16130000Y-76720000D01*
X19430000Y-78220000D02*
X16130000Y-78220000D01*
X19430000Y-78220000D02*
X19430000Y-76720000D01*
X17580000Y-16610000D02*
X17780000Y-16410000D01*
X18530000Y-14860000D02*
X17030000Y-14860000D01*
X17030000Y-14860000D02*
X17030000Y-18160000D01*
X17780000Y-16410000D02*
X17980000Y-16610000D01*
X18530000Y-14860000D02*
X18530000Y-18160000D01*
X18530000Y-18160000D02*
X17030000Y-18160000D01*
X17980000Y-16610000D02*
X17580000Y-16610000D01*
X-7820000Y-16610000D02*
X-7620000Y-16410000D01*
X-7420000Y-16610000D02*
X-7820000Y-16610000D01*
X-8370000Y-14860000D02*
X-8370000Y-18160000D01*
X-7620000Y-16410000D02*
X-7420000Y-16610000D01*
X-6870000Y-14860000D02*
X-6870000Y-18160000D01*
X-6870000Y-18160000D02*
X-8370000Y-18160000D01*
X-6870000Y-14860000D02*
X-8370000Y-14860000D01*
X18300000Y-10540000D02*
X18300000Y-7240000D01*
X19800000Y-10540000D02*
X19800000Y-7240000D01*
X18300000Y-7240000D02*
X19800000Y-7240000D01*
X18300000Y-10540000D02*
X19800000Y-10540000D01*
X-1790000Y-23240000D02*
X-1790000Y-19940000D01*
X-3290000Y-23240000D02*
X-1790000Y-23240000D01*
X-3290000Y-23240000D02*
X-3290000Y-19940000D01*
X-3290000Y-19940000D02*
X-1790000Y-19940000D01*
M02*
