M48
; DRILL file {KiCad (6.0.4-0)} date 
; FORMAT={-:-/ absolute / metric / decimal}
; #@! TF.CreationDate,2022-04-01T19:28:59+09:00
; #@! TF.GenerationSoftware,Kicad,Pcbnew,(6.0.4-0)
; #@! TF.FileFunction,MixedPlating,1,2
FMAT,2
METRIC
; #@! TA.AperFunction,Plated,PTH,ViaDrill
T1C0.305
; #@! TA.AperFunction,Plated,PTH,ComponentDrill
T2C0.800
; #@! TA.AperFunction,Plated,PTH,ComponentDrill
T3C1.000
; #@! TA.AperFunction,Plated,PTH,ComponentDrill
T4C2.200
; #@! TA.AperFunction,NonPlated,NPTH,ComponentDrill
T5C1.500
%
G90
G05
T1
X-30.0Y-10.0
X-30.0Y-20.0
X-30.0Y-30.0
X-30.0Y-40.0
X-30.0Y-50.0
X-30.0Y-60.0
X-30.0Y-70.0
X-30.0Y-80.0
X-30.0Y-90.0
X-20.0Y-10.0
X-20.0Y-20.0
X-20.0Y-30.0
X-20.0Y-40.0
X-20.0Y-50.0
X-20.0Y-60.0
X-20.0Y-90.0
X-10.0Y-20.0
X-10.0Y-30.0
X-10.0Y-40.0
X-10.0Y-50.0
X-10.0Y-60.0
X-10.0Y-90.0
X0.0Y-20.0
X0.0Y-50.0
X0.0Y-60.0
X0.0Y-70.0
X0.0Y-80.0
X10.0Y-20.0
X10.0Y-50.0
X10.0Y-60.0
X10.0Y-70.0
X10.0Y-80.0
X20.0Y-20.0
X20.0Y-30.0
X20.0Y-40.0
X20.0Y-50.0
X20.0Y-60.0
X20.0Y-70.0
X20.0Y-80.0
X30.0Y-10.0
X30.0Y-20.0
X30.0Y-30.0
X30.0Y-40.0
X30.0Y-50.0
X30.0Y-60.0
X30.0Y-70.0
X30.0Y-80.0
T2
X-27.94Y-72.39
X-17.78Y-46.99
X-17.78Y-72.39
X-12.7Y-46.99
X-7.62Y-46.99
X-2.54Y-46.99
X-2.54Y-72.39
X2.54Y-46.99
X7.62Y-46.99
X7.62Y-72.39
X12.7Y-46.99
X17.78Y-46.99
X17.78Y-72.39
X27.94Y-72.39
T3
X-24.86Y-80.3
X-22.86Y-80.3
X-20.86Y-80.3
X-14.26Y-86.9
X-14.26Y-88.9
X-14.26Y-90.9
X-4.79Y-85.65
X-4.79Y-92.15
X-0.29Y-85.65
X-0.29Y-92.15
X5.37Y-85.65
X5.37Y-92.15
X9.87Y-85.65
X9.87Y-92.15
X15.53Y-85.65
X15.53Y-92.15
X20.03Y-85.65
X20.03Y-92.15
X25.69Y-85.72
X25.69Y-92.22
X30.19Y-85.72
X30.19Y-92.22
T4
X-35.0Y-5.0
X-35.0Y-95.0
X35.0Y-5.0
X35.0Y-95.0
T5
X-28.86Y-82.9
X-16.86Y-94.9
T0
M30
