G04 #@! TF.GenerationSoftware,KiCad,Pcbnew,(6.0.4-0)*
G04 #@! TF.CreationDate,2022-04-01T19:28:55+09:00*
G04 #@! TF.ProjectId,TrainingBoard-01,54726169-6e69-46e6-9742-6f6172642d30,V1.0*
G04 #@! TF.SameCoordinates,Original*
G04 #@! TF.FileFunction,Copper,L2,Bot*
G04 #@! TF.FilePolarity,Positive*
%FSLAX46Y46*%
G04 Gerber Fmt 4.6, Leading zero omitted, Abs format (unit mm)*
G04 Created by KiCad (PCBNEW (6.0.4-0)) date 2022-04-01 19:28:55*
%MOMM*%
%LPD*%
G01*
G04 APERTURE LIST*
G04 #@! TA.AperFunction,ComponentPad*
%ADD10C,4.000000*%
G04 #@! TD*
G04 #@! TA.AperFunction,ComponentPad*
%ADD11C,1.400000*%
G04 #@! TD*
G04 #@! TA.AperFunction,ComponentPad*
%ADD12C,1.700000*%
G04 #@! TD*
G04 #@! TA.AperFunction,ViaPad*
%ADD13C,0.609600*%
G04 #@! TD*
G04 APERTURE END LIST*
D10*
X-35000000Y-95000000D03*
X35000000Y-95000000D03*
X35000000Y-5000000D03*
X-35000000Y-5000000D03*
D11*
X17780000Y-46990000D03*
X-2540000Y-46990000D03*
D12*
X5370000Y-92150000D03*
X5370000Y-85650000D03*
X9870000Y-92150000D03*
X9870000Y-85650000D03*
D11*
X7620000Y-46990000D03*
D12*
X-20860000Y-80300000D03*
X-22860000Y-80300000D03*
X-24860000Y-80300000D03*
D11*
X-12700000Y-46990000D03*
D12*
X25690000Y-92220000D03*
X25690000Y-85720000D03*
X30190000Y-92220000D03*
X30190000Y-85720000D03*
X15530000Y-92150000D03*
X15530000Y-85650000D03*
X20030000Y-92150000D03*
X20030000Y-85650000D03*
D11*
X27940000Y-72390000D03*
X7620000Y-72390000D03*
X-17780000Y-46990000D03*
X12700000Y-46990000D03*
X-2540000Y-72390000D03*
X-17780000Y-72390000D03*
X17780000Y-72390000D03*
D12*
X-14260000Y-90900000D03*
X-14260000Y-88900000D03*
X-14260000Y-86900000D03*
D11*
X-27940000Y-72390000D03*
D12*
X-4790000Y-92150000D03*
X-4790000Y-85650000D03*
X-290000Y-92150000D03*
X-290000Y-85650000D03*
D11*
X-7620000Y-46990000D03*
X2540000Y-46990000D03*
D13*
X0Y-80000000D03*
X10000000Y-80000000D03*
X20000000Y-80000000D03*
X30000000Y-80000000D03*
X-30000000Y-80000000D03*
X-10000000Y-60000000D03*
X-20000000Y-10000000D03*
X-20000000Y-60000000D03*
X-10000000Y-40000000D03*
X-10000000Y-90000000D03*
X10000000Y-60000000D03*
X30000000Y-10000000D03*
X-30000000Y-60000000D03*
X20000000Y-40000000D03*
X-30000000Y-20000000D03*
X10000000Y-50000000D03*
X20000000Y-50000000D03*
X0Y-20000000D03*
X-20000000Y-30000000D03*
X0Y-70000000D03*
X-20000000Y-40000000D03*
X-30000000Y-90000000D03*
X20000000Y-70000000D03*
X-30000000Y-10000000D03*
X20000000Y-30000000D03*
X10000000Y-20000000D03*
X0Y-60000000D03*
X-30000000Y-50000000D03*
X10000000Y-70000000D03*
X-20000000Y-20000000D03*
X-20000000Y-50000000D03*
X20000000Y-60000000D03*
X-30000000Y-40000000D03*
X30000000Y-20000000D03*
X-30000000Y-30000000D03*
X-20000000Y-90000000D03*
X30000000Y-70000000D03*
X30000000Y-60000000D03*
X-10000000Y-30000000D03*
X30000000Y-50000000D03*
X-10000000Y-50000000D03*
X-10000000Y-20000000D03*
X20000000Y-20000000D03*
X-30000000Y-70000000D03*
X30000000Y-40000000D03*
X0Y-50000000D03*
X30000000Y-30000000D03*
G04 #@! TA.AperFunction,Conductor*
G36*
X34970018Y-510000D02*
G01*
X34984851Y-512310D01*
X34984855Y-512310D01*
X34993724Y-513691D01*
X35014183Y-511016D01*
X35036007Y-510072D01*
X35385965Y-525352D01*
X35396913Y-526310D01*
X35774498Y-576019D01*
X35785307Y-577926D01*
X36157114Y-660353D01*
X36167731Y-663198D01*
X36530939Y-777718D01*
X36541254Y-781471D01*
X36893123Y-927220D01*
X36903067Y-931858D01*
X37240867Y-1107705D01*
X37250387Y-1113201D01*
X37571574Y-1317820D01*
X37580578Y-1324124D01*
X37882716Y-1555962D01*
X37891137Y-1563028D01*
X38171914Y-1820314D01*
X38179686Y-1828086D01*
X38436972Y-2108863D01*
X38444038Y-2117284D01*
X38675876Y-2419422D01*
X38682180Y-2428426D01*
X38886799Y-2749613D01*
X38892294Y-2759132D01*
X39052105Y-3066124D01*
X39068138Y-3096924D01*
X39072780Y-3106877D01*
X39218526Y-3458739D01*
X39222285Y-3469068D01*
X39336802Y-3832268D01*
X39339647Y-3842886D01*
X39422073Y-4214685D01*
X39423982Y-4225510D01*
X39473690Y-4603086D01*
X39474648Y-4614036D01*
X39489603Y-4956552D01*
X39488223Y-4981429D01*
X39486309Y-4993724D01*
X39487473Y-5002626D01*
X39487473Y-5002628D01*
X39490436Y-5025283D01*
X39491500Y-5041621D01*
X39491500Y-94950633D01*
X39490000Y-94970018D01*
X39487690Y-94984851D01*
X39487690Y-94984855D01*
X39486309Y-94993724D01*
X39488984Y-95014183D01*
X39489928Y-95036007D01*
X39475020Y-95377435D01*
X39474648Y-95385964D01*
X39473690Y-95396913D01*
X39427095Y-95750847D01*
X39423982Y-95774490D01*
X39422074Y-95785307D01*
X39376687Y-95990036D01*
X39339647Y-96157114D01*
X39336802Y-96167732D01*
X39222285Y-96530932D01*
X39218529Y-96541254D01*
X39115439Y-96790136D01*
X39072784Y-96893114D01*
X39068142Y-96903067D01*
X39045578Y-96946413D01*
X38892295Y-97240867D01*
X38886799Y-97250387D01*
X38682180Y-97571574D01*
X38675876Y-97580578D01*
X38444038Y-97882716D01*
X38436972Y-97891137D01*
X38179686Y-98171914D01*
X38171914Y-98179686D01*
X37891137Y-98436972D01*
X37882716Y-98444038D01*
X37580578Y-98675876D01*
X37571574Y-98682180D01*
X37250387Y-98886799D01*
X37240868Y-98892294D01*
X36903067Y-99068142D01*
X36893123Y-99072780D01*
X36541254Y-99218529D01*
X36530939Y-99222282D01*
X36167732Y-99336802D01*
X36157115Y-99339647D01*
X35785307Y-99422074D01*
X35774498Y-99423981D01*
X35396914Y-99473690D01*
X35385965Y-99474648D01*
X35043446Y-99489603D01*
X35018571Y-99488223D01*
X35006276Y-99486309D01*
X34997374Y-99487473D01*
X34997372Y-99487473D01*
X34982323Y-99489441D01*
X34974714Y-99490436D01*
X34958379Y-99491500D01*
X-34950633Y-99491500D01*
X-34970018Y-99490000D01*
X-34984851Y-99487690D01*
X-34984855Y-99487690D01*
X-34993724Y-99486309D01*
X-35014183Y-99488984D01*
X-35036007Y-99489928D01*
X-35385965Y-99474648D01*
X-35396914Y-99473690D01*
X-35774498Y-99423981D01*
X-35785307Y-99422074D01*
X-36157115Y-99339647D01*
X-36167732Y-99336802D01*
X-36530939Y-99222282D01*
X-36541254Y-99218529D01*
X-36893123Y-99072780D01*
X-36903067Y-99068142D01*
X-37240868Y-98892294D01*
X-37250387Y-98886799D01*
X-37571574Y-98682180D01*
X-37580578Y-98675876D01*
X-37882716Y-98444038D01*
X-37891137Y-98436972D01*
X-38171914Y-98179686D01*
X-38179686Y-98171914D01*
X-38436972Y-97891137D01*
X-38444038Y-97882716D01*
X-38675876Y-97580578D01*
X-38682180Y-97571574D01*
X-38886799Y-97250387D01*
X-38892295Y-97240867D01*
X-39045578Y-96946413D01*
X-39045800Y-96945987D01*
X-36581279Y-96945987D01*
X-36572452Y-96957605D01*
X-36349719Y-97119430D01*
X-36343039Y-97123670D01*
X-36073428Y-97271890D01*
X-36066293Y-97275247D01*
X-35780230Y-97388508D01*
X-35772704Y-97390953D01*
X-35474721Y-97467462D01*
X-35466950Y-97468945D01*
X-35161722Y-97507503D01*
X-35153831Y-97508000D01*
X-34846169Y-97508000D01*
X-34838278Y-97507503D01*
X-34533050Y-97468945D01*
X-34525279Y-97467462D01*
X-34227296Y-97390953D01*
X-34219770Y-97388508D01*
X-33933707Y-97275247D01*
X-33926572Y-97271890D01*
X-33656961Y-97123670D01*
X-33650281Y-97119430D01*
X-33427177Y-96957336D01*
X-33418754Y-96946413D01*
X-33418983Y-96945987D01*
X33418721Y-96945987D01*
X33427548Y-96957605D01*
X33650281Y-97119430D01*
X33656961Y-97123670D01*
X33926572Y-97271890D01*
X33933707Y-97275247D01*
X34219770Y-97388508D01*
X34227296Y-97390953D01*
X34525279Y-97467462D01*
X34533050Y-97468945D01*
X34838278Y-97507503D01*
X34846169Y-97508000D01*
X35153831Y-97508000D01*
X35161722Y-97507503D01*
X35466950Y-97468945D01*
X35474721Y-97467462D01*
X35772704Y-97390953D01*
X35780230Y-97388508D01*
X36066293Y-97275247D01*
X36073428Y-97271890D01*
X36343039Y-97123670D01*
X36349719Y-97119430D01*
X36572823Y-96957336D01*
X36581246Y-96946413D01*
X36574342Y-96933552D01*
X35012812Y-95372022D01*
X34998868Y-95364408D01*
X34997035Y-95364539D01*
X34990420Y-95368790D01*
X33425334Y-96933876D01*
X33418721Y-96945987D01*
X-33418983Y-96945987D01*
X-33425658Y-96933552D01*
X-34987188Y-95372022D01*
X-35001132Y-95364408D01*
X-35002965Y-95364539D01*
X-35009580Y-95368790D01*
X-36574666Y-96933876D01*
X-36581279Y-96945987D01*
X-39045800Y-96945987D01*
X-39068142Y-96903067D01*
X-39072784Y-96893114D01*
X-39115438Y-96790136D01*
X-39218529Y-96541254D01*
X-39222285Y-96530932D01*
X-39336802Y-96167732D01*
X-39339647Y-96157114D01*
X-39376687Y-95990036D01*
X-39422074Y-95785307D01*
X-39423982Y-95774490D01*
X-39427094Y-95750847D01*
X-39473690Y-95396913D01*
X-39474648Y-95385964D01*
X-39475020Y-95377435D01*
X-39489439Y-95047206D01*
X-39487812Y-95020805D01*
X-39487231Y-95017352D01*
X-39487230Y-95017345D01*
X-39486424Y-95012552D01*
X-39486319Y-95003958D01*
X-37512710Y-95003958D01*
X-37493393Y-95310994D01*
X-37492400Y-95318855D01*
X-37434754Y-95621046D01*
X-37432783Y-95628723D01*
X-37337716Y-95921309D01*
X-37334801Y-95928672D01*
X-37203811Y-96207041D01*
X-37199999Y-96213974D01*
X-37035149Y-96473736D01*
X-37030505Y-96480129D01*
X-36955503Y-96570790D01*
X-36942986Y-96579245D01*
X-36932248Y-96573038D01*
X-35372022Y-95012812D01*
X-35365644Y-95001132D01*
X-34635592Y-95001132D01*
X-34635461Y-95002965D01*
X-34631210Y-95009580D01*
X-33068855Y-96571935D01*
X-33055593Y-96579177D01*
X-33045488Y-96571988D01*
X-32969495Y-96480129D01*
X-32964851Y-96473736D01*
X-32800001Y-96213974D01*
X-32796189Y-96207041D01*
X-32665199Y-95928672D01*
X-32662284Y-95921309D01*
X-32567217Y-95628723D01*
X-32565246Y-95621046D01*
X-32507600Y-95318855D01*
X-32506607Y-95310994D01*
X-32487290Y-95003958D01*
X-32487290Y-94996042D01*
X-32490835Y-94939690D01*
X-18122963Y-94939690D01*
X-18095975Y-95162715D01*
X-18029918Y-95377435D01*
X-18027348Y-95382415D01*
X-18027346Y-95382419D01*
X-17962148Y-95508738D01*
X-17926882Y-95577064D01*
X-17790123Y-95755292D01*
X-17623964Y-95906485D01*
X-17619217Y-95909463D01*
X-17619214Y-95909465D01*
X-17490771Y-95990036D01*
X-17433656Y-96025864D01*
X-17225217Y-96109656D01*
X-17005233Y-96155213D01*
X-17000622Y-96155479D01*
X-17000621Y-96155479D01*
X-16950048Y-96158395D01*
X-16950044Y-96158395D01*
X-16948225Y-96158500D01*
X-16803001Y-96158500D01*
X-16800214Y-96158251D01*
X-16800208Y-96158251D01*
X-16730071Y-96151991D01*
X-16636238Y-96143617D01*
X-16630824Y-96142136D01*
X-16630819Y-96142135D01*
X-16503088Y-96107191D01*
X-16419549Y-96084337D01*
X-16414491Y-96081925D01*
X-16414487Y-96081923D01*
X-16296958Y-96025864D01*
X-16216782Y-95987622D01*
X-16034346Y-95856529D01*
X-15960127Y-95779941D01*
X-15881911Y-95699229D01*
X-15881909Y-95699226D01*
X-15878008Y-95695201D01*
X-15752710Y-95508738D01*
X-15662412Y-95303033D01*
X-15609968Y-95084589D01*
X-15605319Y-95003958D01*
X32487290Y-95003958D01*
X32506607Y-95310994D01*
X32507600Y-95318855D01*
X32565246Y-95621046D01*
X32567217Y-95628723D01*
X32662284Y-95921309D01*
X32665199Y-95928672D01*
X32796189Y-96207041D01*
X32800001Y-96213974D01*
X32964851Y-96473736D01*
X32969495Y-96480129D01*
X33044497Y-96570790D01*
X33057014Y-96579245D01*
X33067752Y-96573038D01*
X34627978Y-95012812D01*
X34634356Y-95001132D01*
X35364408Y-95001132D01*
X35364539Y-95002965D01*
X35368790Y-95009580D01*
X36931145Y-96571935D01*
X36944407Y-96579177D01*
X36954512Y-96571988D01*
X37030505Y-96480129D01*
X37035149Y-96473736D01*
X37199999Y-96213974D01*
X37203811Y-96207041D01*
X37334801Y-95928672D01*
X37337716Y-95921309D01*
X37432783Y-95628723D01*
X37434754Y-95621046D01*
X37492400Y-95318855D01*
X37493393Y-95310994D01*
X37512710Y-95003958D01*
X37512710Y-94996042D01*
X37493393Y-94689006D01*
X37492400Y-94681145D01*
X37434754Y-94378954D01*
X37432783Y-94371277D01*
X37337716Y-94078691D01*
X37334801Y-94071328D01*
X37203811Y-93792959D01*
X37199999Y-93786026D01*
X37035149Y-93526264D01*
X37030505Y-93519871D01*
X36955503Y-93429210D01*
X36942986Y-93420755D01*
X36932248Y-93426962D01*
X35372022Y-94987188D01*
X35364408Y-95001132D01*
X34634356Y-95001132D01*
X34635592Y-94998868D01*
X34635461Y-94997035D01*
X34631210Y-94990420D01*
X33068855Y-93428065D01*
X33055593Y-93420823D01*
X33045488Y-93428012D01*
X32969495Y-93519871D01*
X32964851Y-93526264D01*
X32800001Y-93786026D01*
X32796189Y-93792959D01*
X32665199Y-94071328D01*
X32662284Y-94078691D01*
X32567217Y-94371277D01*
X32565246Y-94378954D01*
X32507600Y-94681145D01*
X32506607Y-94689006D01*
X32487290Y-94996042D01*
X32487290Y-95003958D01*
X-15605319Y-95003958D01*
X-15604352Y-94987188D01*
X-15597360Y-94865917D01*
X-15597360Y-94865914D01*
X-15597037Y-94860310D01*
X-15624025Y-94637285D01*
X-15690082Y-94422565D01*
X-15716553Y-94371277D01*
X-15790546Y-94227919D01*
X-15790546Y-94227918D01*
X-15793118Y-94222936D01*
X-15929877Y-94044708D01*
X-16096036Y-93893515D01*
X-16100783Y-93890537D01*
X-16100786Y-93890535D01*
X-16281595Y-93777115D01*
X-16286344Y-93774136D01*
X-16494783Y-93690344D01*
X-16714767Y-93644787D01*
X-16719378Y-93644521D01*
X-16719379Y-93644521D01*
X-16769952Y-93641605D01*
X-16769956Y-93641605D01*
X-16771775Y-93641500D01*
X-16916999Y-93641500D01*
X-16919786Y-93641749D01*
X-16919792Y-93641749D01*
X-16989929Y-93648009D01*
X-17083762Y-93656383D01*
X-17089176Y-93657864D01*
X-17089181Y-93657865D01*
X-17203738Y-93689205D01*
X-17300451Y-93715663D01*
X-17305509Y-93718075D01*
X-17305513Y-93718077D01*
X-17401834Y-93764020D01*
X-17503218Y-93812378D01*
X-17685654Y-93943471D01*
X-17689561Y-93947503D01*
X-17809556Y-94071328D01*
X-17841992Y-94104799D01*
X-17967290Y-94291262D01*
X-18057588Y-94496967D01*
X-18058897Y-94502418D01*
X-18058898Y-94502422D01*
X-18103693Y-94689006D01*
X-18110032Y-94715411D01*
X-18122963Y-94939690D01*
X-32490835Y-94939690D01*
X-32506607Y-94689006D01*
X-32507600Y-94681145D01*
X-32565246Y-94378954D01*
X-32567217Y-94371277D01*
X-32662284Y-94078691D01*
X-32665199Y-94071328D01*
X-32796189Y-93792959D01*
X-32800001Y-93786026D01*
X-32964851Y-93526264D01*
X-32969495Y-93519871D01*
X-33044497Y-93429210D01*
X-33057014Y-93420755D01*
X-33067752Y-93426962D01*
X-34627978Y-94987188D01*
X-34635592Y-95001132D01*
X-35365644Y-95001132D01*
X-35364408Y-94998868D01*
X-35364539Y-94997035D01*
X-35368790Y-94990420D01*
X-36931145Y-93428065D01*
X-36944407Y-93420823D01*
X-36954512Y-93428012D01*
X-37030505Y-93519871D01*
X-37035149Y-93526264D01*
X-37199999Y-93786026D01*
X-37203811Y-93792959D01*
X-37334801Y-94071328D01*
X-37337716Y-94078691D01*
X-37432783Y-94371277D01*
X-37434754Y-94378954D01*
X-37492400Y-94681145D01*
X-37493393Y-94689006D01*
X-37512710Y-94996042D01*
X-37512710Y-95003958D01*
X-39486319Y-95003958D01*
X-39486271Y-95000000D01*
X-39490227Y-94972376D01*
X-39491500Y-94954514D01*
X-39491500Y-93053587D01*
X-36581246Y-93053587D01*
X-36574342Y-93066448D01*
X-35012812Y-94627978D01*
X-34998868Y-94635592D01*
X-34997035Y-94635461D01*
X-34990420Y-94631210D01*
X-33425334Y-93066124D01*
X-33418721Y-93054013D01*
X-33427548Y-93042395D01*
X-33650281Y-92880570D01*
X-33656961Y-92876330D01*
X-33926572Y-92728110D01*
X-33933707Y-92724753D01*
X-34219770Y-92611492D01*
X-34227296Y-92609047D01*
X-34525279Y-92532538D01*
X-34533050Y-92531055D01*
X-34838278Y-92492497D01*
X-34846169Y-92492000D01*
X-35153831Y-92492000D01*
X-35161722Y-92492497D01*
X-35466950Y-92531055D01*
X-35474721Y-92532538D01*
X-35772704Y-92609047D01*
X-35780230Y-92611492D01*
X-36066293Y-92724753D01*
X-36073428Y-92728110D01*
X-36343039Y-92876330D01*
X-36349719Y-92880570D01*
X-36572823Y-93042664D01*
X-36581246Y-93053587D01*
X-39491500Y-93053587D01*
X-39491500Y-90866695D01*
X-15622749Y-90866695D01*
X-15622452Y-90871848D01*
X-15622452Y-90871851D01*
X-15610329Y-91082101D01*
X-15609890Y-91089715D01*
X-15608753Y-91094761D01*
X-15608752Y-91094767D01*
X-15584893Y-91200635D01*
X-15560778Y-91307639D01*
X-15523656Y-91399059D01*
X-15494364Y-91471197D01*
X-15476734Y-91514616D01*
X-15360013Y-91705088D01*
X-15213750Y-91873938D01*
X-15041874Y-92016632D01*
X-14849000Y-92129338D01*
X-14640308Y-92209030D01*
X-14635240Y-92210061D01*
X-14635237Y-92210062D01*
X-14571816Y-92222965D01*
X-14421403Y-92253567D01*
X-14416228Y-92253757D01*
X-14416226Y-92253757D01*
X-14203327Y-92261564D01*
X-14203323Y-92261564D01*
X-14198163Y-92261753D01*
X-14193043Y-92261097D01*
X-14193041Y-92261097D01*
X-13981712Y-92234025D01*
X-13981711Y-92234025D01*
X-13976584Y-92233368D01*
X-13963958Y-92229580D01*
X-13767571Y-92170661D01*
X-13767566Y-92170659D01*
X-13762616Y-92169174D01*
X-13655493Y-92116695D01*
X-6152749Y-92116695D01*
X-6152452Y-92121848D01*
X-6152452Y-92121851D01*
X-6146054Y-92232812D01*
X-6139890Y-92339715D01*
X-6138753Y-92344761D01*
X-6138752Y-92344767D01*
X-6118881Y-92432939D01*
X-6090778Y-92557639D01*
X-6050654Y-92656453D01*
X-6021557Y-92728110D01*
X-6006734Y-92764616D01*
X-6004035Y-92769020D01*
X-5907668Y-92926277D01*
X-5890013Y-92955088D01*
X-5743750Y-93123938D01*
X-5571874Y-93266632D01*
X-5379000Y-93379338D01*
X-5374175Y-93381180D01*
X-5374174Y-93381181D01*
X-5348733Y-93390896D01*
X-5170308Y-93459030D01*
X-5165240Y-93460061D01*
X-5165237Y-93460062D01*
X-5060396Y-93481392D01*
X-4951403Y-93503567D01*
X-4946228Y-93503757D01*
X-4946226Y-93503757D01*
X-4733327Y-93511564D01*
X-4733323Y-93511564D01*
X-4728163Y-93511753D01*
X-4723043Y-93511097D01*
X-4723041Y-93511097D01*
X-4511712Y-93484025D01*
X-4511711Y-93484025D01*
X-4506584Y-93483368D01*
X-4501634Y-93481883D01*
X-4297571Y-93420661D01*
X-4297566Y-93420659D01*
X-4292616Y-93419174D01*
X-4092006Y-93320896D01*
X-3910140Y-93191173D01*
X-3751904Y-93033489D01*
X-3692406Y-92950689D01*
X-3624565Y-92856277D01*
X-3621547Y-92852077D01*
X-3619126Y-92847180D01*
X-3524864Y-92656453D01*
X-3524863Y-92656451D01*
X-3522570Y-92651811D01*
X-3477307Y-92502834D01*
X-3459135Y-92443023D01*
X-3459135Y-92443021D01*
X-3457630Y-92438069D01*
X-3428471Y-92216590D01*
X-3428320Y-92210420D01*
X-3426926Y-92153365D01*
X-3426926Y-92153361D01*
X-3426844Y-92150000D01*
X-3429582Y-92116695D01*
X-1652749Y-92116695D01*
X-1652452Y-92121848D01*
X-1652452Y-92121851D01*
X-1646054Y-92232812D01*
X-1639890Y-92339715D01*
X-1638753Y-92344761D01*
X-1638752Y-92344767D01*
X-1618881Y-92432939D01*
X-1590778Y-92557639D01*
X-1550654Y-92656453D01*
X-1521557Y-92728110D01*
X-1506734Y-92764616D01*
X-1504035Y-92769020D01*
X-1407668Y-92926277D01*
X-1390013Y-92955088D01*
X-1243750Y-93123938D01*
X-1071874Y-93266632D01*
X-879000Y-93379338D01*
X-874175Y-93381180D01*
X-874174Y-93381181D01*
X-848733Y-93390896D01*
X-670308Y-93459030D01*
X-665240Y-93460061D01*
X-665237Y-93460062D01*
X-560396Y-93481392D01*
X-451403Y-93503567D01*
X-446228Y-93503757D01*
X-446226Y-93503757D01*
X-233327Y-93511564D01*
X-233323Y-93511564D01*
X-228163Y-93511753D01*
X-223043Y-93511097D01*
X-223041Y-93511097D01*
X-11712Y-93484025D01*
X-11711Y-93484025D01*
X-6584Y-93483368D01*
X-1634Y-93481883D01*
X202429Y-93420661D01*
X202434Y-93420659D01*
X207384Y-93419174D01*
X407994Y-93320896D01*
X589860Y-93191173D01*
X748096Y-93033489D01*
X807594Y-92950689D01*
X875435Y-92856277D01*
X878453Y-92852077D01*
X880874Y-92847180D01*
X975136Y-92656453D01*
X975137Y-92656451D01*
X977430Y-92651811D01*
X1022693Y-92502834D01*
X1040865Y-92443023D01*
X1040865Y-92443021D01*
X1042370Y-92438069D01*
X1071529Y-92216590D01*
X1071680Y-92210420D01*
X1073074Y-92153365D01*
X1073074Y-92153361D01*
X1073156Y-92150000D01*
X1070418Y-92116695D01*
X4007251Y-92116695D01*
X4007548Y-92121848D01*
X4007548Y-92121851D01*
X4013946Y-92232812D01*
X4020110Y-92339715D01*
X4021247Y-92344761D01*
X4021248Y-92344767D01*
X4041119Y-92432939D01*
X4069222Y-92557639D01*
X4109346Y-92656453D01*
X4138443Y-92728110D01*
X4153266Y-92764616D01*
X4155965Y-92769020D01*
X4252332Y-92926277D01*
X4269987Y-92955088D01*
X4416250Y-93123938D01*
X4588126Y-93266632D01*
X4781000Y-93379338D01*
X4785825Y-93381180D01*
X4785826Y-93381181D01*
X4811267Y-93390896D01*
X4989692Y-93459030D01*
X4994760Y-93460061D01*
X4994763Y-93460062D01*
X5099604Y-93481392D01*
X5208597Y-93503567D01*
X5213772Y-93503757D01*
X5213774Y-93503757D01*
X5426673Y-93511564D01*
X5426677Y-93511564D01*
X5431837Y-93511753D01*
X5436957Y-93511097D01*
X5436959Y-93511097D01*
X5648288Y-93484025D01*
X5648289Y-93484025D01*
X5653416Y-93483368D01*
X5658366Y-93481883D01*
X5862429Y-93420661D01*
X5862434Y-93420659D01*
X5867384Y-93419174D01*
X6067994Y-93320896D01*
X6249860Y-93191173D01*
X6408096Y-93033489D01*
X6467594Y-92950689D01*
X6535435Y-92856277D01*
X6538453Y-92852077D01*
X6540874Y-92847180D01*
X6635136Y-92656453D01*
X6635137Y-92656451D01*
X6637430Y-92651811D01*
X6682693Y-92502834D01*
X6700865Y-92443023D01*
X6700865Y-92443021D01*
X6702370Y-92438069D01*
X6731529Y-92216590D01*
X6731680Y-92210420D01*
X6733074Y-92153365D01*
X6733074Y-92153361D01*
X6733156Y-92150000D01*
X6730418Y-92116695D01*
X8507251Y-92116695D01*
X8507548Y-92121848D01*
X8507548Y-92121851D01*
X8513946Y-92232812D01*
X8520110Y-92339715D01*
X8521247Y-92344761D01*
X8521248Y-92344767D01*
X8541119Y-92432939D01*
X8569222Y-92557639D01*
X8609346Y-92656453D01*
X8638443Y-92728110D01*
X8653266Y-92764616D01*
X8655965Y-92769020D01*
X8752332Y-92926277D01*
X8769987Y-92955088D01*
X8916250Y-93123938D01*
X9088126Y-93266632D01*
X9281000Y-93379338D01*
X9285825Y-93381180D01*
X9285826Y-93381181D01*
X9311267Y-93390896D01*
X9489692Y-93459030D01*
X9494760Y-93460061D01*
X9494763Y-93460062D01*
X9599604Y-93481392D01*
X9708597Y-93503567D01*
X9713772Y-93503757D01*
X9713774Y-93503757D01*
X9926673Y-93511564D01*
X9926677Y-93511564D01*
X9931837Y-93511753D01*
X9936957Y-93511097D01*
X9936959Y-93511097D01*
X10148288Y-93484025D01*
X10148289Y-93484025D01*
X10153416Y-93483368D01*
X10158366Y-93481883D01*
X10362429Y-93420661D01*
X10362434Y-93420659D01*
X10367384Y-93419174D01*
X10567994Y-93320896D01*
X10632544Y-93274853D01*
X14769977Y-93274853D01*
X14775258Y-93281907D01*
X14936756Y-93376279D01*
X14946042Y-93380729D01*
X15145001Y-93456703D01*
X15154899Y-93459579D01*
X15363595Y-93502038D01*
X15373823Y-93503257D01*
X15586650Y-93511062D01*
X15596936Y-93510595D01*
X15808185Y-93483534D01*
X15818262Y-93481392D01*
X16022255Y-93420191D01*
X16031842Y-93416433D01*
X16223098Y-93322738D01*
X16231944Y-93317465D01*
X16279247Y-93283723D01*
X16287648Y-93273023D01*
X16280660Y-93259870D01*
X15542812Y-92522022D01*
X15528868Y-92514408D01*
X15527035Y-92514539D01*
X15520420Y-92518790D01*
X14776737Y-93262473D01*
X14769977Y-93274853D01*
X10632544Y-93274853D01*
X10749860Y-93191173D01*
X10908096Y-93033489D01*
X10967594Y-92950689D01*
X11035435Y-92856277D01*
X11038453Y-92852077D01*
X11040874Y-92847180D01*
X11135136Y-92656453D01*
X11135137Y-92656451D01*
X11137430Y-92651811D01*
X11182693Y-92502834D01*
X11200865Y-92443023D01*
X11200865Y-92443021D01*
X11202370Y-92438069D01*
X11231529Y-92216590D01*
X11231680Y-92210420D01*
X11233074Y-92153365D01*
X11233074Y-92153361D01*
X11233156Y-92150000D01*
X11230843Y-92121863D01*
X14168050Y-92121863D01*
X14180309Y-92334477D01*
X14181745Y-92344697D01*
X14228565Y-92552446D01*
X14231645Y-92562275D01*
X14311770Y-92759603D01*
X14316413Y-92768794D01*
X14396460Y-92899420D01*
X14406916Y-92908880D01*
X14415694Y-92905096D01*
X15157978Y-92162812D01*
X15164356Y-92151132D01*
X15894408Y-92151132D01*
X15894539Y-92152965D01*
X15898790Y-92159580D01*
X16640474Y-92901264D01*
X16652484Y-92907823D01*
X16664223Y-92898855D01*
X16695004Y-92856019D01*
X16700315Y-92847180D01*
X16794670Y-92656267D01*
X16798469Y-92646672D01*
X16860376Y-92442915D01*
X16862555Y-92432834D01*
X16890590Y-92219887D01*
X16891109Y-92213212D01*
X16892572Y-92153364D01*
X16892378Y-92146646D01*
X16889916Y-92116695D01*
X18667251Y-92116695D01*
X18667548Y-92121848D01*
X18667548Y-92121851D01*
X18673946Y-92232812D01*
X18680110Y-92339715D01*
X18681247Y-92344761D01*
X18681248Y-92344767D01*
X18701119Y-92432939D01*
X18729222Y-92557639D01*
X18769346Y-92656453D01*
X18798443Y-92728110D01*
X18813266Y-92764616D01*
X18815965Y-92769020D01*
X18912332Y-92926277D01*
X18929987Y-92955088D01*
X19076250Y-93123938D01*
X19248126Y-93266632D01*
X19441000Y-93379338D01*
X19445825Y-93381180D01*
X19445826Y-93381181D01*
X19471267Y-93390896D01*
X19649692Y-93459030D01*
X19654760Y-93460061D01*
X19654763Y-93460062D01*
X19759604Y-93481392D01*
X19868597Y-93503567D01*
X19873772Y-93503757D01*
X19873774Y-93503757D01*
X20086673Y-93511564D01*
X20086677Y-93511564D01*
X20091837Y-93511753D01*
X20096957Y-93511097D01*
X20096959Y-93511097D01*
X20308288Y-93484025D01*
X20308289Y-93484025D01*
X20313416Y-93483368D01*
X20318366Y-93481883D01*
X20522429Y-93420661D01*
X20522434Y-93420659D01*
X20527384Y-93419174D01*
X20679092Y-93344853D01*
X24929977Y-93344853D01*
X24935258Y-93351907D01*
X25096756Y-93446279D01*
X25106042Y-93450729D01*
X25305001Y-93526703D01*
X25314899Y-93529579D01*
X25523595Y-93572038D01*
X25533823Y-93573257D01*
X25746650Y-93581062D01*
X25756936Y-93580595D01*
X25968185Y-93553534D01*
X25978262Y-93551392D01*
X26182255Y-93490191D01*
X26191842Y-93486433D01*
X26383098Y-93392738D01*
X26391944Y-93387465D01*
X26439247Y-93353723D01*
X26447648Y-93343023D01*
X26440660Y-93329870D01*
X25702812Y-92592022D01*
X25688868Y-92584408D01*
X25687035Y-92584539D01*
X25680420Y-92588790D01*
X24936737Y-93332473D01*
X24929977Y-93344853D01*
X20679092Y-93344853D01*
X20727994Y-93320896D01*
X20909860Y-93191173D01*
X21068096Y-93033489D01*
X21127594Y-92950689D01*
X21195435Y-92856277D01*
X21198453Y-92852077D01*
X21200874Y-92847180D01*
X21295136Y-92656453D01*
X21295137Y-92656451D01*
X21297430Y-92651811D01*
X21342693Y-92502834D01*
X21360865Y-92443023D01*
X21360865Y-92443021D01*
X21362370Y-92438069D01*
X21391529Y-92216590D01*
X21391680Y-92210420D01*
X21392133Y-92191863D01*
X24328050Y-92191863D01*
X24340309Y-92404477D01*
X24341745Y-92414697D01*
X24388565Y-92622446D01*
X24391645Y-92632275D01*
X24471770Y-92829603D01*
X24476413Y-92838794D01*
X24556460Y-92969420D01*
X24566916Y-92978880D01*
X24575694Y-92975096D01*
X25317978Y-92232812D01*
X25324356Y-92221132D01*
X26054408Y-92221132D01*
X26054539Y-92222965D01*
X26058790Y-92229580D01*
X26800474Y-92971264D01*
X26812484Y-92977823D01*
X26824223Y-92968855D01*
X26855004Y-92926019D01*
X26860315Y-92917180D01*
X26954670Y-92726267D01*
X26958469Y-92716672D01*
X27020376Y-92512915D01*
X27022555Y-92502834D01*
X27050590Y-92289887D01*
X27051109Y-92283212D01*
X27052572Y-92223364D01*
X27052378Y-92216646D01*
X27049916Y-92186695D01*
X28827251Y-92186695D01*
X28827548Y-92191848D01*
X28827548Y-92191851D01*
X28833011Y-92286590D01*
X28840110Y-92409715D01*
X28841247Y-92414761D01*
X28841248Y-92414767D01*
X28861119Y-92502939D01*
X28889222Y-92627639D01*
X28973266Y-92834616D01*
X29089987Y-93025088D01*
X29236250Y-93193938D01*
X29344397Y-93283723D01*
X29391915Y-93323173D01*
X29408126Y-93336632D01*
X29601000Y-93449338D01*
X29809692Y-93529030D01*
X29814760Y-93530061D01*
X29814763Y-93530062D01*
X29919604Y-93551392D01*
X30028597Y-93573567D01*
X30033772Y-93573757D01*
X30033774Y-93573757D01*
X30246673Y-93581564D01*
X30246677Y-93581564D01*
X30251837Y-93581753D01*
X30256957Y-93581097D01*
X30256959Y-93581097D01*
X30468288Y-93554025D01*
X30468289Y-93554025D01*
X30473416Y-93553368D01*
X30478366Y-93551883D01*
X30682429Y-93490661D01*
X30682434Y-93490659D01*
X30687384Y-93489174D01*
X30887994Y-93390896D01*
X31069860Y-93261173D01*
X31228096Y-93103489D01*
X31263954Y-93053587D01*
X33418754Y-93053587D01*
X33425658Y-93066448D01*
X34987188Y-94627978D01*
X35001132Y-94635592D01*
X35002965Y-94635461D01*
X35009580Y-94631210D01*
X36574666Y-93066124D01*
X36581279Y-93054013D01*
X36572452Y-93042395D01*
X36349719Y-92880570D01*
X36343039Y-92876330D01*
X36073428Y-92728110D01*
X36066293Y-92724753D01*
X35780230Y-92611492D01*
X35772704Y-92609047D01*
X35474721Y-92532538D01*
X35466950Y-92531055D01*
X35161722Y-92492497D01*
X35153831Y-92492000D01*
X34846169Y-92492000D01*
X34838278Y-92492497D01*
X34533050Y-92531055D01*
X34525279Y-92532538D01*
X34227296Y-92609047D01*
X34219770Y-92611492D01*
X33933707Y-92724753D01*
X33926572Y-92728110D01*
X33656961Y-92876330D01*
X33650281Y-92880570D01*
X33427177Y-93042664D01*
X33418754Y-93053587D01*
X31263954Y-93053587D01*
X31275775Y-93037137D01*
X31355435Y-92926277D01*
X31358453Y-92922077D01*
X31360874Y-92917180D01*
X31455136Y-92726453D01*
X31455137Y-92726451D01*
X31457430Y-92721811D01*
X31505901Y-92562275D01*
X31520865Y-92513023D01*
X31520865Y-92513021D01*
X31522370Y-92508069D01*
X31551529Y-92286590D01*
X31552136Y-92261753D01*
X31553074Y-92223365D01*
X31553074Y-92223361D01*
X31553156Y-92220000D01*
X31534852Y-91997361D01*
X31480431Y-91780702D01*
X31391354Y-91575840D01*
X31330242Y-91481375D01*
X31272822Y-91392617D01*
X31272820Y-91392614D01*
X31270014Y-91388277D01*
X31119670Y-91223051D01*
X31115619Y-91219852D01*
X31115615Y-91219848D01*
X30948414Y-91087800D01*
X30948410Y-91087798D01*
X30944359Y-91084598D01*
X30748789Y-90976638D01*
X30743920Y-90974914D01*
X30743916Y-90974912D01*
X30543087Y-90903795D01*
X30543083Y-90903794D01*
X30538212Y-90902069D01*
X30533119Y-90901162D01*
X30533116Y-90901161D01*
X30323373Y-90863800D01*
X30323367Y-90863799D01*
X30318284Y-90862894D01*
X30244452Y-90861992D01*
X30100081Y-90860228D01*
X30100079Y-90860228D01*
X30094911Y-90860165D01*
X29874091Y-90893955D01*
X29661756Y-90963357D01*
X29463607Y-91066507D01*
X29459474Y-91069610D01*
X29459471Y-91069612D01*
X29301701Y-91188069D01*
X29284965Y-91200635D01*
X29281393Y-91204373D01*
X29172544Y-91318277D01*
X29130629Y-91362138D01*
X29004743Y-91546680D01*
X28989003Y-91580590D01*
X28926206Y-91715875D01*
X28910688Y-91749305D01*
X28850989Y-91964570D01*
X28827251Y-92186695D01*
X27049916Y-92186695D01*
X27034781Y-92002604D01*
X27033096Y-91992424D01*
X26981214Y-91785875D01*
X26977894Y-91776124D01*
X26892972Y-91580814D01*
X26888105Y-91571739D01*
X26823063Y-91471197D01*
X26812377Y-91461995D01*
X26802812Y-91466398D01*
X26062022Y-92207188D01*
X26054408Y-92221132D01*
X25324356Y-92221132D01*
X25325592Y-92218868D01*
X25325461Y-92217035D01*
X25321210Y-92210420D01*
X24579849Y-91469059D01*
X24568313Y-91462759D01*
X24556031Y-91472382D01*
X24508089Y-91542662D01*
X24503004Y-91551613D01*
X24413338Y-91744783D01*
X24409775Y-91754470D01*
X24352864Y-91959681D01*
X24350933Y-91969800D01*
X24328302Y-92181574D01*
X24328050Y-92191863D01*
X21392133Y-92191863D01*
X21393074Y-92153365D01*
X21393074Y-92153361D01*
X21393156Y-92150000D01*
X21374852Y-91927361D01*
X21320431Y-91710702D01*
X21231354Y-91505840D01*
X21152828Y-91384457D01*
X21112822Y-91322617D01*
X21112820Y-91322614D01*
X21110014Y-91318277D01*
X20959670Y-91153051D01*
X20955619Y-91149852D01*
X20955615Y-91149848D01*
X20887973Y-91096427D01*
X24931223Y-91096427D01*
X24937968Y-91108758D01*
X25677188Y-91847978D01*
X25691132Y-91855592D01*
X25692965Y-91855461D01*
X25699580Y-91851210D01*
X26443389Y-91107401D01*
X26450410Y-91094544D01*
X26443611Y-91085213D01*
X26439554Y-91082518D01*
X26253117Y-90979599D01*
X26243705Y-90975369D01*
X26042959Y-90904280D01*
X26032989Y-90901646D01*
X25823327Y-90864301D01*
X25813073Y-90863331D01*
X25600116Y-90860728D01*
X25589832Y-90861448D01*
X25379321Y-90893661D01*
X25369293Y-90896050D01*
X25166868Y-90962212D01*
X25157359Y-90966209D01*
X24968466Y-91064540D01*
X24959734Y-91070039D01*
X24939677Y-91085099D01*
X24931223Y-91096427D01*
X20887973Y-91096427D01*
X20788414Y-91017800D01*
X20788410Y-91017798D01*
X20784359Y-91014598D01*
X20588789Y-90906638D01*
X20583920Y-90904914D01*
X20583916Y-90904912D01*
X20383087Y-90833795D01*
X20383083Y-90833794D01*
X20378212Y-90832069D01*
X20373119Y-90831162D01*
X20373116Y-90831161D01*
X20163373Y-90793800D01*
X20163367Y-90793799D01*
X20158284Y-90792894D01*
X20084452Y-90791992D01*
X19940081Y-90790228D01*
X19940079Y-90790228D01*
X19934911Y-90790165D01*
X19714091Y-90823955D01*
X19501756Y-90893357D01*
X19423455Y-90934118D01*
X19345091Y-90974912D01*
X19303607Y-90996507D01*
X19299474Y-90999610D01*
X19299471Y-90999612D01*
X19154102Y-91108758D01*
X19124965Y-91130635D01*
X18970629Y-91292138D01*
X18844743Y-91476680D01*
X18750688Y-91679305D01*
X18690989Y-91894570D01*
X18667251Y-92116695D01*
X16889916Y-92116695D01*
X16874781Y-91932604D01*
X16873096Y-91922424D01*
X16821214Y-91715875D01*
X16817894Y-91706124D01*
X16732972Y-91510814D01*
X16728105Y-91501739D01*
X16663063Y-91401197D01*
X16652377Y-91391995D01*
X16642812Y-91396398D01*
X15902022Y-92137188D01*
X15894408Y-92151132D01*
X15164356Y-92151132D01*
X15165592Y-92148868D01*
X15165461Y-92147035D01*
X15161210Y-92140420D01*
X14419849Y-91399059D01*
X14408313Y-91392759D01*
X14396031Y-91402382D01*
X14348089Y-91472662D01*
X14343004Y-91481613D01*
X14253338Y-91674783D01*
X14249775Y-91684470D01*
X14192864Y-91889681D01*
X14190933Y-91899800D01*
X14168302Y-92111574D01*
X14168050Y-92121863D01*
X11230843Y-92121863D01*
X11214852Y-91927361D01*
X11160431Y-91710702D01*
X11071354Y-91505840D01*
X10992828Y-91384457D01*
X10952822Y-91322617D01*
X10952820Y-91322614D01*
X10950014Y-91318277D01*
X10799670Y-91153051D01*
X10795619Y-91149852D01*
X10795615Y-91149848D01*
X10639338Y-91026427D01*
X14771223Y-91026427D01*
X14777968Y-91038758D01*
X15517188Y-91777978D01*
X15531132Y-91785592D01*
X15532965Y-91785461D01*
X15539580Y-91781210D01*
X16283389Y-91037401D01*
X16290410Y-91024544D01*
X16283611Y-91015213D01*
X16279554Y-91012518D01*
X16093117Y-90909599D01*
X16083705Y-90905369D01*
X15882959Y-90834280D01*
X15872989Y-90831646D01*
X15663327Y-90794301D01*
X15653073Y-90793331D01*
X15440116Y-90790728D01*
X15429832Y-90791448D01*
X15219321Y-90823661D01*
X15209293Y-90826050D01*
X15006868Y-90892212D01*
X14997359Y-90896209D01*
X14808466Y-90994540D01*
X14799734Y-91000039D01*
X14779677Y-91015099D01*
X14771223Y-91026427D01*
X10639338Y-91026427D01*
X10628414Y-91017800D01*
X10628410Y-91017798D01*
X10624359Y-91014598D01*
X10428789Y-90906638D01*
X10423920Y-90904914D01*
X10423916Y-90904912D01*
X10223087Y-90833795D01*
X10223083Y-90833794D01*
X10218212Y-90832069D01*
X10213119Y-90831162D01*
X10213116Y-90831161D01*
X10003373Y-90793800D01*
X10003367Y-90793799D01*
X9998284Y-90792894D01*
X9924452Y-90791992D01*
X9780081Y-90790228D01*
X9780079Y-90790228D01*
X9774911Y-90790165D01*
X9554091Y-90823955D01*
X9341756Y-90893357D01*
X9263455Y-90934118D01*
X9185091Y-90974912D01*
X9143607Y-90996507D01*
X9139474Y-90999610D01*
X9139471Y-90999612D01*
X8994102Y-91108758D01*
X8964965Y-91130635D01*
X8810629Y-91292138D01*
X8684743Y-91476680D01*
X8590688Y-91679305D01*
X8530989Y-91894570D01*
X8507251Y-92116695D01*
X6730418Y-92116695D01*
X6714852Y-91927361D01*
X6660431Y-91710702D01*
X6571354Y-91505840D01*
X6492828Y-91384457D01*
X6452822Y-91322617D01*
X6452820Y-91322614D01*
X6450014Y-91318277D01*
X6299670Y-91153051D01*
X6295619Y-91149852D01*
X6295615Y-91149848D01*
X6128414Y-91017800D01*
X6128410Y-91017798D01*
X6124359Y-91014598D01*
X5928789Y-90906638D01*
X5923920Y-90904914D01*
X5923916Y-90904912D01*
X5723087Y-90833795D01*
X5723083Y-90833794D01*
X5718212Y-90832069D01*
X5713119Y-90831162D01*
X5713116Y-90831161D01*
X5503373Y-90793800D01*
X5503367Y-90793799D01*
X5498284Y-90792894D01*
X5424452Y-90791992D01*
X5280081Y-90790228D01*
X5280079Y-90790228D01*
X5274911Y-90790165D01*
X5054091Y-90823955D01*
X4841756Y-90893357D01*
X4763455Y-90934118D01*
X4685091Y-90974912D01*
X4643607Y-90996507D01*
X4639474Y-90999610D01*
X4639471Y-90999612D01*
X4494102Y-91108758D01*
X4464965Y-91130635D01*
X4310629Y-91292138D01*
X4184743Y-91476680D01*
X4090688Y-91679305D01*
X4030989Y-91894570D01*
X4007251Y-92116695D01*
X1070418Y-92116695D01*
X1054852Y-91927361D01*
X1000431Y-91710702D01*
X911354Y-91505840D01*
X832828Y-91384457D01*
X792822Y-91322617D01*
X792820Y-91322614D01*
X790014Y-91318277D01*
X639670Y-91153051D01*
X635619Y-91149852D01*
X635615Y-91149848D01*
X468414Y-91017800D01*
X468410Y-91017798D01*
X464359Y-91014598D01*
X268789Y-90906638D01*
X263920Y-90904914D01*
X263916Y-90904912D01*
X63087Y-90833795D01*
X63083Y-90833794D01*
X58212Y-90832069D01*
X53119Y-90831162D01*
X53116Y-90831161D01*
X-156627Y-90793800D01*
X-156633Y-90793799D01*
X-161716Y-90792894D01*
X-235548Y-90791992D01*
X-379919Y-90790228D01*
X-379921Y-90790228D01*
X-385089Y-90790165D01*
X-605909Y-90823955D01*
X-818244Y-90893357D01*
X-896545Y-90934118D01*
X-974909Y-90974912D01*
X-1016393Y-90996507D01*
X-1020526Y-90999610D01*
X-1020529Y-90999612D01*
X-1165898Y-91108758D01*
X-1195035Y-91130635D01*
X-1349371Y-91292138D01*
X-1475257Y-91476680D01*
X-1569312Y-91679305D01*
X-1629011Y-91894570D01*
X-1652749Y-92116695D01*
X-3429582Y-92116695D01*
X-3445148Y-91927361D01*
X-3499569Y-91710702D01*
X-3588646Y-91505840D01*
X-3667172Y-91384457D01*
X-3707178Y-91322617D01*
X-3707180Y-91322614D01*
X-3709986Y-91318277D01*
X-3860330Y-91153051D01*
X-3864381Y-91149852D01*
X-3864385Y-91149848D01*
X-4031586Y-91017800D01*
X-4031590Y-91017798D01*
X-4035641Y-91014598D01*
X-4231211Y-90906638D01*
X-4236080Y-90904914D01*
X-4236084Y-90904912D01*
X-4436913Y-90833795D01*
X-4436917Y-90833794D01*
X-4441788Y-90832069D01*
X-4446881Y-90831162D01*
X-4446884Y-90831161D01*
X-4656627Y-90793800D01*
X-4656633Y-90793799D01*
X-4661716Y-90792894D01*
X-4735548Y-90791992D01*
X-4879919Y-90790228D01*
X-4879921Y-90790228D01*
X-4885089Y-90790165D01*
X-5105909Y-90823955D01*
X-5318244Y-90893357D01*
X-5396545Y-90934118D01*
X-5474909Y-90974912D01*
X-5516393Y-90996507D01*
X-5520526Y-90999610D01*
X-5520529Y-90999612D01*
X-5665898Y-91108758D01*
X-5695035Y-91130635D01*
X-5849371Y-91292138D01*
X-5975257Y-91476680D01*
X-6069312Y-91679305D01*
X-6129011Y-91894570D01*
X-6152749Y-92116695D01*
X-13655493Y-92116695D01*
X-13562006Y-92070896D01*
X-13380140Y-91941173D01*
X-13371458Y-91932522D01*
X-13225565Y-91787137D01*
X-13221904Y-91783489D01*
X-13216489Y-91775954D01*
X-13094565Y-91606277D01*
X-13091547Y-91602077D01*
X-13080927Y-91580590D01*
X-12994864Y-91406453D01*
X-12994863Y-91406451D01*
X-12992570Y-91401811D01*
X-12937285Y-91219848D01*
X-12929135Y-91193023D01*
X-12929135Y-91193021D01*
X-12927630Y-91188069D01*
X-12898471Y-90966590D01*
X-12898353Y-90961750D01*
X-12896926Y-90903365D01*
X-12896926Y-90903361D01*
X-12896844Y-90900000D01*
X-12915148Y-90677361D01*
X-12969569Y-90460702D01*
X-13058646Y-90255840D01*
X-13179986Y-90068277D01*
X-13183460Y-90064459D01*
X-13183467Y-90064450D01*
X-13254788Y-89986069D01*
X-13285840Y-89922223D01*
X-13277444Y-89851725D01*
X-13250533Y-89812019D01*
X-13225570Y-89787144D01*
X-13225560Y-89787132D01*
X-13221904Y-89783489D01*
X-13162406Y-89700689D01*
X-13094565Y-89606277D01*
X-13091547Y-89602077D01*
X-12992570Y-89401811D01*
X-12927630Y-89188069D01*
X-12898471Y-88966590D01*
X-12896844Y-88900000D01*
X-12915148Y-88677361D01*
X-12969569Y-88460702D01*
X-13058646Y-88255840D01*
X-13179986Y-88068277D01*
X-13330330Y-87903051D01*
X-13334381Y-87899852D01*
X-13334385Y-87899848D01*
X-13501586Y-87767800D01*
X-13501590Y-87767798D01*
X-13505641Y-87764598D01*
X-13701211Y-87656638D01*
X-13706080Y-87654914D01*
X-13706084Y-87654912D01*
X-13906919Y-87583793D01*
X-13906921Y-87583792D01*
X-13911788Y-87582069D01*
X-13913667Y-87581734D01*
X-13969690Y-87549520D01*
X-14247188Y-87272022D01*
X-14261132Y-87264408D01*
X-14262965Y-87264539D01*
X-14269580Y-87268790D01*
X-14552871Y-87552081D01*
X-14602821Y-87582751D01*
X-14646966Y-87597180D01*
X-14788244Y-87643357D01*
X-14986393Y-87746507D01*
X-14990526Y-87749610D01*
X-14990529Y-87749612D01*
X-15014753Y-87767800D01*
X-15165035Y-87880635D01*
X-15319371Y-88042138D01*
X-15445257Y-88226680D01*
X-15539312Y-88429305D01*
X-15599011Y-88644570D01*
X-15622749Y-88866695D01*
X-15622452Y-88871848D01*
X-15622452Y-88871851D01*
X-15616989Y-88966590D01*
X-15609890Y-89089715D01*
X-15608753Y-89094761D01*
X-15608752Y-89094767D01*
X-15588881Y-89182939D01*
X-15560778Y-89307639D01*
X-15476734Y-89514616D01*
X-15360013Y-89705088D01*
X-15288933Y-89787144D01*
X-15262612Y-89817530D01*
X-15233129Y-89882116D01*
X-15243243Y-89952388D01*
X-15266755Y-89987079D01*
X-15319371Y-90042138D01*
X-15445257Y-90226680D01*
X-15539312Y-90429305D01*
X-15599011Y-90644570D01*
X-15622749Y-90866695D01*
X-39491500Y-90866695D01*
X-39491500Y-86871863D01*
X-15621950Y-86871863D01*
X-15609691Y-87084477D01*
X-15608255Y-87094697D01*
X-15561435Y-87302446D01*
X-15558355Y-87312275D01*
X-15478230Y-87509603D01*
X-15473587Y-87518794D01*
X-15393540Y-87649420D01*
X-15383084Y-87658880D01*
X-15374306Y-87655096D01*
X-14632022Y-86912812D01*
X-14625644Y-86901132D01*
X-13895592Y-86901132D01*
X-13895461Y-86902965D01*
X-13891210Y-86909580D01*
X-13149526Y-87651264D01*
X-13137516Y-87657823D01*
X-13125777Y-87648855D01*
X-13094996Y-87606019D01*
X-13089685Y-87597180D01*
X-12995330Y-87406267D01*
X-12991531Y-87396672D01*
X-12929624Y-87192915D01*
X-12927445Y-87182834D01*
X-12899410Y-86969887D01*
X-12898891Y-86963212D01*
X-12897428Y-86903364D01*
X-12897622Y-86896646D01*
X-12915219Y-86682604D01*
X-12916904Y-86672424D01*
X-12968786Y-86465875D01*
X-12972106Y-86456124D01*
X-13057028Y-86260814D01*
X-13061895Y-86251739D01*
X-13126937Y-86151197D01*
X-13137623Y-86141995D01*
X-13147188Y-86146398D01*
X-13887978Y-86887188D01*
X-13895592Y-86901132D01*
X-14625644Y-86901132D01*
X-14624408Y-86898868D01*
X-14624539Y-86897035D01*
X-14628790Y-86890420D01*
X-15370151Y-86149059D01*
X-15381687Y-86142759D01*
X-15393969Y-86152382D01*
X-15441911Y-86222662D01*
X-15446996Y-86231613D01*
X-15536662Y-86424783D01*
X-15540225Y-86434470D01*
X-15597136Y-86639681D01*
X-15599067Y-86649800D01*
X-15621698Y-86861574D01*
X-15621950Y-86871863D01*
X-39491500Y-86871863D01*
X-39491500Y-85776427D01*
X-15018777Y-85776427D01*
X-15012032Y-85788758D01*
X-14272812Y-86527978D01*
X-14258868Y-86535592D01*
X-14257035Y-86535461D01*
X-14250420Y-86531210D01*
X-13506611Y-85787401D01*
X-13499590Y-85774544D01*
X-13506389Y-85765213D01*
X-13510446Y-85762518D01*
X-13696883Y-85659599D01*
X-13706295Y-85655369D01*
X-13815505Y-85616695D01*
X-6152749Y-85616695D01*
X-6152452Y-85621848D01*
X-6152452Y-85621851D01*
X-6146989Y-85716590D01*
X-6139890Y-85839715D01*
X-6138753Y-85844761D01*
X-6138752Y-85844767D01*
X-6118881Y-85932939D01*
X-6090778Y-86057639D01*
X-6006734Y-86264616D01*
X-6004035Y-86269020D01*
X-5907668Y-86426277D01*
X-5890013Y-86455088D01*
X-5743750Y-86623938D01*
X-5571874Y-86766632D01*
X-5379000Y-86879338D01*
X-5374175Y-86881180D01*
X-5374174Y-86881181D01*
X-5349979Y-86890420D01*
X-5170308Y-86959030D01*
X-5165240Y-86960061D01*
X-5165237Y-86960062D01*
X-5060396Y-86981392D01*
X-4951403Y-87003567D01*
X-4946228Y-87003757D01*
X-4946226Y-87003757D01*
X-4733327Y-87011564D01*
X-4733323Y-87011564D01*
X-4728163Y-87011753D01*
X-4723043Y-87011097D01*
X-4723041Y-87011097D01*
X-4511712Y-86984025D01*
X-4511711Y-86984025D01*
X-4506584Y-86983368D01*
X-4501634Y-86981883D01*
X-4297571Y-86920661D01*
X-4297566Y-86920659D01*
X-4292616Y-86919174D01*
X-4092006Y-86820896D01*
X-3910140Y-86691173D01*
X-3751904Y-86533489D01*
X-3692406Y-86450689D01*
X-3624565Y-86356277D01*
X-3621547Y-86352077D01*
X-3619126Y-86347180D01*
X-3524864Y-86156453D01*
X-3524863Y-86156451D01*
X-3522570Y-86151811D01*
X-3457630Y-85938069D01*
X-3428471Y-85716590D01*
X-3427867Y-85691863D01*
X-3426926Y-85653365D01*
X-3426926Y-85653361D01*
X-3426844Y-85650000D01*
X-3429582Y-85616695D01*
X-1652749Y-85616695D01*
X-1652452Y-85621848D01*
X-1652452Y-85621851D01*
X-1646989Y-85716590D01*
X-1639890Y-85839715D01*
X-1638753Y-85844761D01*
X-1638752Y-85844767D01*
X-1618881Y-85932939D01*
X-1590778Y-86057639D01*
X-1506734Y-86264616D01*
X-1504035Y-86269020D01*
X-1407668Y-86426277D01*
X-1390013Y-86455088D01*
X-1243750Y-86623938D01*
X-1071874Y-86766632D01*
X-879000Y-86879338D01*
X-874175Y-86881180D01*
X-874174Y-86881181D01*
X-849979Y-86890420D01*
X-670308Y-86959030D01*
X-665240Y-86960061D01*
X-665237Y-86960062D01*
X-560396Y-86981392D01*
X-451403Y-87003567D01*
X-446228Y-87003757D01*
X-446226Y-87003757D01*
X-233327Y-87011564D01*
X-233323Y-87011564D01*
X-228163Y-87011753D01*
X-223043Y-87011097D01*
X-223041Y-87011097D01*
X-11712Y-86984025D01*
X-11711Y-86984025D01*
X-6584Y-86983368D01*
X-1634Y-86981883D01*
X202429Y-86920661D01*
X202434Y-86920659D01*
X207384Y-86919174D01*
X407994Y-86820896D01*
X589860Y-86691173D01*
X748096Y-86533489D01*
X807594Y-86450689D01*
X875435Y-86356277D01*
X878453Y-86352077D01*
X880874Y-86347180D01*
X975136Y-86156453D01*
X975137Y-86156451D01*
X977430Y-86151811D01*
X1042370Y-85938069D01*
X1071529Y-85716590D01*
X1072133Y-85691863D01*
X1073074Y-85653365D01*
X1073074Y-85653361D01*
X1073156Y-85650000D01*
X1070418Y-85616695D01*
X4007251Y-85616695D01*
X4007548Y-85621848D01*
X4007548Y-85621851D01*
X4013011Y-85716590D01*
X4020110Y-85839715D01*
X4021247Y-85844761D01*
X4021248Y-85844767D01*
X4041119Y-85932939D01*
X4069222Y-86057639D01*
X4153266Y-86264616D01*
X4155965Y-86269020D01*
X4252332Y-86426277D01*
X4269987Y-86455088D01*
X4416250Y-86623938D01*
X4588126Y-86766632D01*
X4781000Y-86879338D01*
X4785825Y-86881180D01*
X4785826Y-86881181D01*
X4810021Y-86890420D01*
X4989692Y-86959030D01*
X4994760Y-86960061D01*
X4994763Y-86960062D01*
X5099604Y-86981392D01*
X5208597Y-87003567D01*
X5213772Y-87003757D01*
X5213774Y-87003757D01*
X5426673Y-87011564D01*
X5426677Y-87011564D01*
X5431837Y-87011753D01*
X5436957Y-87011097D01*
X5436959Y-87011097D01*
X5648288Y-86984025D01*
X5648289Y-86984025D01*
X5653416Y-86983368D01*
X5658366Y-86981883D01*
X5862429Y-86920661D01*
X5862434Y-86920659D01*
X5867384Y-86919174D01*
X6067994Y-86820896D01*
X6249860Y-86691173D01*
X6408096Y-86533489D01*
X6467594Y-86450689D01*
X6535435Y-86356277D01*
X6538453Y-86352077D01*
X6540874Y-86347180D01*
X6635136Y-86156453D01*
X6635137Y-86156451D01*
X6637430Y-86151811D01*
X6702370Y-85938069D01*
X6731529Y-85716590D01*
X6732133Y-85691863D01*
X6733074Y-85653365D01*
X6733074Y-85653361D01*
X6733156Y-85650000D01*
X6730418Y-85616695D01*
X8507251Y-85616695D01*
X8507548Y-85621848D01*
X8507548Y-85621851D01*
X8513011Y-85716590D01*
X8520110Y-85839715D01*
X8521247Y-85844761D01*
X8521248Y-85844767D01*
X8541119Y-85932939D01*
X8569222Y-86057639D01*
X8653266Y-86264616D01*
X8655965Y-86269020D01*
X8752332Y-86426277D01*
X8769987Y-86455088D01*
X8916250Y-86623938D01*
X9088126Y-86766632D01*
X9281000Y-86879338D01*
X9285825Y-86881180D01*
X9285826Y-86881181D01*
X9310021Y-86890420D01*
X9489692Y-86959030D01*
X9494760Y-86960061D01*
X9494763Y-86960062D01*
X9599604Y-86981392D01*
X9708597Y-87003567D01*
X9713772Y-87003757D01*
X9713774Y-87003757D01*
X9926673Y-87011564D01*
X9926677Y-87011564D01*
X9931837Y-87011753D01*
X9936957Y-87011097D01*
X9936959Y-87011097D01*
X10148288Y-86984025D01*
X10148289Y-86984025D01*
X10153416Y-86983368D01*
X10158366Y-86981883D01*
X10362429Y-86920661D01*
X10362434Y-86920659D01*
X10367384Y-86919174D01*
X10567994Y-86820896D01*
X10632544Y-86774853D01*
X14769977Y-86774853D01*
X14775258Y-86781907D01*
X14936756Y-86876279D01*
X14946042Y-86880729D01*
X15145001Y-86956703D01*
X15154899Y-86959579D01*
X15363595Y-87002038D01*
X15373823Y-87003257D01*
X15586650Y-87011062D01*
X15596936Y-87010595D01*
X15808185Y-86983534D01*
X15818262Y-86981392D01*
X16022255Y-86920191D01*
X16031842Y-86916433D01*
X16223098Y-86822738D01*
X16231944Y-86817465D01*
X16279247Y-86783723D01*
X16287648Y-86773023D01*
X16280660Y-86759870D01*
X15542812Y-86022022D01*
X15528868Y-86014408D01*
X15527035Y-86014539D01*
X15520420Y-86018790D01*
X14776737Y-86762473D01*
X14769977Y-86774853D01*
X10632544Y-86774853D01*
X10749860Y-86691173D01*
X10908096Y-86533489D01*
X10967594Y-86450689D01*
X11035435Y-86356277D01*
X11038453Y-86352077D01*
X11040874Y-86347180D01*
X11135136Y-86156453D01*
X11135137Y-86156451D01*
X11137430Y-86151811D01*
X11202370Y-85938069D01*
X11231529Y-85716590D01*
X11232133Y-85691863D01*
X11233074Y-85653365D01*
X11233074Y-85653361D01*
X11233156Y-85650000D01*
X11230843Y-85621863D01*
X14168050Y-85621863D01*
X14180309Y-85834477D01*
X14181745Y-85844697D01*
X14228565Y-86052446D01*
X14231645Y-86062275D01*
X14311770Y-86259603D01*
X14316413Y-86268794D01*
X14396460Y-86399420D01*
X14406916Y-86408880D01*
X14415694Y-86405096D01*
X15157978Y-85662812D01*
X15164356Y-85651132D01*
X15894408Y-85651132D01*
X15894539Y-85652965D01*
X15898790Y-85659580D01*
X16640474Y-86401264D01*
X16652484Y-86407823D01*
X16664223Y-86398855D01*
X16695004Y-86356019D01*
X16700315Y-86347180D01*
X16794670Y-86156267D01*
X16798469Y-86146672D01*
X16860376Y-85942915D01*
X16862555Y-85932834D01*
X16890590Y-85719887D01*
X16891109Y-85713212D01*
X16892572Y-85653364D01*
X16892378Y-85646646D01*
X16889916Y-85616695D01*
X18667251Y-85616695D01*
X18667548Y-85621848D01*
X18667548Y-85621851D01*
X18673011Y-85716590D01*
X18680110Y-85839715D01*
X18681247Y-85844761D01*
X18681248Y-85844767D01*
X18701119Y-85932939D01*
X18729222Y-86057639D01*
X18813266Y-86264616D01*
X18815965Y-86269020D01*
X18912332Y-86426277D01*
X18929987Y-86455088D01*
X19076250Y-86623938D01*
X19248126Y-86766632D01*
X19441000Y-86879338D01*
X19445825Y-86881180D01*
X19445826Y-86881181D01*
X19470021Y-86890420D01*
X19649692Y-86959030D01*
X19654760Y-86960061D01*
X19654763Y-86960062D01*
X19759604Y-86981392D01*
X19868597Y-87003567D01*
X19873772Y-87003757D01*
X19873774Y-87003757D01*
X20086673Y-87011564D01*
X20086677Y-87011564D01*
X20091837Y-87011753D01*
X20096957Y-87011097D01*
X20096959Y-87011097D01*
X20308288Y-86984025D01*
X20308289Y-86984025D01*
X20313416Y-86983368D01*
X20318366Y-86981883D01*
X20522429Y-86920661D01*
X20522434Y-86920659D01*
X20527384Y-86919174D01*
X20679092Y-86844853D01*
X24929977Y-86844853D01*
X24935258Y-86851907D01*
X25096756Y-86946279D01*
X25106042Y-86950729D01*
X25305001Y-87026703D01*
X25314899Y-87029579D01*
X25523595Y-87072038D01*
X25533823Y-87073257D01*
X25746650Y-87081062D01*
X25756936Y-87080595D01*
X25968185Y-87053534D01*
X25978262Y-87051392D01*
X26182255Y-86990191D01*
X26191842Y-86986433D01*
X26383098Y-86892738D01*
X26391944Y-86887465D01*
X26439247Y-86853723D01*
X26447648Y-86843023D01*
X26440660Y-86829870D01*
X25702812Y-86092022D01*
X25688868Y-86084408D01*
X25687035Y-86084539D01*
X25680420Y-86088790D01*
X24936737Y-86832473D01*
X24929977Y-86844853D01*
X20679092Y-86844853D01*
X20727994Y-86820896D01*
X20909860Y-86691173D01*
X21068096Y-86533489D01*
X21127594Y-86450689D01*
X21195435Y-86356277D01*
X21198453Y-86352077D01*
X21200874Y-86347180D01*
X21295136Y-86156453D01*
X21295137Y-86156451D01*
X21297430Y-86151811D01*
X21362370Y-85938069D01*
X21391529Y-85716590D01*
X21392133Y-85691863D01*
X24328050Y-85691863D01*
X24340309Y-85904477D01*
X24341745Y-85914697D01*
X24388565Y-86122446D01*
X24391645Y-86132275D01*
X24471770Y-86329603D01*
X24476413Y-86338794D01*
X24556460Y-86469420D01*
X24566916Y-86478880D01*
X24575694Y-86475096D01*
X25317978Y-85732812D01*
X25324356Y-85721132D01*
X26054408Y-85721132D01*
X26054539Y-85722965D01*
X26058790Y-85729580D01*
X26800474Y-86471264D01*
X26812484Y-86477823D01*
X26824223Y-86468855D01*
X26855004Y-86426019D01*
X26860315Y-86417180D01*
X26954670Y-86226267D01*
X26958469Y-86216672D01*
X27020376Y-86012915D01*
X27022555Y-86002834D01*
X27050590Y-85789887D01*
X27051109Y-85783212D01*
X27052572Y-85723364D01*
X27052378Y-85716646D01*
X27049916Y-85686695D01*
X28827251Y-85686695D01*
X28827548Y-85691848D01*
X28827548Y-85691851D01*
X28833136Y-85788758D01*
X28840110Y-85909715D01*
X28841247Y-85914761D01*
X28841248Y-85914767D01*
X28861119Y-86002939D01*
X28889222Y-86127639D01*
X28973266Y-86334616D01*
X29089987Y-86525088D01*
X29236250Y-86693938D01*
X29344397Y-86783723D01*
X29391915Y-86823173D01*
X29408126Y-86836632D01*
X29601000Y-86949338D01*
X29809692Y-87029030D01*
X29814760Y-87030061D01*
X29814763Y-87030062D01*
X29919604Y-87051392D01*
X30028597Y-87073567D01*
X30033772Y-87073757D01*
X30033774Y-87073757D01*
X30246673Y-87081564D01*
X30246677Y-87081564D01*
X30251837Y-87081753D01*
X30256957Y-87081097D01*
X30256959Y-87081097D01*
X30468288Y-87054025D01*
X30468289Y-87054025D01*
X30473416Y-87053368D01*
X30478366Y-87051883D01*
X30682429Y-86990661D01*
X30682434Y-86990659D01*
X30687384Y-86989174D01*
X30887994Y-86890896D01*
X31069860Y-86761173D01*
X31228096Y-86603489D01*
X31275775Y-86537137D01*
X31355435Y-86426277D01*
X31358453Y-86422077D01*
X31360874Y-86417180D01*
X31455136Y-86226453D01*
X31455137Y-86226451D01*
X31457430Y-86221811D01*
X31505901Y-86062275D01*
X31520865Y-86013023D01*
X31520865Y-86013021D01*
X31522370Y-86008069D01*
X31551529Y-85786590D01*
X31552422Y-85750039D01*
X31553074Y-85723365D01*
X31553074Y-85723361D01*
X31553156Y-85720000D01*
X31534852Y-85497361D01*
X31480431Y-85280702D01*
X31391354Y-85075840D01*
X31330242Y-84981375D01*
X31272822Y-84892617D01*
X31272820Y-84892614D01*
X31270014Y-84888277D01*
X31119670Y-84723051D01*
X31115619Y-84719852D01*
X31115615Y-84719848D01*
X30948414Y-84587800D01*
X30948410Y-84587798D01*
X30944359Y-84584598D01*
X30748789Y-84476638D01*
X30743920Y-84474914D01*
X30743916Y-84474912D01*
X30543087Y-84403795D01*
X30543083Y-84403794D01*
X30538212Y-84402069D01*
X30533119Y-84401162D01*
X30533116Y-84401161D01*
X30323373Y-84363800D01*
X30323367Y-84363799D01*
X30318284Y-84362894D01*
X30244452Y-84361992D01*
X30100081Y-84360228D01*
X30100079Y-84360228D01*
X30094911Y-84360165D01*
X29874091Y-84393955D01*
X29661756Y-84463357D01*
X29463607Y-84566507D01*
X29459474Y-84569610D01*
X29459471Y-84569612D01*
X29289100Y-84697530D01*
X29284965Y-84700635D01*
X29281393Y-84704373D01*
X29172544Y-84818277D01*
X29130629Y-84862138D01*
X29004743Y-85046680D01*
X28989003Y-85080590D01*
X28926206Y-85215875D01*
X28910688Y-85249305D01*
X28850989Y-85464570D01*
X28827251Y-85686695D01*
X27049916Y-85686695D01*
X27034781Y-85502604D01*
X27033096Y-85492424D01*
X26981214Y-85285875D01*
X26977894Y-85276124D01*
X26892972Y-85080814D01*
X26888105Y-85071739D01*
X26823063Y-84971197D01*
X26812377Y-84961995D01*
X26802812Y-84966398D01*
X26062022Y-85707188D01*
X26054408Y-85721132D01*
X25324356Y-85721132D01*
X25325592Y-85718868D01*
X25325461Y-85717035D01*
X25321210Y-85710420D01*
X24579849Y-84969059D01*
X24568313Y-84962759D01*
X24556031Y-84972382D01*
X24508089Y-85042662D01*
X24503004Y-85051613D01*
X24413338Y-85244783D01*
X24409775Y-85254470D01*
X24352864Y-85459681D01*
X24350933Y-85469800D01*
X24328302Y-85681574D01*
X24328050Y-85691863D01*
X21392133Y-85691863D01*
X21393074Y-85653365D01*
X21393074Y-85653361D01*
X21393156Y-85650000D01*
X21374852Y-85427361D01*
X21320431Y-85210702D01*
X21231354Y-85005840D01*
X21152828Y-84884457D01*
X21112822Y-84822617D01*
X21112820Y-84822614D01*
X21110014Y-84818277D01*
X20959670Y-84653051D01*
X20955619Y-84649852D01*
X20955615Y-84649848D01*
X20887973Y-84596427D01*
X24931223Y-84596427D01*
X24937968Y-84608758D01*
X25677188Y-85347978D01*
X25691132Y-85355592D01*
X25692965Y-85355461D01*
X25699580Y-85351210D01*
X26443389Y-84607401D01*
X26450410Y-84594544D01*
X26443611Y-84585213D01*
X26439554Y-84582518D01*
X26253117Y-84479599D01*
X26243705Y-84475369D01*
X26042959Y-84404280D01*
X26032989Y-84401646D01*
X25823327Y-84364301D01*
X25813073Y-84363331D01*
X25600116Y-84360728D01*
X25589832Y-84361448D01*
X25379321Y-84393661D01*
X25369293Y-84396050D01*
X25166868Y-84462212D01*
X25157359Y-84466209D01*
X24968466Y-84564540D01*
X24959734Y-84570039D01*
X24939677Y-84585099D01*
X24931223Y-84596427D01*
X20887973Y-84596427D01*
X20788414Y-84517800D01*
X20788410Y-84517798D01*
X20784359Y-84514598D01*
X20588789Y-84406638D01*
X20583920Y-84404914D01*
X20583916Y-84404912D01*
X20383087Y-84333795D01*
X20383083Y-84333794D01*
X20378212Y-84332069D01*
X20373119Y-84331162D01*
X20373116Y-84331161D01*
X20163373Y-84293800D01*
X20163367Y-84293799D01*
X20158284Y-84292894D01*
X20084452Y-84291992D01*
X19940081Y-84290228D01*
X19940079Y-84290228D01*
X19934911Y-84290165D01*
X19714091Y-84323955D01*
X19501756Y-84393357D01*
X19423455Y-84434118D01*
X19345091Y-84474912D01*
X19303607Y-84496507D01*
X19299474Y-84499610D01*
X19299471Y-84499612D01*
X19154102Y-84608758D01*
X19124965Y-84630635D01*
X18970629Y-84792138D01*
X18844743Y-84976680D01*
X18750688Y-85179305D01*
X18690989Y-85394570D01*
X18667251Y-85616695D01*
X16889916Y-85616695D01*
X16874781Y-85432604D01*
X16873096Y-85422424D01*
X16821214Y-85215875D01*
X16817894Y-85206124D01*
X16732972Y-85010814D01*
X16728105Y-85001739D01*
X16663063Y-84901197D01*
X16652377Y-84891995D01*
X16642812Y-84896398D01*
X15902022Y-85637188D01*
X15894408Y-85651132D01*
X15164356Y-85651132D01*
X15165592Y-85648868D01*
X15165461Y-85647035D01*
X15161210Y-85640420D01*
X14419849Y-84899059D01*
X14408313Y-84892759D01*
X14396031Y-84902382D01*
X14348089Y-84972662D01*
X14343004Y-84981613D01*
X14253338Y-85174783D01*
X14249775Y-85184470D01*
X14192864Y-85389681D01*
X14190933Y-85399800D01*
X14168302Y-85611574D01*
X14168050Y-85621863D01*
X11230843Y-85621863D01*
X11214852Y-85427361D01*
X11160431Y-85210702D01*
X11071354Y-85005840D01*
X10992828Y-84884457D01*
X10952822Y-84822617D01*
X10952820Y-84822614D01*
X10950014Y-84818277D01*
X10799670Y-84653051D01*
X10795619Y-84649852D01*
X10795615Y-84649848D01*
X10639338Y-84526427D01*
X14771223Y-84526427D01*
X14777968Y-84538758D01*
X15517188Y-85277978D01*
X15531132Y-85285592D01*
X15532965Y-85285461D01*
X15539580Y-85281210D01*
X16283389Y-84537401D01*
X16290410Y-84524544D01*
X16283611Y-84515213D01*
X16279554Y-84512518D01*
X16093117Y-84409599D01*
X16083705Y-84405369D01*
X15882959Y-84334280D01*
X15872989Y-84331646D01*
X15663327Y-84294301D01*
X15653073Y-84293331D01*
X15440116Y-84290728D01*
X15429832Y-84291448D01*
X15219321Y-84323661D01*
X15209293Y-84326050D01*
X15006868Y-84392212D01*
X14997359Y-84396209D01*
X14808466Y-84494540D01*
X14799734Y-84500039D01*
X14779677Y-84515099D01*
X14771223Y-84526427D01*
X10639338Y-84526427D01*
X10628414Y-84517800D01*
X10628410Y-84517798D01*
X10624359Y-84514598D01*
X10428789Y-84406638D01*
X10423920Y-84404914D01*
X10423916Y-84404912D01*
X10223087Y-84333795D01*
X10223083Y-84333794D01*
X10218212Y-84332069D01*
X10213119Y-84331162D01*
X10213116Y-84331161D01*
X10003373Y-84293800D01*
X10003367Y-84293799D01*
X9998284Y-84292894D01*
X9924452Y-84291992D01*
X9780081Y-84290228D01*
X9780079Y-84290228D01*
X9774911Y-84290165D01*
X9554091Y-84323955D01*
X9341756Y-84393357D01*
X9263455Y-84434118D01*
X9185091Y-84474912D01*
X9143607Y-84496507D01*
X9139474Y-84499610D01*
X9139471Y-84499612D01*
X8994102Y-84608758D01*
X8964965Y-84630635D01*
X8810629Y-84792138D01*
X8684743Y-84976680D01*
X8590688Y-85179305D01*
X8530989Y-85394570D01*
X8507251Y-85616695D01*
X6730418Y-85616695D01*
X6714852Y-85427361D01*
X6660431Y-85210702D01*
X6571354Y-85005840D01*
X6492828Y-84884457D01*
X6452822Y-84822617D01*
X6452820Y-84822614D01*
X6450014Y-84818277D01*
X6299670Y-84653051D01*
X6295619Y-84649852D01*
X6295615Y-84649848D01*
X6128414Y-84517800D01*
X6128410Y-84517798D01*
X6124359Y-84514598D01*
X5928789Y-84406638D01*
X5923920Y-84404914D01*
X5923916Y-84404912D01*
X5723087Y-84333795D01*
X5723083Y-84333794D01*
X5718212Y-84332069D01*
X5713119Y-84331162D01*
X5713116Y-84331161D01*
X5503373Y-84293800D01*
X5503367Y-84293799D01*
X5498284Y-84292894D01*
X5424452Y-84291992D01*
X5280081Y-84290228D01*
X5280079Y-84290228D01*
X5274911Y-84290165D01*
X5054091Y-84323955D01*
X4841756Y-84393357D01*
X4763455Y-84434118D01*
X4685091Y-84474912D01*
X4643607Y-84496507D01*
X4639474Y-84499610D01*
X4639471Y-84499612D01*
X4494102Y-84608758D01*
X4464965Y-84630635D01*
X4310629Y-84792138D01*
X4184743Y-84976680D01*
X4090688Y-85179305D01*
X4030989Y-85394570D01*
X4007251Y-85616695D01*
X1070418Y-85616695D01*
X1054852Y-85427361D01*
X1000431Y-85210702D01*
X911354Y-85005840D01*
X832828Y-84884457D01*
X792822Y-84822617D01*
X792820Y-84822614D01*
X790014Y-84818277D01*
X639670Y-84653051D01*
X635619Y-84649852D01*
X635615Y-84649848D01*
X468414Y-84517800D01*
X468410Y-84517798D01*
X464359Y-84514598D01*
X268789Y-84406638D01*
X263920Y-84404914D01*
X263916Y-84404912D01*
X63087Y-84333795D01*
X63083Y-84333794D01*
X58212Y-84332069D01*
X53119Y-84331162D01*
X53116Y-84331161D01*
X-156627Y-84293800D01*
X-156633Y-84293799D01*
X-161716Y-84292894D01*
X-235548Y-84291992D01*
X-379919Y-84290228D01*
X-379921Y-84290228D01*
X-385089Y-84290165D01*
X-605909Y-84323955D01*
X-818244Y-84393357D01*
X-896545Y-84434118D01*
X-974909Y-84474912D01*
X-1016393Y-84496507D01*
X-1020526Y-84499610D01*
X-1020529Y-84499612D01*
X-1165898Y-84608758D01*
X-1195035Y-84630635D01*
X-1349371Y-84792138D01*
X-1475257Y-84976680D01*
X-1569312Y-85179305D01*
X-1629011Y-85394570D01*
X-1652749Y-85616695D01*
X-3429582Y-85616695D01*
X-3445148Y-85427361D01*
X-3499569Y-85210702D01*
X-3588646Y-85005840D01*
X-3667172Y-84884457D01*
X-3707178Y-84822617D01*
X-3707180Y-84822614D01*
X-3709986Y-84818277D01*
X-3860330Y-84653051D01*
X-3864381Y-84649852D01*
X-3864385Y-84649848D01*
X-4031586Y-84517800D01*
X-4031590Y-84517798D01*
X-4035641Y-84514598D01*
X-4231211Y-84406638D01*
X-4236080Y-84404914D01*
X-4236084Y-84404912D01*
X-4436913Y-84333795D01*
X-4436917Y-84333794D01*
X-4441788Y-84332069D01*
X-4446881Y-84331162D01*
X-4446884Y-84331161D01*
X-4656627Y-84293800D01*
X-4656633Y-84293799D01*
X-4661716Y-84292894D01*
X-4735548Y-84291992D01*
X-4879919Y-84290228D01*
X-4879921Y-84290228D01*
X-4885089Y-84290165D01*
X-5105909Y-84323955D01*
X-5318244Y-84393357D01*
X-5396545Y-84434118D01*
X-5474909Y-84474912D01*
X-5516393Y-84496507D01*
X-5520526Y-84499610D01*
X-5520529Y-84499612D01*
X-5665898Y-84608758D01*
X-5695035Y-84630635D01*
X-5849371Y-84792138D01*
X-5975257Y-84976680D01*
X-6069312Y-85179305D01*
X-6129011Y-85394570D01*
X-6152749Y-85616695D01*
X-13815505Y-85616695D01*
X-13907041Y-85584280D01*
X-13917011Y-85581646D01*
X-14126673Y-85544301D01*
X-14136927Y-85543331D01*
X-14349884Y-85540728D01*
X-14360168Y-85541448D01*
X-14570679Y-85573661D01*
X-14580707Y-85576050D01*
X-14783132Y-85642212D01*
X-14792641Y-85646209D01*
X-14981534Y-85744540D01*
X-14990266Y-85750039D01*
X-15010323Y-85765099D01*
X-15018777Y-85776427D01*
X-39491500Y-85776427D01*
X-39491500Y-82939690D01*
X-30122963Y-82939690D01*
X-30095975Y-83162715D01*
X-30029918Y-83377435D01*
X-30027348Y-83382415D01*
X-30027346Y-83382419D01*
X-29962148Y-83508738D01*
X-29926882Y-83577064D01*
X-29790123Y-83755292D01*
X-29623964Y-83906485D01*
X-29619217Y-83909463D01*
X-29619214Y-83909465D01*
X-29490771Y-83990036D01*
X-29433656Y-84025864D01*
X-29225217Y-84109656D01*
X-29005233Y-84155213D01*
X-29000622Y-84155479D01*
X-29000621Y-84155479D01*
X-28950048Y-84158395D01*
X-28950044Y-84158395D01*
X-28948225Y-84158500D01*
X-28803001Y-84158500D01*
X-28800214Y-84158251D01*
X-28800208Y-84158251D01*
X-28730071Y-84151991D01*
X-28636238Y-84143617D01*
X-28630824Y-84142136D01*
X-28630819Y-84142135D01*
X-28503088Y-84107191D01*
X-28419549Y-84084337D01*
X-28414491Y-84081925D01*
X-28414487Y-84081923D01*
X-28296958Y-84025864D01*
X-28216782Y-83987622D01*
X-28034346Y-83856529D01*
X-27878008Y-83695201D01*
X-27752710Y-83508738D01*
X-27662412Y-83303033D01*
X-27609968Y-83084589D01*
X-27597037Y-82860310D01*
X-27624025Y-82637285D01*
X-27690082Y-82422565D01*
X-27755202Y-82296396D01*
X-27790546Y-82227919D01*
X-27790546Y-82227918D01*
X-27793118Y-82222936D01*
X-27929877Y-82044708D01*
X-28096036Y-81893515D01*
X-28100783Y-81890537D01*
X-28100786Y-81890535D01*
X-28281595Y-81777115D01*
X-28286344Y-81774136D01*
X-28494783Y-81690344D01*
X-28714767Y-81644787D01*
X-28719378Y-81644521D01*
X-28719379Y-81644521D01*
X-28769952Y-81641605D01*
X-28769956Y-81641605D01*
X-28771775Y-81641500D01*
X-28916999Y-81641500D01*
X-28919786Y-81641749D01*
X-28919792Y-81641749D01*
X-28989929Y-81648009D01*
X-29083762Y-81656383D01*
X-29089176Y-81657864D01*
X-29089181Y-81657865D01*
X-29203738Y-81689205D01*
X-29300451Y-81715663D01*
X-29305509Y-81718075D01*
X-29305513Y-81718077D01*
X-29401835Y-81764021D01*
X-29503218Y-81812378D01*
X-29685654Y-81943471D01*
X-29841992Y-82104799D01*
X-29967290Y-82291262D01*
X-30057588Y-82496967D01*
X-30110032Y-82715411D01*
X-30122963Y-82939690D01*
X-39491500Y-82939690D01*
X-39491500Y-81424853D01*
X-25620023Y-81424853D01*
X-25614742Y-81431907D01*
X-25453244Y-81526279D01*
X-25443958Y-81530729D01*
X-25244999Y-81606703D01*
X-25235101Y-81609579D01*
X-25026405Y-81652038D01*
X-25016177Y-81653257D01*
X-24803350Y-81661062D01*
X-24793064Y-81660595D01*
X-24581815Y-81633534D01*
X-24571738Y-81631392D01*
X-24367745Y-81570191D01*
X-24358158Y-81566433D01*
X-24166902Y-81472738D01*
X-24158056Y-81467465D01*
X-24110753Y-81433723D01*
X-24102352Y-81423023D01*
X-24109340Y-81409870D01*
X-24847188Y-80672022D01*
X-24861132Y-80664408D01*
X-24862965Y-80664539D01*
X-24869580Y-80668790D01*
X-25613263Y-81412473D01*
X-25620023Y-81424853D01*
X-39491500Y-81424853D01*
X-39491500Y-80271863D01*
X-26221950Y-80271863D01*
X-26209691Y-80484477D01*
X-26208255Y-80494697D01*
X-26161435Y-80702446D01*
X-26158355Y-80712275D01*
X-26078230Y-80909603D01*
X-26073587Y-80918794D01*
X-25993540Y-81049420D01*
X-25983084Y-81058880D01*
X-25974306Y-81055096D01*
X-25232022Y-80312812D01*
X-25225644Y-80301132D01*
X-24495592Y-80301132D01*
X-24495461Y-80302965D01*
X-24491210Y-80309580D01*
X-24206253Y-80594537D01*
X-24172431Y-80655931D01*
X-24160778Y-80707639D01*
X-24076734Y-80914616D01*
X-23960013Y-81105088D01*
X-23813750Y-81273938D01*
X-23641874Y-81416632D01*
X-23449000Y-81529338D01*
X-23240308Y-81609030D01*
X-23235240Y-81610061D01*
X-23235237Y-81610062D01*
X-23130396Y-81631392D01*
X-23021403Y-81653567D01*
X-23016228Y-81653757D01*
X-23016226Y-81653757D01*
X-22803327Y-81661564D01*
X-22803323Y-81661564D01*
X-22798163Y-81661753D01*
X-22793043Y-81661097D01*
X-22793041Y-81661097D01*
X-22581712Y-81634025D01*
X-22581711Y-81634025D01*
X-22576584Y-81633368D01*
X-22571634Y-81631883D01*
X-22367571Y-81570661D01*
X-22367566Y-81570659D01*
X-22362616Y-81569174D01*
X-22162006Y-81470896D01*
X-21980140Y-81341173D01*
X-21948924Y-81310066D01*
X-21886555Y-81276150D01*
X-21815748Y-81281338D01*
X-21779500Y-81302373D01*
X-21737154Y-81337529D01*
X-21641874Y-81416632D01*
X-21449000Y-81529338D01*
X-21240308Y-81609030D01*
X-21235240Y-81610061D01*
X-21235237Y-81610062D01*
X-21130396Y-81631392D01*
X-21021403Y-81653567D01*
X-21016228Y-81653757D01*
X-21016226Y-81653757D01*
X-20803327Y-81661564D01*
X-20803323Y-81661564D01*
X-20798163Y-81661753D01*
X-20793043Y-81661097D01*
X-20793041Y-81661097D01*
X-20581712Y-81634025D01*
X-20581711Y-81634025D01*
X-20576584Y-81633368D01*
X-20571634Y-81631883D01*
X-20367571Y-81570661D01*
X-20367566Y-81570659D01*
X-20362616Y-81569174D01*
X-20162006Y-81470896D01*
X-19980140Y-81341173D01*
X-19920095Y-81281338D01*
X-19898791Y-81260107D01*
X-19821904Y-81183489D01*
X-19762406Y-81100689D01*
X-19694565Y-81006277D01*
X-19691547Y-81002077D01*
X-19592570Y-80801811D01*
X-19527630Y-80588069D01*
X-19498471Y-80366590D01*
X-19496844Y-80300000D01*
X-19515148Y-80077361D01*
X-19569569Y-79860702D01*
X-19658646Y-79655840D01*
X-19779986Y-79468277D01*
X-19930330Y-79303051D01*
X-19934381Y-79299852D01*
X-19934385Y-79299848D01*
X-20101586Y-79167800D01*
X-20101590Y-79167798D01*
X-20105641Y-79164598D01*
X-20301211Y-79056638D01*
X-20306080Y-79054914D01*
X-20306084Y-79054912D01*
X-20506913Y-78983795D01*
X-20506917Y-78983794D01*
X-20511788Y-78982069D01*
X-20516881Y-78981162D01*
X-20516884Y-78981161D01*
X-20726627Y-78943800D01*
X-20726633Y-78943799D01*
X-20731716Y-78942894D01*
X-20805548Y-78941992D01*
X-20949919Y-78940228D01*
X-20949921Y-78940228D01*
X-20955089Y-78940165D01*
X-21175909Y-78973955D01*
X-21388244Y-79043357D01*
X-21586393Y-79146507D01*
X-21590526Y-79149610D01*
X-21590529Y-79149612D01*
X-21760900Y-79277530D01*
X-21765035Y-79280635D01*
X-21768607Y-79284373D01*
X-21769126Y-79284916D01*
X-21769390Y-79285068D01*
X-21772475Y-79287807D01*
X-21773040Y-79287170D01*
X-21830650Y-79320346D01*
X-21901563Y-79316889D01*
X-21938312Y-79296747D01*
X-22101586Y-79167800D01*
X-22101590Y-79167798D01*
X-22105641Y-79164598D01*
X-22301211Y-79056638D01*
X-22306080Y-79054914D01*
X-22306084Y-79054912D01*
X-22506913Y-78983795D01*
X-22506917Y-78983794D01*
X-22511788Y-78982069D01*
X-22516881Y-78981162D01*
X-22516884Y-78981161D01*
X-22726627Y-78943800D01*
X-22726633Y-78943799D01*
X-22731716Y-78942894D01*
X-22805548Y-78941992D01*
X-22949919Y-78940228D01*
X-22949921Y-78940228D01*
X-22955089Y-78940165D01*
X-23175909Y-78973955D01*
X-23388244Y-79043357D01*
X-23586393Y-79146507D01*
X-23590526Y-79149610D01*
X-23590529Y-79149612D01*
X-23760900Y-79277530D01*
X-23765035Y-79280635D01*
X-23919371Y-79442138D01*
X-24045257Y-79626680D01*
X-24139312Y-79829305D01*
X-24148019Y-79860702D01*
X-24172359Y-79948468D01*
X-24204681Y-80003891D01*
X-24487978Y-80287188D01*
X-24495592Y-80301132D01*
X-25225644Y-80301132D01*
X-25224408Y-80298868D01*
X-25224539Y-80297035D01*
X-25228790Y-80290420D01*
X-25970151Y-79549059D01*
X-25981687Y-79542759D01*
X-25993969Y-79552382D01*
X-26041911Y-79622662D01*
X-26046996Y-79631613D01*
X-26136662Y-79824783D01*
X-26140225Y-79834470D01*
X-26197136Y-80039681D01*
X-26199067Y-80049800D01*
X-26221698Y-80261574D01*
X-26221950Y-80271863D01*
X-39491500Y-80271863D01*
X-39491500Y-79176427D01*
X-25618777Y-79176427D01*
X-25612032Y-79188758D01*
X-24872812Y-79927978D01*
X-24858868Y-79935592D01*
X-24857035Y-79935461D01*
X-24850420Y-79931210D01*
X-24106611Y-79187401D01*
X-24099590Y-79174544D01*
X-24106389Y-79165213D01*
X-24110446Y-79162518D01*
X-24296883Y-79059599D01*
X-24306295Y-79055369D01*
X-24507041Y-78984280D01*
X-24517011Y-78981646D01*
X-24726673Y-78944301D01*
X-24736927Y-78943331D01*
X-24949884Y-78940728D01*
X-24960168Y-78941448D01*
X-25170679Y-78973661D01*
X-25180707Y-78976050D01*
X-25383132Y-79042212D01*
X-25392641Y-79046209D01*
X-25581534Y-79144540D01*
X-25590266Y-79150039D01*
X-25610323Y-79165099D01*
X-25618777Y-79176427D01*
X-39491500Y-79176427D01*
X-39491500Y-72390000D01*
X-29153116Y-72390000D01*
X-29134686Y-72600655D01*
X-29079956Y-72804910D01*
X-28990589Y-72996558D01*
X-28869301Y-73169776D01*
X-28719776Y-73319301D01*
X-28546558Y-73440589D01*
X-28541580Y-73442910D01*
X-28541577Y-73442912D01*
X-28359892Y-73527633D01*
X-28354910Y-73529956D01*
X-28349602Y-73531378D01*
X-28349600Y-73531379D01*
X-28155970Y-73583262D01*
X-28155968Y-73583262D01*
X-28150655Y-73584686D01*
X-27940000Y-73603116D01*
X-27729345Y-73584686D01*
X-27724032Y-73583262D01*
X-27724030Y-73583262D01*
X-27530400Y-73531379D01*
X-27530398Y-73531378D01*
X-27525090Y-73529956D01*
X-27520108Y-73527633D01*
X-27338423Y-73442912D01*
X-27338420Y-73442910D01*
X-27333442Y-73440589D01*
X-27160224Y-73319301D01*
X-27010699Y-73169776D01*
X-26889411Y-72996558D01*
X-26800044Y-72804910D01*
X-26745314Y-72600655D01*
X-26726884Y-72390000D01*
X-18993116Y-72390000D01*
X-18974686Y-72600655D01*
X-18919956Y-72804910D01*
X-18830589Y-72996558D01*
X-18709301Y-73169776D01*
X-18559776Y-73319301D01*
X-18386558Y-73440589D01*
X-18381580Y-73442910D01*
X-18381577Y-73442912D01*
X-18199892Y-73527633D01*
X-18194910Y-73529956D01*
X-18189602Y-73531378D01*
X-18189600Y-73531379D01*
X-17995970Y-73583262D01*
X-17995968Y-73583262D01*
X-17990655Y-73584686D01*
X-17780000Y-73603116D01*
X-17569345Y-73584686D01*
X-17564032Y-73583262D01*
X-17564030Y-73583262D01*
X-17370400Y-73531379D01*
X-17370398Y-73531378D01*
X-17365090Y-73529956D01*
X-17360108Y-73527633D01*
X-17178423Y-73442912D01*
X-17178420Y-73442910D01*
X-17173442Y-73440589D01*
X-17000224Y-73319301D01*
X-16850699Y-73169776D01*
X-16729411Y-72996558D01*
X-16640044Y-72804910D01*
X-16585314Y-72600655D01*
X-16566884Y-72390000D01*
X-3753116Y-72390000D01*
X-3734686Y-72600655D01*
X-3679956Y-72804910D01*
X-3590589Y-72996558D01*
X-3469301Y-73169776D01*
X-3319776Y-73319301D01*
X-3146558Y-73440589D01*
X-3141580Y-73442910D01*
X-3141577Y-73442912D01*
X-2959892Y-73527633D01*
X-2954910Y-73529956D01*
X-2949602Y-73531378D01*
X-2949600Y-73531379D01*
X-2755970Y-73583262D01*
X-2755968Y-73583262D01*
X-2750655Y-73584686D01*
X-2540000Y-73603116D01*
X-2329345Y-73584686D01*
X-2324032Y-73583262D01*
X-2324030Y-73583262D01*
X-2130400Y-73531379D01*
X-2130398Y-73531378D01*
X-2125090Y-73529956D01*
X-2120108Y-73527633D01*
X-1938423Y-73442912D01*
X-1938420Y-73442910D01*
X-1933442Y-73440589D01*
X-1760224Y-73319301D01*
X-1610699Y-73169776D01*
X-1489411Y-72996558D01*
X-1400044Y-72804910D01*
X-1345314Y-72600655D01*
X-1326884Y-72390000D01*
X6406884Y-72390000D01*
X6425314Y-72600655D01*
X6480044Y-72804910D01*
X6569411Y-72996558D01*
X6690699Y-73169776D01*
X6840224Y-73319301D01*
X7013442Y-73440589D01*
X7018420Y-73442910D01*
X7018423Y-73442912D01*
X7200108Y-73527633D01*
X7205090Y-73529956D01*
X7210398Y-73531378D01*
X7210400Y-73531379D01*
X7404030Y-73583262D01*
X7404032Y-73583262D01*
X7409345Y-73584686D01*
X7620000Y-73603116D01*
X7830655Y-73584686D01*
X7835968Y-73583262D01*
X7835970Y-73583262D01*
X8029600Y-73531379D01*
X8029602Y-73531378D01*
X8034910Y-73529956D01*
X8039892Y-73527633D01*
X8221577Y-73442912D01*
X8221580Y-73442910D01*
X8226558Y-73440589D01*
X8399776Y-73319301D01*
X8549301Y-73169776D01*
X8670589Y-72996558D01*
X8759956Y-72804910D01*
X8814686Y-72600655D01*
X8833116Y-72390000D01*
X16566884Y-72390000D01*
X16585314Y-72600655D01*
X16640044Y-72804910D01*
X16729411Y-72996558D01*
X16850699Y-73169776D01*
X17000224Y-73319301D01*
X17173442Y-73440589D01*
X17178420Y-73442910D01*
X17178423Y-73442912D01*
X17360108Y-73527633D01*
X17365090Y-73529956D01*
X17370398Y-73531378D01*
X17370400Y-73531379D01*
X17564030Y-73583262D01*
X17564032Y-73583262D01*
X17569345Y-73584686D01*
X17780000Y-73603116D01*
X17990655Y-73584686D01*
X17995968Y-73583262D01*
X17995970Y-73583262D01*
X18189600Y-73531379D01*
X18189602Y-73531378D01*
X18194910Y-73529956D01*
X18199892Y-73527633D01*
X18381577Y-73442912D01*
X18381580Y-73442910D01*
X18386558Y-73440589D01*
X18559776Y-73319301D01*
X18709301Y-73169776D01*
X18830589Y-72996558D01*
X18919956Y-72804910D01*
X18974686Y-72600655D01*
X18993116Y-72390000D01*
X26726884Y-72390000D01*
X26745314Y-72600655D01*
X26800044Y-72804910D01*
X26889411Y-72996558D01*
X27010699Y-73169776D01*
X27160224Y-73319301D01*
X27333442Y-73440589D01*
X27338420Y-73442910D01*
X27338423Y-73442912D01*
X27520108Y-73527633D01*
X27525090Y-73529956D01*
X27530398Y-73531378D01*
X27530400Y-73531379D01*
X27724030Y-73583262D01*
X27724032Y-73583262D01*
X27729345Y-73584686D01*
X27940000Y-73603116D01*
X28150655Y-73584686D01*
X28155968Y-73583262D01*
X28155970Y-73583262D01*
X28349600Y-73531379D01*
X28349602Y-73531378D01*
X28354910Y-73529956D01*
X28359892Y-73527633D01*
X28541577Y-73442912D01*
X28541580Y-73442910D01*
X28546558Y-73440589D01*
X28719776Y-73319301D01*
X28869301Y-73169776D01*
X28990589Y-72996558D01*
X29079956Y-72804910D01*
X29134686Y-72600655D01*
X29153116Y-72390000D01*
X29134686Y-72179345D01*
X29079956Y-71975090D01*
X28990589Y-71783442D01*
X28869301Y-71610224D01*
X28719776Y-71460699D01*
X28546558Y-71339411D01*
X28541580Y-71337090D01*
X28541577Y-71337088D01*
X28359892Y-71252367D01*
X28359891Y-71252366D01*
X28354910Y-71250044D01*
X28349602Y-71248622D01*
X28349600Y-71248621D01*
X28155970Y-71196738D01*
X28155968Y-71196738D01*
X28150655Y-71195314D01*
X27940000Y-71176884D01*
X27729345Y-71195314D01*
X27724032Y-71196738D01*
X27724030Y-71196738D01*
X27530400Y-71248621D01*
X27530398Y-71248622D01*
X27525090Y-71250044D01*
X27520109Y-71252366D01*
X27520108Y-71252367D01*
X27338423Y-71337088D01*
X27338420Y-71337090D01*
X27333442Y-71339411D01*
X27160224Y-71460699D01*
X27010699Y-71610224D01*
X26889411Y-71783442D01*
X26800044Y-71975090D01*
X26745314Y-72179345D01*
X26726884Y-72390000D01*
X18993116Y-72390000D01*
X18974686Y-72179345D01*
X18919956Y-71975090D01*
X18830589Y-71783442D01*
X18709301Y-71610224D01*
X18559776Y-71460699D01*
X18386558Y-71339411D01*
X18381580Y-71337090D01*
X18381577Y-71337088D01*
X18199892Y-71252367D01*
X18199891Y-71252366D01*
X18194910Y-71250044D01*
X18189602Y-71248622D01*
X18189600Y-71248621D01*
X17995970Y-71196738D01*
X17995968Y-71196738D01*
X17990655Y-71195314D01*
X17780000Y-71176884D01*
X17569345Y-71195314D01*
X17564032Y-71196738D01*
X17564030Y-71196738D01*
X17370400Y-71248621D01*
X17370398Y-71248622D01*
X17365090Y-71250044D01*
X17360109Y-71252366D01*
X17360108Y-71252367D01*
X17178423Y-71337088D01*
X17178420Y-71337090D01*
X17173442Y-71339411D01*
X17000224Y-71460699D01*
X16850699Y-71610224D01*
X16729411Y-71783442D01*
X16640044Y-71975090D01*
X16585314Y-72179345D01*
X16566884Y-72390000D01*
X8833116Y-72390000D01*
X8814686Y-72179345D01*
X8759956Y-71975090D01*
X8670589Y-71783442D01*
X8549301Y-71610224D01*
X8399776Y-71460699D01*
X8226558Y-71339411D01*
X8221580Y-71337090D01*
X8221577Y-71337088D01*
X8039892Y-71252367D01*
X8039891Y-71252366D01*
X8034910Y-71250044D01*
X8029602Y-71248622D01*
X8029600Y-71248621D01*
X7835970Y-71196738D01*
X7835968Y-71196738D01*
X7830655Y-71195314D01*
X7620000Y-71176884D01*
X7409345Y-71195314D01*
X7404032Y-71196738D01*
X7404030Y-71196738D01*
X7210400Y-71248621D01*
X7210398Y-71248622D01*
X7205090Y-71250044D01*
X7200109Y-71252366D01*
X7200108Y-71252367D01*
X7018423Y-71337088D01*
X7018420Y-71337090D01*
X7013442Y-71339411D01*
X6840224Y-71460699D01*
X6690699Y-71610224D01*
X6569411Y-71783442D01*
X6480044Y-71975090D01*
X6425314Y-72179345D01*
X6406884Y-72390000D01*
X-1326884Y-72390000D01*
X-1345314Y-72179345D01*
X-1400044Y-71975090D01*
X-1489411Y-71783442D01*
X-1610699Y-71610224D01*
X-1760224Y-71460699D01*
X-1933442Y-71339411D01*
X-1938420Y-71337090D01*
X-1938423Y-71337088D01*
X-2120108Y-71252367D01*
X-2120109Y-71252366D01*
X-2125090Y-71250044D01*
X-2130398Y-71248622D01*
X-2130400Y-71248621D01*
X-2324030Y-71196738D01*
X-2324032Y-71196738D01*
X-2329345Y-71195314D01*
X-2540000Y-71176884D01*
X-2750655Y-71195314D01*
X-2755968Y-71196738D01*
X-2755970Y-71196738D01*
X-2949600Y-71248621D01*
X-2949602Y-71248622D01*
X-2954910Y-71250044D01*
X-2959891Y-71252366D01*
X-2959892Y-71252367D01*
X-3141577Y-71337088D01*
X-3141580Y-71337090D01*
X-3146558Y-71339411D01*
X-3319776Y-71460699D01*
X-3469301Y-71610224D01*
X-3590589Y-71783442D01*
X-3679956Y-71975090D01*
X-3734686Y-72179345D01*
X-3753116Y-72390000D01*
X-16566884Y-72390000D01*
X-16585314Y-72179345D01*
X-16640044Y-71975090D01*
X-16729411Y-71783442D01*
X-16850699Y-71610224D01*
X-17000224Y-71460699D01*
X-17173442Y-71339411D01*
X-17178420Y-71337090D01*
X-17178423Y-71337088D01*
X-17360108Y-71252367D01*
X-17360109Y-71252366D01*
X-17365090Y-71250044D01*
X-17370398Y-71248622D01*
X-17370400Y-71248621D01*
X-17564030Y-71196738D01*
X-17564032Y-71196738D01*
X-17569345Y-71195314D01*
X-17780000Y-71176884D01*
X-17990655Y-71195314D01*
X-17995968Y-71196738D01*
X-17995970Y-71196738D01*
X-18189600Y-71248621D01*
X-18189602Y-71248622D01*
X-18194910Y-71250044D01*
X-18199891Y-71252366D01*
X-18199892Y-71252367D01*
X-18381577Y-71337088D01*
X-18381580Y-71337090D01*
X-18386558Y-71339411D01*
X-18559776Y-71460699D01*
X-18709301Y-71610224D01*
X-18830589Y-71783442D01*
X-18919956Y-71975090D01*
X-18974686Y-72179345D01*
X-18993116Y-72390000D01*
X-26726884Y-72390000D01*
X-26745314Y-72179345D01*
X-26800044Y-71975090D01*
X-26889411Y-71783442D01*
X-27010699Y-71610224D01*
X-27160224Y-71460699D01*
X-27333442Y-71339411D01*
X-27338420Y-71337090D01*
X-27338423Y-71337088D01*
X-27520108Y-71252367D01*
X-27520109Y-71252366D01*
X-27525090Y-71250044D01*
X-27530398Y-71248622D01*
X-27530400Y-71248621D01*
X-27724030Y-71196738D01*
X-27724032Y-71196738D01*
X-27729345Y-71195314D01*
X-27940000Y-71176884D01*
X-28150655Y-71195314D01*
X-28155968Y-71196738D01*
X-28155970Y-71196738D01*
X-28349600Y-71248621D01*
X-28349602Y-71248622D01*
X-28354910Y-71250044D01*
X-28359891Y-71252366D01*
X-28359892Y-71252367D01*
X-28541577Y-71337088D01*
X-28541580Y-71337090D01*
X-28546558Y-71339411D01*
X-28719776Y-71460699D01*
X-28869301Y-71610224D01*
X-28990589Y-71783442D01*
X-29079956Y-71975090D01*
X-29134686Y-72179345D01*
X-29153116Y-72390000D01*
X-39491500Y-72390000D01*
X-39491500Y-46990000D01*
X-18993116Y-46990000D01*
X-18974686Y-47200655D01*
X-18919956Y-47404910D01*
X-18830589Y-47596558D01*
X-18709301Y-47769776D01*
X-18559776Y-47919301D01*
X-18386558Y-48040589D01*
X-18381580Y-48042910D01*
X-18381577Y-48042912D01*
X-18199892Y-48127633D01*
X-18194910Y-48129956D01*
X-18189602Y-48131378D01*
X-18189600Y-48131379D01*
X-17995970Y-48183262D01*
X-17995968Y-48183262D01*
X-17990655Y-48184686D01*
X-17780000Y-48203116D01*
X-17569345Y-48184686D01*
X-17564032Y-48183262D01*
X-17564030Y-48183262D01*
X-17370400Y-48131379D01*
X-17370398Y-48131378D01*
X-17365090Y-48129956D01*
X-17360108Y-48127633D01*
X-17178423Y-48042912D01*
X-17178420Y-48042910D01*
X-17173442Y-48040589D01*
X-17000224Y-47919301D01*
X-16850699Y-47769776D01*
X-16729411Y-47596558D01*
X-16640044Y-47404910D01*
X-16585314Y-47200655D01*
X-16566884Y-46990000D01*
X-13913116Y-46990000D01*
X-13894686Y-47200655D01*
X-13839956Y-47404910D01*
X-13750589Y-47596558D01*
X-13629301Y-47769776D01*
X-13479776Y-47919301D01*
X-13306558Y-48040589D01*
X-13301580Y-48042910D01*
X-13301577Y-48042912D01*
X-13119892Y-48127633D01*
X-13114910Y-48129956D01*
X-13109602Y-48131378D01*
X-13109600Y-48131379D01*
X-12915970Y-48183262D01*
X-12915968Y-48183262D01*
X-12910655Y-48184686D01*
X-12700000Y-48203116D01*
X-12489345Y-48184686D01*
X-12484032Y-48183262D01*
X-12484030Y-48183262D01*
X-12290400Y-48131379D01*
X-12290398Y-48131378D01*
X-12285090Y-48129956D01*
X-12280108Y-48127633D01*
X-12098423Y-48042912D01*
X-12098420Y-48042910D01*
X-12093442Y-48040589D01*
X-11920224Y-47919301D01*
X-11770699Y-47769776D01*
X-11649411Y-47596558D01*
X-11560044Y-47404910D01*
X-11505314Y-47200655D01*
X-11486884Y-46990000D01*
X-8833116Y-46990000D01*
X-8814686Y-47200655D01*
X-8759956Y-47404910D01*
X-8670589Y-47596558D01*
X-8549301Y-47769776D01*
X-8399776Y-47919301D01*
X-8226558Y-48040589D01*
X-8221580Y-48042910D01*
X-8221577Y-48042912D01*
X-8039892Y-48127633D01*
X-8034910Y-48129956D01*
X-8029602Y-48131378D01*
X-8029600Y-48131379D01*
X-7835970Y-48183262D01*
X-7835968Y-48183262D01*
X-7830655Y-48184686D01*
X-7620000Y-48203116D01*
X-7409345Y-48184686D01*
X-7404032Y-48183262D01*
X-7404030Y-48183262D01*
X-7210400Y-48131379D01*
X-7210398Y-48131378D01*
X-7205090Y-48129956D01*
X-7200108Y-48127633D01*
X-7018423Y-48042912D01*
X-7018420Y-48042910D01*
X-7013442Y-48040589D01*
X-6840224Y-47919301D01*
X-6690699Y-47769776D01*
X-6569411Y-47596558D01*
X-6480044Y-47404910D01*
X-6425314Y-47200655D01*
X-6406884Y-46990000D01*
X-3753116Y-46990000D01*
X-3734686Y-47200655D01*
X-3679956Y-47404910D01*
X-3590589Y-47596558D01*
X-3469301Y-47769776D01*
X-3319776Y-47919301D01*
X-3146558Y-48040589D01*
X-3141580Y-48042910D01*
X-3141577Y-48042912D01*
X-2959892Y-48127633D01*
X-2954910Y-48129956D01*
X-2949602Y-48131378D01*
X-2949600Y-48131379D01*
X-2755970Y-48183262D01*
X-2755968Y-48183262D01*
X-2750655Y-48184686D01*
X-2540000Y-48203116D01*
X-2329345Y-48184686D01*
X-2324032Y-48183262D01*
X-2324030Y-48183262D01*
X-2130400Y-48131379D01*
X-2130398Y-48131378D01*
X-2125090Y-48129956D01*
X-2120108Y-48127633D01*
X-1938423Y-48042912D01*
X-1938420Y-48042910D01*
X-1933442Y-48040589D01*
X-1760224Y-47919301D01*
X-1610699Y-47769776D01*
X-1489411Y-47596558D01*
X-1400044Y-47404910D01*
X-1345314Y-47200655D01*
X-1326884Y-46990000D01*
X1326884Y-46990000D01*
X1345314Y-47200655D01*
X1400044Y-47404910D01*
X1489411Y-47596558D01*
X1610699Y-47769776D01*
X1760224Y-47919301D01*
X1933442Y-48040589D01*
X1938420Y-48042910D01*
X1938423Y-48042912D01*
X2120108Y-48127633D01*
X2125090Y-48129956D01*
X2130398Y-48131378D01*
X2130400Y-48131379D01*
X2324030Y-48183262D01*
X2324032Y-48183262D01*
X2329345Y-48184686D01*
X2540000Y-48203116D01*
X2750655Y-48184686D01*
X2755968Y-48183262D01*
X2755970Y-48183262D01*
X2949600Y-48131379D01*
X2949602Y-48131378D01*
X2954910Y-48129956D01*
X2959892Y-48127633D01*
X3141577Y-48042912D01*
X3141580Y-48042910D01*
X3146558Y-48040589D01*
X3319776Y-47919301D01*
X3469301Y-47769776D01*
X3590589Y-47596558D01*
X3679956Y-47404910D01*
X3734686Y-47200655D01*
X3753116Y-46990000D01*
X6406884Y-46990000D01*
X6425314Y-47200655D01*
X6480044Y-47404910D01*
X6569411Y-47596558D01*
X6690699Y-47769776D01*
X6840224Y-47919301D01*
X7013442Y-48040589D01*
X7018420Y-48042910D01*
X7018423Y-48042912D01*
X7200108Y-48127633D01*
X7205090Y-48129956D01*
X7210398Y-48131378D01*
X7210400Y-48131379D01*
X7404030Y-48183262D01*
X7404032Y-48183262D01*
X7409345Y-48184686D01*
X7620000Y-48203116D01*
X7830655Y-48184686D01*
X7835968Y-48183262D01*
X7835970Y-48183262D01*
X8029600Y-48131379D01*
X8029602Y-48131378D01*
X8034910Y-48129956D01*
X8039892Y-48127633D01*
X8221577Y-48042912D01*
X8221580Y-48042910D01*
X8226558Y-48040589D01*
X8399776Y-47919301D01*
X8549301Y-47769776D01*
X8670589Y-47596558D01*
X8759956Y-47404910D01*
X8814686Y-47200655D01*
X8833116Y-46990000D01*
X11486884Y-46990000D01*
X11505314Y-47200655D01*
X11560044Y-47404910D01*
X11649411Y-47596558D01*
X11770699Y-47769776D01*
X11920224Y-47919301D01*
X12093442Y-48040589D01*
X12098420Y-48042910D01*
X12098423Y-48042912D01*
X12280108Y-48127633D01*
X12285090Y-48129956D01*
X12290398Y-48131378D01*
X12290400Y-48131379D01*
X12484030Y-48183262D01*
X12484032Y-48183262D01*
X12489345Y-48184686D01*
X12700000Y-48203116D01*
X12910655Y-48184686D01*
X12915968Y-48183262D01*
X12915970Y-48183262D01*
X13109600Y-48131379D01*
X13109602Y-48131378D01*
X13114910Y-48129956D01*
X13119892Y-48127633D01*
X13301577Y-48042912D01*
X13301580Y-48042910D01*
X13306558Y-48040589D01*
X13479776Y-47919301D01*
X13629301Y-47769776D01*
X13750589Y-47596558D01*
X13839956Y-47404910D01*
X13894686Y-47200655D01*
X13913116Y-46990000D01*
X16566884Y-46990000D01*
X16585314Y-47200655D01*
X16640044Y-47404910D01*
X16729411Y-47596558D01*
X16850699Y-47769776D01*
X17000224Y-47919301D01*
X17173442Y-48040589D01*
X17178420Y-48042910D01*
X17178423Y-48042912D01*
X17360108Y-48127633D01*
X17365090Y-48129956D01*
X17370398Y-48131378D01*
X17370400Y-48131379D01*
X17564030Y-48183262D01*
X17564032Y-48183262D01*
X17569345Y-48184686D01*
X17780000Y-48203116D01*
X17990655Y-48184686D01*
X17995968Y-48183262D01*
X17995970Y-48183262D01*
X18189600Y-48131379D01*
X18189602Y-48131378D01*
X18194910Y-48129956D01*
X18199892Y-48127633D01*
X18381577Y-48042912D01*
X18381580Y-48042910D01*
X18386558Y-48040589D01*
X18559776Y-47919301D01*
X18709301Y-47769776D01*
X18830589Y-47596558D01*
X18919956Y-47404910D01*
X18974686Y-47200655D01*
X18993116Y-46990000D01*
X18974686Y-46779345D01*
X18919956Y-46575090D01*
X18830589Y-46383442D01*
X18709301Y-46210224D01*
X18559776Y-46060699D01*
X18386558Y-45939411D01*
X18381580Y-45937090D01*
X18381577Y-45937088D01*
X18199892Y-45852367D01*
X18199891Y-45852366D01*
X18194910Y-45850044D01*
X18189602Y-45848622D01*
X18189600Y-45848621D01*
X17995970Y-45796738D01*
X17995968Y-45796738D01*
X17990655Y-45795314D01*
X17780000Y-45776884D01*
X17569345Y-45795314D01*
X17564032Y-45796738D01*
X17564030Y-45796738D01*
X17370400Y-45848621D01*
X17370398Y-45848622D01*
X17365090Y-45850044D01*
X17360109Y-45852366D01*
X17360108Y-45852367D01*
X17178423Y-45937088D01*
X17178420Y-45937090D01*
X17173442Y-45939411D01*
X17000224Y-46060699D01*
X16850699Y-46210224D01*
X16729411Y-46383442D01*
X16640044Y-46575090D01*
X16585314Y-46779345D01*
X16566884Y-46990000D01*
X13913116Y-46990000D01*
X13894686Y-46779345D01*
X13839956Y-46575090D01*
X13750589Y-46383442D01*
X13629301Y-46210224D01*
X13479776Y-46060699D01*
X13306558Y-45939411D01*
X13301580Y-45937090D01*
X13301577Y-45937088D01*
X13119892Y-45852367D01*
X13119891Y-45852366D01*
X13114910Y-45850044D01*
X13109602Y-45848622D01*
X13109600Y-45848621D01*
X12915970Y-45796738D01*
X12915968Y-45796738D01*
X12910655Y-45795314D01*
X12700000Y-45776884D01*
X12489345Y-45795314D01*
X12484032Y-45796738D01*
X12484030Y-45796738D01*
X12290400Y-45848621D01*
X12290398Y-45848622D01*
X12285090Y-45850044D01*
X12280109Y-45852366D01*
X12280108Y-45852367D01*
X12098423Y-45937088D01*
X12098420Y-45937090D01*
X12093442Y-45939411D01*
X11920224Y-46060699D01*
X11770699Y-46210224D01*
X11649411Y-46383442D01*
X11560044Y-46575090D01*
X11505314Y-46779345D01*
X11486884Y-46990000D01*
X8833116Y-46990000D01*
X8814686Y-46779345D01*
X8759956Y-46575090D01*
X8670589Y-46383442D01*
X8549301Y-46210224D01*
X8399776Y-46060699D01*
X8226558Y-45939411D01*
X8221580Y-45937090D01*
X8221577Y-45937088D01*
X8039892Y-45852367D01*
X8039891Y-45852366D01*
X8034910Y-45850044D01*
X8029602Y-45848622D01*
X8029600Y-45848621D01*
X7835970Y-45796738D01*
X7835968Y-45796738D01*
X7830655Y-45795314D01*
X7620000Y-45776884D01*
X7409345Y-45795314D01*
X7404032Y-45796738D01*
X7404030Y-45796738D01*
X7210400Y-45848621D01*
X7210398Y-45848622D01*
X7205090Y-45850044D01*
X7200109Y-45852366D01*
X7200108Y-45852367D01*
X7018423Y-45937088D01*
X7018420Y-45937090D01*
X7013442Y-45939411D01*
X6840224Y-46060699D01*
X6690699Y-46210224D01*
X6569411Y-46383442D01*
X6480044Y-46575090D01*
X6425314Y-46779345D01*
X6406884Y-46990000D01*
X3753116Y-46990000D01*
X3734686Y-46779345D01*
X3679956Y-46575090D01*
X3590589Y-46383442D01*
X3469301Y-46210224D01*
X3319776Y-46060699D01*
X3146558Y-45939411D01*
X3141580Y-45937090D01*
X3141577Y-45937088D01*
X2959892Y-45852367D01*
X2959891Y-45852366D01*
X2954910Y-45850044D01*
X2949602Y-45848622D01*
X2949600Y-45848621D01*
X2755970Y-45796738D01*
X2755968Y-45796738D01*
X2750655Y-45795314D01*
X2540000Y-45776884D01*
X2329345Y-45795314D01*
X2324032Y-45796738D01*
X2324030Y-45796738D01*
X2130400Y-45848621D01*
X2130398Y-45848622D01*
X2125090Y-45850044D01*
X2120109Y-45852366D01*
X2120108Y-45852367D01*
X1938423Y-45937088D01*
X1938420Y-45937090D01*
X1933442Y-45939411D01*
X1760224Y-46060699D01*
X1610699Y-46210224D01*
X1489411Y-46383442D01*
X1400044Y-46575090D01*
X1345314Y-46779345D01*
X1326884Y-46990000D01*
X-1326884Y-46990000D01*
X-1345314Y-46779345D01*
X-1400044Y-46575090D01*
X-1489411Y-46383442D01*
X-1610699Y-46210224D01*
X-1760224Y-46060699D01*
X-1933442Y-45939411D01*
X-1938420Y-45937090D01*
X-1938423Y-45937088D01*
X-2120108Y-45852367D01*
X-2120109Y-45852366D01*
X-2125090Y-45850044D01*
X-2130398Y-45848622D01*
X-2130400Y-45848621D01*
X-2324030Y-45796738D01*
X-2324032Y-45796738D01*
X-2329345Y-45795314D01*
X-2540000Y-45776884D01*
X-2750655Y-45795314D01*
X-2755968Y-45796738D01*
X-2755970Y-45796738D01*
X-2949600Y-45848621D01*
X-2949602Y-45848622D01*
X-2954910Y-45850044D01*
X-2959891Y-45852366D01*
X-2959892Y-45852367D01*
X-3141577Y-45937088D01*
X-3141580Y-45937090D01*
X-3146558Y-45939411D01*
X-3319776Y-46060699D01*
X-3469301Y-46210224D01*
X-3590589Y-46383442D01*
X-3679956Y-46575090D01*
X-3734686Y-46779345D01*
X-3753116Y-46990000D01*
X-6406884Y-46990000D01*
X-6425314Y-46779345D01*
X-6480044Y-46575090D01*
X-6569411Y-46383442D01*
X-6690699Y-46210224D01*
X-6840224Y-46060699D01*
X-7013442Y-45939411D01*
X-7018420Y-45937090D01*
X-7018423Y-45937088D01*
X-7200108Y-45852367D01*
X-7200109Y-45852366D01*
X-7205090Y-45850044D01*
X-7210398Y-45848622D01*
X-7210400Y-45848621D01*
X-7404030Y-45796738D01*
X-7404032Y-45796738D01*
X-7409345Y-45795314D01*
X-7620000Y-45776884D01*
X-7830655Y-45795314D01*
X-7835968Y-45796738D01*
X-7835970Y-45796738D01*
X-8029600Y-45848621D01*
X-8029602Y-45848622D01*
X-8034910Y-45850044D01*
X-8039891Y-45852366D01*
X-8039892Y-45852367D01*
X-8221577Y-45937088D01*
X-8221580Y-45937090D01*
X-8226558Y-45939411D01*
X-8399776Y-46060699D01*
X-8549301Y-46210224D01*
X-8670589Y-46383442D01*
X-8759956Y-46575090D01*
X-8814686Y-46779345D01*
X-8833116Y-46990000D01*
X-11486884Y-46990000D01*
X-11505314Y-46779345D01*
X-11560044Y-46575090D01*
X-11649411Y-46383442D01*
X-11770699Y-46210224D01*
X-11920224Y-46060699D01*
X-12093442Y-45939411D01*
X-12098420Y-45937090D01*
X-12098423Y-45937088D01*
X-12280108Y-45852367D01*
X-12280109Y-45852366D01*
X-12285090Y-45850044D01*
X-12290398Y-45848622D01*
X-12290400Y-45848621D01*
X-12484030Y-45796738D01*
X-12484032Y-45796738D01*
X-12489345Y-45795314D01*
X-12700000Y-45776884D01*
X-12910655Y-45795314D01*
X-12915968Y-45796738D01*
X-12915970Y-45796738D01*
X-13109600Y-45848621D01*
X-13109602Y-45848622D01*
X-13114910Y-45850044D01*
X-13119891Y-45852366D01*
X-13119892Y-45852367D01*
X-13301577Y-45937088D01*
X-13301580Y-45937090D01*
X-13306558Y-45939411D01*
X-13479776Y-46060699D01*
X-13629301Y-46210224D01*
X-13750589Y-46383442D01*
X-13839956Y-46575090D01*
X-13894686Y-46779345D01*
X-13913116Y-46990000D01*
X-16566884Y-46990000D01*
X-16585314Y-46779345D01*
X-16640044Y-46575090D01*
X-16729411Y-46383442D01*
X-16850699Y-46210224D01*
X-17000224Y-46060699D01*
X-17173442Y-45939411D01*
X-17178420Y-45937090D01*
X-17178423Y-45937088D01*
X-17360108Y-45852367D01*
X-17360109Y-45852366D01*
X-17365090Y-45850044D01*
X-17370398Y-45848622D01*
X-17370400Y-45848621D01*
X-17564030Y-45796738D01*
X-17564032Y-45796738D01*
X-17569345Y-45795314D01*
X-17780000Y-45776884D01*
X-17990655Y-45795314D01*
X-17995968Y-45796738D01*
X-17995970Y-45796738D01*
X-18189600Y-45848621D01*
X-18189602Y-45848622D01*
X-18194910Y-45850044D01*
X-18199891Y-45852366D01*
X-18199892Y-45852367D01*
X-18381577Y-45937088D01*
X-18381580Y-45937090D01*
X-18386558Y-45939411D01*
X-18559776Y-46060699D01*
X-18709301Y-46210224D01*
X-18830589Y-46383442D01*
X-18919956Y-46575090D01*
X-18974686Y-46779345D01*
X-18993116Y-46990000D01*
X-39491500Y-46990000D01*
X-39491500Y-6945987D01*
X-36581279Y-6945987D01*
X-36572452Y-6957605D01*
X-36349719Y-7119430D01*
X-36343039Y-7123670D01*
X-36073428Y-7271890D01*
X-36066293Y-7275247D01*
X-35780230Y-7388508D01*
X-35772704Y-7390953D01*
X-35474721Y-7467462D01*
X-35466950Y-7468945D01*
X-35161722Y-7507503D01*
X-35153831Y-7508000D01*
X-34846169Y-7508000D01*
X-34838278Y-7507503D01*
X-34533050Y-7468945D01*
X-34525279Y-7467462D01*
X-34227296Y-7390953D01*
X-34219770Y-7388508D01*
X-33933707Y-7275247D01*
X-33926572Y-7271890D01*
X-33656961Y-7123670D01*
X-33650281Y-7119430D01*
X-33427177Y-6957336D01*
X-33418754Y-6946413D01*
X-33418983Y-6945987D01*
X33418721Y-6945987D01*
X33427548Y-6957605D01*
X33650281Y-7119430D01*
X33656961Y-7123670D01*
X33926572Y-7271890D01*
X33933707Y-7275247D01*
X34219770Y-7388508D01*
X34227296Y-7390953D01*
X34525279Y-7467462D01*
X34533050Y-7468945D01*
X34838278Y-7507503D01*
X34846169Y-7508000D01*
X35153831Y-7508000D01*
X35161722Y-7507503D01*
X35466950Y-7468945D01*
X35474721Y-7467462D01*
X35772704Y-7390953D01*
X35780230Y-7388508D01*
X36066293Y-7275247D01*
X36073428Y-7271890D01*
X36343039Y-7123670D01*
X36349719Y-7119430D01*
X36572823Y-6957336D01*
X36581246Y-6946413D01*
X36574342Y-6933552D01*
X35012812Y-5372022D01*
X34998868Y-5364408D01*
X34997035Y-5364539D01*
X34990420Y-5368790D01*
X33425334Y-6933876D01*
X33418721Y-6945987D01*
X-33418983Y-6945987D01*
X-33425658Y-6933552D01*
X-34987188Y-5372022D01*
X-35001132Y-5364408D01*
X-35002965Y-5364539D01*
X-35009580Y-5368790D01*
X-36574666Y-6933876D01*
X-36581279Y-6945987D01*
X-39491500Y-6945987D01*
X-39491500Y-5053250D01*
X-39489754Y-5032345D01*
X-39487230Y-5017344D01*
X-39487230Y-5017341D01*
X-39486424Y-5012552D01*
X-39486319Y-5003958D01*
X-37512710Y-5003958D01*
X-37493393Y-5310994D01*
X-37492400Y-5318855D01*
X-37434754Y-5621046D01*
X-37432783Y-5628723D01*
X-37337716Y-5921309D01*
X-37334801Y-5928672D01*
X-37203811Y-6207041D01*
X-37199999Y-6213974D01*
X-37035149Y-6473736D01*
X-37030505Y-6480129D01*
X-36955503Y-6570790D01*
X-36942986Y-6579245D01*
X-36932248Y-6573038D01*
X-35372022Y-5012812D01*
X-35365644Y-5001132D01*
X-34635592Y-5001132D01*
X-34635461Y-5002965D01*
X-34631210Y-5009580D01*
X-33068855Y-6571935D01*
X-33055593Y-6579177D01*
X-33045488Y-6571988D01*
X-32969495Y-6480129D01*
X-32964851Y-6473736D01*
X-32800001Y-6213974D01*
X-32796189Y-6207041D01*
X-32665199Y-5928672D01*
X-32662284Y-5921309D01*
X-32567217Y-5628723D01*
X-32565246Y-5621046D01*
X-32507600Y-5318855D01*
X-32506607Y-5310994D01*
X-32487290Y-5003958D01*
X32487290Y-5003958D01*
X32506607Y-5310994D01*
X32507600Y-5318855D01*
X32565246Y-5621046D01*
X32567217Y-5628723D01*
X32662284Y-5921309D01*
X32665199Y-5928672D01*
X32796189Y-6207041D01*
X32800001Y-6213974D01*
X32964851Y-6473736D01*
X32969495Y-6480129D01*
X33044497Y-6570790D01*
X33057014Y-6579245D01*
X33067752Y-6573038D01*
X34627978Y-5012812D01*
X34634356Y-5001132D01*
X35364408Y-5001132D01*
X35364539Y-5002965D01*
X35368790Y-5009580D01*
X36931145Y-6571935D01*
X36944407Y-6579177D01*
X36954512Y-6571988D01*
X37030505Y-6480129D01*
X37035149Y-6473736D01*
X37199999Y-6213974D01*
X37203811Y-6207041D01*
X37334801Y-5928672D01*
X37337716Y-5921309D01*
X37432783Y-5628723D01*
X37434754Y-5621046D01*
X37492400Y-5318855D01*
X37493393Y-5310994D01*
X37512710Y-5003958D01*
X37512710Y-4996042D01*
X37493393Y-4689006D01*
X37492400Y-4681145D01*
X37434754Y-4378954D01*
X37432783Y-4371277D01*
X37337716Y-4078691D01*
X37334801Y-4071328D01*
X37203811Y-3792959D01*
X37199999Y-3786026D01*
X37035149Y-3526264D01*
X37030505Y-3519871D01*
X36955503Y-3429210D01*
X36942986Y-3420755D01*
X36932248Y-3426962D01*
X35372022Y-4987188D01*
X35364408Y-5001132D01*
X34634356Y-5001132D01*
X34635592Y-4998868D01*
X34635461Y-4997035D01*
X34631210Y-4990420D01*
X33068855Y-3428065D01*
X33055593Y-3420823D01*
X33045488Y-3428012D01*
X32969495Y-3519871D01*
X32964851Y-3526264D01*
X32800001Y-3786026D01*
X32796189Y-3792959D01*
X32665199Y-4071328D01*
X32662284Y-4078691D01*
X32567217Y-4371277D01*
X32565246Y-4378954D01*
X32507600Y-4681145D01*
X32506607Y-4689006D01*
X32487290Y-4996042D01*
X32487290Y-5003958D01*
X-32487290Y-5003958D01*
X-32487290Y-4996042D01*
X-32506607Y-4689006D01*
X-32507600Y-4681145D01*
X-32565246Y-4378954D01*
X-32567217Y-4371277D01*
X-32662284Y-4078691D01*
X-32665199Y-4071328D01*
X-32796189Y-3792959D01*
X-32800001Y-3786026D01*
X-32964851Y-3526264D01*
X-32969495Y-3519871D01*
X-33044497Y-3429210D01*
X-33057014Y-3420755D01*
X-33067752Y-3426962D01*
X-34627978Y-4987188D01*
X-34635592Y-5001132D01*
X-35365644Y-5001132D01*
X-35364408Y-4998868D01*
X-35364539Y-4997035D01*
X-35368790Y-4990420D01*
X-36931145Y-3428065D01*
X-36944407Y-3420823D01*
X-36954512Y-3428012D01*
X-37030505Y-3519871D01*
X-37035149Y-3526264D01*
X-37199999Y-3786026D01*
X-37203811Y-3792959D01*
X-37334801Y-4071328D01*
X-37337716Y-4078691D01*
X-37432783Y-4371277D01*
X-37434754Y-4378954D01*
X-37492400Y-4681145D01*
X-37493393Y-4689006D01*
X-37512710Y-4996042D01*
X-37512710Y-5003958D01*
X-39486319Y-5003958D01*
X-39486271Y-5000000D01*
X-39486961Y-4995184D01*
X-39486961Y-4995178D01*
X-39488613Y-4983644D01*
X-39489766Y-4960284D01*
X-39474648Y-4614036D01*
X-39473690Y-4603086D01*
X-39423982Y-4225510D01*
X-39422073Y-4214685D01*
X-39339647Y-3842886D01*
X-39336802Y-3832268D01*
X-39222285Y-3469068D01*
X-39218526Y-3458739D01*
X-39072780Y-3106877D01*
X-39068138Y-3096924D01*
X-39052104Y-3066124D01*
X-39045578Y-3053587D01*
X-36581246Y-3053587D01*
X-36574342Y-3066448D01*
X-35012812Y-4627978D01*
X-34998868Y-4635592D01*
X-34997035Y-4635461D01*
X-34990420Y-4631210D01*
X-33425334Y-3066124D01*
X-33418721Y-3054013D01*
X-33419045Y-3053587D01*
X33418754Y-3053587D01*
X33425658Y-3066448D01*
X34987188Y-4627978D01*
X35001132Y-4635592D01*
X35002965Y-4635461D01*
X35009580Y-4631210D01*
X36574666Y-3066124D01*
X36581279Y-3054013D01*
X36572452Y-3042395D01*
X36349719Y-2880570D01*
X36343039Y-2876330D01*
X36073428Y-2728110D01*
X36066293Y-2724753D01*
X35780230Y-2611492D01*
X35772704Y-2609047D01*
X35474721Y-2532538D01*
X35466950Y-2531055D01*
X35161722Y-2492497D01*
X35153831Y-2492000D01*
X34846169Y-2492000D01*
X34838278Y-2492497D01*
X34533050Y-2531055D01*
X34525279Y-2532538D01*
X34227296Y-2609047D01*
X34219770Y-2611492D01*
X33933707Y-2724753D01*
X33926572Y-2728110D01*
X33656961Y-2876330D01*
X33650281Y-2880570D01*
X33427177Y-3042664D01*
X33418754Y-3053587D01*
X-33419045Y-3053587D01*
X-33427548Y-3042395D01*
X-33650281Y-2880570D01*
X-33656961Y-2876330D01*
X-33926572Y-2728110D01*
X-33933707Y-2724753D01*
X-34219770Y-2611492D01*
X-34227296Y-2609047D01*
X-34525279Y-2532538D01*
X-34533050Y-2531055D01*
X-34838278Y-2492497D01*
X-34846169Y-2492000D01*
X-35153831Y-2492000D01*
X-35161722Y-2492497D01*
X-35466950Y-2531055D01*
X-35474721Y-2532538D01*
X-35772704Y-2609047D01*
X-35780230Y-2611492D01*
X-36066293Y-2724753D01*
X-36073428Y-2728110D01*
X-36343039Y-2876330D01*
X-36349719Y-2880570D01*
X-36572823Y-3042664D01*
X-36581246Y-3053587D01*
X-39045578Y-3053587D01*
X-38892294Y-2759132D01*
X-38886799Y-2749613D01*
X-38682180Y-2428426D01*
X-38675876Y-2419422D01*
X-38444038Y-2117284D01*
X-38436972Y-2108863D01*
X-38179686Y-1828086D01*
X-38171914Y-1820314D01*
X-37891137Y-1563028D01*
X-37882716Y-1555962D01*
X-37580578Y-1324124D01*
X-37571574Y-1317820D01*
X-37250387Y-1113201D01*
X-37240867Y-1107705D01*
X-36903067Y-931858D01*
X-36893123Y-927220D01*
X-36541254Y-781471D01*
X-36530939Y-777718D01*
X-36167731Y-663198D01*
X-36157114Y-660353D01*
X-35785307Y-577926D01*
X-35774498Y-576019D01*
X-35396913Y-526310D01*
X-35385965Y-525352D01*
X-35043446Y-510397D01*
X-35018571Y-511777D01*
X-35006276Y-513691D01*
X-34997374Y-512527D01*
X-34997372Y-512527D01*
X-34978601Y-510072D01*
X-34974714Y-509564D01*
X-34958379Y-508500D01*
X34950633Y-508500D01*
X34970018Y-510000D01*
G37*
G04 #@! TD.AperFunction*
M02*
